SplineFontDB: 3.0
FontName: Buda
FullName: Buda
FamilyName: Buda
Weight: light
Copyright: Copyright (c) 2010, Adele Antignac (a.antignac@hotmail.fr). All rights reserved. Licenced under SIL OFL vl.1
Version: 1.001
ItalicAngle: 0
UnderlinePosition: 0
UnderlineWidth: 0
Ascent: 1638
Descent: 410
LayerCount: 2
Layer: 0 1 "Back" 
Layer: 1 1 "Fore" 
NeedsXUIDChange: 1
FSType: 0
OS2Version: 0
OS2_WeightWidthSlopeOnly: 0
OS2_UseTypoMetrics: 1
CreationTime: 1292164303
ModificationTime: 1292354914
PfmFamily: 17
TTFWeight: 500
TTFWidth: 5
LineGap: 0
VLineGap: 0
OS2TypoAscent: 1519
OS2TypoAOffset: 0
OS2TypoDescent: -529
OS2TypoDOffset: 0
OS2TypoLinegap: 512
OS2WinAscent: 1836
OS2WinAOffset: 0
OS2WinDescent: 724
OS2WinDOffset: 0
HheadAscent: 1836
HheadAOffset: 0
HheadDescent: -724
HheadDOffset: 0
OS2Vendor: 'PfEd'
Lookup: 258 0 0 "'kern' Horizontal Kerning in Latin lookup 0"  {"'kern' Horizontal Kerning in Latin lookup 0 subtable"  } ['kern' ('latn' <'dflt' > ) ]
DEI: 0
TtTable: prep
PUSHW_1
 511
SCANCTRL
SVTCA[y-axis]
MPPEM
PUSHB_1
 8
LT
IF
PUSHB_2
 1
 1
INSTCTRL
EIF
PUSHB_2
 70
 6
CALL
IF
POP
PUSHB_1
 16
EIF
MPPEM
PUSHB_1
 20
GT
IF
POP
PUSHB_1
 128
EIF
SCVTCI
PUSHB_1
 6
CALL
NOT
IF
SVTCA[y-axis]
PUSHB_1
 3
DUP
RCVT
PUSHB_1
 3
CALL
WCVTP
PUSHB_1
 6
DUP
RCVT
PUSHB_3
 3
 184
 2
CALL
PUSHB_1
 3
CALL
WCVTP
PUSHB_1
 5
DUP
RCVT
PUSHB_3
 6
 144
 2
CALL
PUSHB_1
 3
CALL
WCVTP
PUSHB_1
 4
DUP
RCVT
PUSHB_3
 5
 62
 2
CALL
PUSHB_1
 3
CALL
WCVTP
PUSHB_1
 7
DUP
RCVT
PUSHB_3
 3
 93
 2
CALL
PUSHB_1
 3
CALL
WCVTP
PUSHB_1
 8
DUP
RCVT
PUSHB_3
 7
 47
 2
CALL
PUSHB_1
 3
CALL
WCVTP
PUSHB_1
 9
DUP
RCVT
PUSHB_3
 8
 44
 2
CALL
PUSHB_1
 3
CALL
WCVTP
PUSHB_1
 10
DUP
RCVT
PUSHB_3
 9
 41
 2
CALL
PUSHB_1
 3
CALL
WCVTP
PUSHB_1
 11
DUP
RCVT
PUSHB_3
 10
 40
 2
CALL
PUSHB_1
 3
CALL
WCVTP
PUSHB_1
 12
DUP
RCVT
PUSHB_3
 11
 38
 2
CALL
PUSHB_1
 3
CALL
WCVTP
PUSHB_1
 13
DUP
RCVT
PUSHB_3
 12
 34
 2
CALL
PUSHB_1
 3
CALL
WCVTP
PUSHB_1
 14
DUP
RCVT
PUSHB_3
 13
 32
 2
CALL
PUSHB_1
 3
CALL
WCVTP
SVTCA[x-axis]
PUSHB_1
 15

StartChar: A
Encoding: 258 65 2
Width: 1212
VWidth: 0
Flags: MW
HStem: 0 21G<-2 59.4615 1060.15 1216> 520 120<296 818> 1380 20G<512.543 673.857>
DStem2: -2 0 52 0 0.349363 0.936988<18.8656 573.875 703.782 1435.99> 666 1400 552 1326 0.365652 -0.930752<27.1912 762.95 891.461 1450.04>
LayerCount: 2
Back
SplineSet
666 1400 m 1,0,-1
 1216 0 l 1,1,-1
 1068 0 l 1,2,-1
 864 520 l 1,3,-1
 246 520 l 1,4,-1
 52 0 l 1,5,-1
 -2 0 l 1,6,-1
 520 1400 l 1,7,-1
 666 1400 l 1,0,-1
296 640 m 1,8,-1
 818 640 l 1,9,-1
 552 1326 l 1,10,-1
 296 640 l 1,8,-1
EndSplineSet
Fore
SplineSet
666 1400 m 1,0,-1
 1216 0 l 1,1,-1
 1068 0 l 1,2,-1
 864 520 l 1,3,-1
 246 520 l 1,4,-1
 52 0 l 5,5,-1
 -2 0 l 5,6,-1
 520 1400 l 5,7,-1
 666 1400 l 1,0,-1
296 640 m 1,8,-1
 818 640 l 1,9,-1
 552 1326 l 5,10,-1
 296 640 l 1,8,-1
EndSplineSet
Validated: 19457
EndChar

StartChar: AE
Encoding: 259 198 3
Width: 1718
VWidth: 0
Flags: MW
HStem: 0 120<860 1552> 520 104<304 654> 658 104<796 1398> 1350 50<714 1359.41>
DStem2: -6 0 50 0 0.378221 0.925715<21.1804 581.979 694.895 1421.7> 714 1350 576 1298 0.116308 -0.993213<35.5965 592.151 696.841 714.094 818.784 1238.63>
LayerCount: 2
Back
SplineSet
1490 1400 m 1,0,-1
 1538 1148 l 1,1,-1
 1490 1148 l 1,2,3
 1472 1203 1472 1203 1453.5 1237 c 128,-1,4
 1435 1271 1435 1271 1402.5 1298.5 c 128,-1,5
 1370 1326 1370 1326 1321 1338 c 128,-1,6
 1272 1350 1272 1350 1200 1350 c 2,7,-1
 714 1350 l 1,8,-1
 784 762 l 1,9,-1
 1398 762 l 1,10,-1
 1398 658 l 1,11,-1
 796 658 l 1,12,-1
 860 120 l 1,13,-1
 1552 120 l 1,14,-1
 1552 0 l 1,15,-1
 728 0 l 1,16,-1
 666 520 l 1,17,-1
 260 520 l 1,18,-1
 50 0 l 1,19,-1
 -6 0 l 1,20,-1
 566 1400 l 1,21,-1
 1490 1400 l 1,0,-1
304 624 m 1,22,-1
 654 624 l 1,23,-1
 576 1298 l 1,24,-1
 304 624 l 1,22,-1
EndSplineSet
Fore
SplineSet
1490 1400 m 1,0,-1
 1538 1148 l 1,1,-1
 1490 1148 l 1,2,3
 1472 1203 1472 1203 1453.5 1237 c 128,-1,4
 1435 1271 1435 1271 1402.5 1298.5 c 128,-1,5
 1370 1326 1370 1326 1321 1338 c 128,-1,6
 1272 1350 1272 1350 1200 1350 c 2,7,-1
 714 1350 l 1,8,-1
 784 762 l 1,9,-1
 1398 762 l 1,10,-1
 1398 658 l 1,11,-1
 796 658 l 1,12,-1
 860 120 l 1,13,-1
 1552 120 l 1,14,-1
 1552 0 l 1,15,-1
 728 0 l 1,16,-1
 666 520 l 1,17,-1
 260 520 l 1,18,-1
 50 0 l 5,19,-1
 -6 0 l 5,20,-1
 566 1400 l 5,21,-1
 1490 1400 l 1,0,-1
304 624 m 1,22,-1
 654 624 l 1,23,-1
 576 1298 l 5,24,-1
 304 624 l 1,22,-1
EndSplineSet
Validated: 19457
EndChar

StartChar: B
Encoding: 266 66 10
Width: 1336
VWidth: 0
Flags: W
HStem: 0 120<336 939.344> 680 50<336 834.001> 1280 120<336 865.05>
VStem: 216 120<120 680 730 1280> 980 130<897.482 1171.61> 1074 130<238.734 551.93>
LayerCount: 2
Back
SplineSet
216 0 m 1,0,-1
 216 1400 l 1,1,-1
 646 1400 l 2,2,3
 871 1400 871 1400 990.5 1313.5 c 128,-1,4
 1110 1227 1110 1227 1110 1066 c 0,5,6
 1110 931 1110 931 1020.5 839 c 128,-1,7
 931 747 931 747 812 718 c 1,8,9
 1204 693 1204 693 1204 370 c 0,10,11
 1204 272 1204 272 1165 199 c 128,-1,12
 1126 126 1126 126 1055.5 83.5 c 128,-1,13
 985 41 985 41 896 20.5 c 128,-1,14
 807 0 807 0 698 0 c 2,15,-1
 216 0 l 1,0,-1
336 680 m 1,16,-1
 336 120 l 1,17,-1
 676 120 l 2,18,19
 885 120 885 120 979.5 188 c 128,-1,20
 1074 256 1074 256 1074 400 c 0,21,22
 1074 545 1074 545 981 612.5 c 128,-1,23
 888 680 888 680 666 680 c 2,24,-1
 336 680 l 1,16,-1
336 730 m 1,25,-1
 600 730 l 2,26,27
 703 730 703 730 779.5 753.5 c 128,-1,28
 856 777 856 777 898 817 c 128,-1,29
 940 857 940 857 960 905 c 128,-1,30
 980 953 980 953 980 1008 c 0,31,32
 980 1140 980 1140 901.5 1210 c 128,-1,33
 823 1280 823 1280 634 1280 c 2,34,-1
 336 1280 l 1,35,-1
 336 730 l 1,25,-1
EndSplineSet
Fore
SplineSet
216 0 m 1,0,-1
 216 1400 l 1,1,-1
 646 1400 l 2,2,3
 871 1400 871 1400 990.5 1313.5 c 128,-1,4
 1110 1227 1110 1227 1110 1066 c 0,5,6
 1110 931 1110 931 1020.5 839 c 128,-1,7
 931 747 931 747 812 718 c 1,8,9
 1204 693 1204 693 1204 370 c 0,10,11
 1204 272 1204 272 1165 199 c 128,-1,12
 1126 126 1126 126 1055.5 83.5 c 128,-1,13
 985 41 985 41 896 20.5 c 128,-1,14
 807 0 807 0 698 0 c 2,15,-1
 216 0 l 1,0,-1
336 680 m 1,16,-1
 336 120 l 1,17,-1
 676 120 l 2,18,19
 885 120 885 120 979.5 188 c 128,-1,20
 1074 256 1074 256 1074 400 c 0,21,22
 1074 545 1074 545 981 612.5 c 128,-1,23
 888 680 888 680 666 680 c 2,24,-1
 336 680 l 1,16,-1
336 730 m 1,25,-1
 600 730 l 2,26,27
 703 730 703 730 779.5 753.5 c 128,-1,28
 856 777 856 777 898 817 c 128,-1,29
 940 857 940 857 960 905 c 128,-1,30
 980 953 980 953 980 1008 c 0,31,32
 980 1140 980 1140 901.5 1210 c 128,-1,33
 823 1280 823 1280 634 1280 c 2,34,-1
 336 1280 l 1,35,-1
 336 730 l 1,25,-1
EndSplineSet
Validated: 19457
EndChar

StartChar: C
Encoding: 267 67 11
Width: 1358
VWidth: 0
Flags: W
HStem: -28 130<536.866 930.369> 1381 51<572.415 868.583>
VStem: 92 130<477.984 994.305> 1134 58<1044 1131.72>
LayerCount: 2
Back
SplineSet
1150 354 m 1,0,1
 1262 294 l 1,2,-1
 1253 276 l 2,3,4
 1244 258 1244 258 1223 230 c 128,-1,5
 1202 202 1202 202 1172.5 167.5 c 128,-1,6
 1143 133 1143 133 1097.5 98.5 c 128,-1,7
 1052 64 1052 64 998.5 36 c 128,-1,8
 945 8 945 8 871.5 -10 c 128,-1,9
 798 -28 798 -28 718 -28 c 0,10,11
 624 -28 624 -28 534 3 c 128,-1,12
 444 34 444 34 364 97 c 128,-1,13
 284 160 284 160 223.5 248 c 128,-1,14
 163 336 163 336 127.5 458 c 128,-1,15
 92 580 92 580 92 720 c 0,16,17
 92 884 92 884 146.5 1021.5 c 128,-1,18
 201 1159 201 1159 291 1247 c 128,-1,19
 381 1335 381 1335 492.5 1383.5 c 128,-1,20
 604 1432 604 1432 722 1432 c 0,21,22
 806 1432 806 1432 883 1416.5 c 128,-1,23
 960 1401 960 1401 1006.5 1382.5 c 128,-1,24
 1053 1364 1053 1364 1093.5 1339.5 c 128,-1,25
 1134 1315 1134 1315 1145 1305.5 c 128,-1,26
 1156 1296 1156 1296 1162 1290 c 1,27,-1
 1192 1044 l 1,28,-1
 1134 1044 l 1,29,30
 1121 1107 1121 1107 1089 1164.5 c 128,-1,31
 1057 1222 1057 1222 1007 1271 c 128,-1,32
 957 1320 957 1320 882.5 1350.5 c 128,-1,33
 808 1381 808 1381 720 1382 c 0,34,35
 623 1384 623 1384 534 1342.5 c 128,-1,36
 445 1301 445 1301 375 1224.5 c 128,-1,37
 305 1148 305 1148 263.5 1027.5 c 128,-1,38
 222 907 222 907 222 762 c 0,39,40
 222 476 222 476 366.5 289 c 128,-1,41
 511 102 511 102 736 102 c 0,42,43
 793 102 793 102 847 116 c 128,-1,44
 901 130 901 130 941 152 c 128,-1,45
 981 174 981 174 1016.5 201.5 c 128,-1,46
 1052 229 1052 229 1075.5 255.5 c 128,-1,47
 1099 282 1099 282 1116.5 305 c 128,-1,48
 1134 328 1134 328 1142 341 c 2,49,-1
 1150 354 l 1,0,1
EndSplineSet
Fore
SplineSet
1150 354 m 1,0,1
 1262 294 l 1,2,-1
 1253 276 l 2,3,4
 1244 258 1244 258 1223 230 c 128,-1,5
 1202 202 1202 202 1172.5 167.5 c 128,-1,6
 1143 133 1143 133 1097.5 98.5 c 128,-1,7
 1052 64 1052 64 998.5 36 c 128,-1,8
 945 8 945 8 871.5 -10 c 128,-1,9
 798 -28 798 -28 718 -28 c 0,10,11
 624 -28 624 -28 534 3 c 128,-1,12
 444 34 444 34 364 97 c 128,-1,13
 284 160 284 160 223.5 248 c 128,-1,14
 163 336 163 336 127.5 458 c 128,-1,15
 92 580 92 580 92 720 c 0,16,17
 92 884 92 884 146.5 1021.5 c 128,-1,18
 201 1159 201 1159 291 1247 c 128,-1,19
 381 1335 381 1335 492.5 1383.5 c 128,-1,20
 604 1432 604 1432 722 1432 c 0,21,22
 806 1432 806 1432 883 1416.5 c 128,-1,23
 960 1401 960 1401 1006.5 1382.5 c 128,-1,24
 1053 1364 1053 1364 1093.5 1339.5 c 128,-1,25
 1134 1315 1134 1315 1145 1305.5 c 128,-1,26
 1156 1296 1156 1296 1162 1290 c 1,27,-1
 1192 1044 l 1,28,-1
 1134 1044 l 1,29,30
 1121 1107 1121 1107 1089 1164.5 c 128,-1,31
 1057 1222 1057 1222 1007 1271 c 0,32,33
 963 1314 963 1314 882 1350 c 0,34,35
 812 1381 812 1381 718 1381 c 27,36,37
 622 1381 622 1381 536 1341 c 128,-1,38
 450 1301 450 1301 376 1224.5 c 128,-1,39
 302 1148 302 1148 262 1027.5 c 128,-1,40
 222 907 222 907 222 762 c 0,41,42
 222 476 222 476 366.5 289 c 128,-1,43
 511 102 511 102 736 102 c 0,44,45
 793 102 793 102 847 116 c 128,-1,46
 901 130 901 130 941 152 c 128,-1,47
 981 174 981 174 1016.5 201.5 c 128,-1,48
 1052 229 1052 229 1075.5 255.5 c 128,-1,49
 1099 282 1099 282 1116.5 305 c 128,-1,50
 1134 328 1134 328 1142 341 c 2,51,-1
 1150 354 l 1,0,1
EndSplineSet
Validated: 3073
EndChar

StartChar: Ccedilla
Encoding: 269 199 13
Width: 1358
VWidth: 0
Flags: W
HStem: -28 130<643.258 930.369> 1381 51<572.415 868.583>
VStem: 92 130<476.058 994.49> 661 90<-325.164 -174.528>
DStem2: 604 -341 607 -380 0.948683 0.316228<-9.48683 48.0481> 1075.5 255.5 1172.5 167.5 0.610861 0.791738<-167.626 123.258>
LayerCount: 2
Back
Refer: 86 184 S 1 0 0 1 215 -26 2
Refer: 11 67 N 1 0 0 1 0 0 2
Fore
SplineSet
1150 354 m 1,0,-1
 1262 294 l 1,1,-1
 1253 276 l 2,2,3
 1244 258 1244 258 1223 230 c 128,-1,4
 1202 202 1202 202 1172.5 167.5 c 128,-1,5
 1143 133 1143 133 1097.5 98.5 c 128,-1,6
 1052 64 1052 64 998.5 36 c 128,-1,7
 945 8 945 8 871.5 -10 c 128,-1,8
 798 -28 798 -28 718 -28 c 0,9,10
 680 -28 680 -28 644 -23 c 1,11,-1
 635 -80 l 1,12,-1
 647 -86 l 2,13,14
 659 -92 659 -92 676 -105 c 128,-1,15
 693 -118 693 -118 710 -135 c 128,-1,16
 727 -152 727 -152 739 -177 c 128,-1,17
 751 -202 751 -202 751 -228 c 0,18,19
 751 -259 751 -259 735.5 -286.5 c 128,-1,20
 720 -314 720 -314 701 -330 c 128,-1,21
 682 -346 682 -346 657 -359 c 128,-1,22
 632 -372 632 -372 622 -375 c 2,23,-1
 607 -380 l 1,24,-1
 585 -348 l 1,25,-1
 604 -341 l 2,26,27
 623 -334 623 -334 642 -310 c 0,28,29
 661 -287 661 -287 661 -254 c 0,30,31
 661 -236 661 -236 652.5 -218.5 c 128,-1,32
 644 -201 644 -201 633.5 -190 c 128,-1,33
 623 -179 623 -179 609 -169 c 128,-1,34
 595 -159 595 -159 589.5 -156.5 c 128,-1,35
 584 -154 584 -154 581 -152 c 1,36,37
 581 -150 581 -150 604 -16 c 1,38,39
 569 -9 569 -9 534 3 c 0,40,41
 444 34 444 34 364 97 c 128,-1,42
 284 160 284 160 224 248 c 0,43,44
 163 336 163 336 127.5 458 c 128,-1,45
 92 580 92 580 92 720 c 0,46,47
 92 884 92 884 146.5 1021.5 c 128,-1,48
 201 1159 201 1159 291 1247 c 128,-1,49
 381 1335 381 1335 492.5 1383.5 c 128,-1,50
 604 1432 604 1432 722 1432 c 0,51,52
 806 1432 806 1432 883 1416.5 c 128,-1,53
 960 1401 960 1401 1006.5 1382.5 c 128,-1,54
 1053 1364 1053 1364 1093.5 1339.5 c 128,-1,55
 1134 1315 1134 1315 1145 1305.5 c 128,-1,56
 1156 1296 1156 1296 1162 1290 c 1,57,-1
 1192 1044 l 1,58,-1
 1134 1044 l 1,59,60
 1121 1107 1121 1107 1089 1164.5 c 128,-1,61
 1057 1222 1057 1222 1007 1271 c 0,62,63
 963 1314 963 1314 882 1350 c 0,64,65
 812 1381 812 1381 718 1381 c 0,66,67
 622 1381 622 1381 536 1341 c 128,-1,68
 450 1301 450 1301 376 1224.5 c 128,-1,69
 302 1148 302 1148 262 1028 c 0,70,71
 222 907 222 907 222 762 c 0,72,73
 222 476 222 476 366 289 c 0,74,75
 511 102 511 102 736 102 c 0,76,77
 793 102 793 102 847 116 c 128,-1,78
 901 130 901 130 941 152 c 128,-1,79
 981 174 981 174 1016.5 201.5 c 128,-1,80
 1052 229 1052 229 1075.5 255.5 c 128,-1,81
 1099 282 1099 282 1116.5 305 c 128,-1,82
 1134 328 1134 328 1142 341 c 2,83,-1
 1150 354 l 1,0,-1
EndSplineSet
Validated: 3073
EndChar

StartChar: D
Encoding: 270 68 14
Width: 1446
VWidth: 0
Flags: W
HStem: 0 50<382.039 790.42> 1348 52<336 771.598>
VStem: 216 120<82.4999 1348> 1158 154<406.812 999.799>
LayerCount: 2
Back
SplineSet
216 1400 m 1,0,-1
 590 1400 l 2,1,2
 957 1400 957 1400 1134.5 1220 c 128,-1,3
 1312 1040 1312 1040 1312 700 c 0,4,5
 1312 363 1312 363 1130 181.5 c 128,-1,6
 948 0 948 0 632 0 c 2,7,-1
 216 0 l 1,8,-1
 216 1400 l 1,0,-1
336 1348 m 1,9,-1
 336 208 l 2,10,11
 336 113 336 113 373 81.5 c 128,-1,12
 410 50 410 50 526 50 c 2,13,-1
 606 50 l 2,14,15
 751 50 751 50 858 96 c 128,-1,16
 965 142 965 142 1030 228.5 c 128,-1,17
 1095 315 1095 315 1126.5 432.5 c 128,-1,18
 1158 550 1158 550 1158 700 c 0,19,20
 1158 817 1158 817 1141 911 c 128,-1,21
 1124 1005 1124 1005 1082 1088.5 c 128,-1,22
 1040 1172 1040 1172 972 1227.5 c 128,-1,23
 904 1283 904 1283 798 1315.5 c 128,-1,24
 692 1348 692 1348 552 1348 c 2,25,-1
 336 1348 l 1,9,-1
EndSplineSet
Fore
SplineSet
216 1400 m 1,0,-1
 590 1400 l 2,1,2
 957 1400 957 1400 1134.5 1220 c 128,-1,3
 1312 1040 1312 1040 1312 700 c 0,4,5
 1312 363 1312 363 1130 181.5 c 128,-1,6
 948 0 948 0 632 0 c 2,7,-1
 216 0 l 1,8,-1
 216 1400 l 1,0,-1
336 1348 m 1,9,-1
 336 208 l 2,10,11
 336 113 336 113 373 81.5 c 128,-1,12
 410 50 410 50 526 50 c 2,13,-1
 606 50 l 2,14,15
 751 50 751 50 858 96 c 128,-1,16
 965 142 965 142 1030 228.5 c 128,-1,17
 1095 315 1095 315 1126.5 432.5 c 128,-1,18
 1158 550 1158 550 1158 700 c 0,19,20
 1158 817 1158 817 1141 911 c 128,-1,21
 1124 1005 1124 1005 1082 1088.5 c 128,-1,22
 1040 1172 1040 1172 972 1227.5 c 128,-1,23
 904 1283 904 1283 798 1315.5 c 128,-1,24
 692 1348 692 1348 552 1348 c 2,25,-1
 336 1348 l 1,9,-1
EndSplineSet
Validated: 19457
EndChar

StartChar: E
Encoding: 271 69 15
Width: 1304
VWidth: 0
Flags: W
HStem: 0 120<318 1152> 658 104<318 998> 1350 50<318 959.407>
VStem: 196 122<120 658 762 1350>
LayerCount: 2
Back
SplineSet
196 1400 m 1,0,-1
 1090 1400 l 1,1,-1
 1138 1148 l 1,2,-1
 1090 1148 l 1,3,4
 1072 1203 1072 1203 1053.5 1237 c 128,-1,5
 1035 1271 1035 1271 1002.5 1298.5 c 128,-1,6
 970 1326 970 1326 921 1338 c 128,-1,7
 872 1350 872 1350 800 1350 c 2,8,-1
 318 1350 l 1,9,-1
 318 762 l 1,10,-1
 998 762 l 1,11,-1
 998 658 l 1,12,-1
 318 658 l 1,13,-1
 318 120 l 1,14,-1
 1152 120 l 1,15,-1
 1152 0 l 1,16,-1
 196 0 l 1,17,-1
 196 1400 l 1,0,-1
EndSplineSet
Fore
SplineSet
196 1400 m 1,0,-1
 1090 1400 l 1,1,-1
 1138 1148 l 1,2,-1
 1090 1148 l 1,3,4
 1072 1203 1072 1203 1053.5 1237 c 128,-1,5
 1035 1271 1035 1271 1002.5 1298.5 c 128,-1,6
 970 1326 970 1326 921 1338 c 128,-1,7
 872 1350 872 1350 800 1350 c 2,8,-1
 318 1350 l 1,9,-1
 318 762 l 1,10,-1
 998 762 l 1,11,-1
 998 658 l 1,12,-1
 318 658 l 1,13,-1
 318 120 l 1,14,-1
 1152 120 l 1,15,-1
 1152 0 l 1,16,-1
 196 0 l 1,17,-1
 196 1400 l 1,0,-1
EndSplineSet
Validated: 19457
EndChar

StartChar: Eth
Encoding: 276 208 20
Width: 1446
VWidth: 0
Flags: W
HStem: 0 50<382.039 790.42> 658 104<2 216 336 682> 1348 52<336 764.906>
VStem: 216 120<82.4999 658 762 1348> 1158 154<406.812 1003.5>
LayerCount: 2
Back
SplineSet
2 658 m 1,0,-1
 2 762 l 1,1,-1
 216 762 l 1,2,-1
 216 1400 l 1,3,-1
 590 1400 l 2,4,5
 965 1400 965 1400 1138.5 1221 c 128,-1,6
 1312 1042 1312 1042 1312 700 c 0,7,8
 1312 363 1312 363 1130 181.5 c 128,-1,9
 948 0 948 0 632 0 c 2,10,-1
 216 0 l 1,11,-1
 216 658 l 1,12,-1
 2 658 l 1,0,-1
336 1348 m 1,13,-1
 336 762 l 1,14,-1
 682 762 l 1,15,-1
 682 658 l 1,16,-1
 336 658 l 1,17,-1
 336 208 l 2,18,19
 336 113 336 113 373 81.5 c 128,-1,20
 410 50 410 50 526 50 c 2,21,-1
 606 50 l 2,22,23
 751 50 751 50 858 96 c 128,-1,24
 965 142 965 142 1030 228.5 c 128,-1,25
 1095 315 1095 315 1126.5 432.5 c 128,-1,26
 1158 550 1158 550 1158 700 c 0,27,28
 1158 818 1158 818 1140 913.5 c 128,-1,29
 1122 1009 1122 1009 1078.5 1091.5 c 128,-1,30
 1035 1174 1035 1174 966.5 1229.5 c 128,-1,31
 898 1285 898 1285 793 1316.5 c 128,-1,32
 688 1348 688 1348 552 1348 c 2,33,-1
 336 1348 l 1,13,-1
EndSplineSet
Fore
SplineSet
2 658 m 1,0,-1
 2 762 l 1,1,-1
 216 762 l 1,2,-1
 216 1400 l 1,3,-1
 590 1400 l 2,4,5
 965 1400 965 1400 1138.5 1221 c 128,-1,6
 1312 1042 1312 1042 1312 700 c 0,7,8
 1312 363 1312 363 1130 181.5 c 128,-1,9
 948 0 948 0 632 0 c 2,10,-1
 216 0 l 1,11,-1
 216 658 l 1,12,-1
 2 658 l 1,0,-1
336 1348 m 1,13,-1
 336 762 l 1,14,-1
 682 762 l 1,15,-1
 682 658 l 1,16,-1
 336 658 l 1,17,-1
 336 208 l 2,18,19
 336 113 336 113 373 81.5 c 128,-1,20
 410 50 410 50 526 50 c 2,21,-1
 606 50 l 2,22,23
 751 50 751 50 858 96 c 128,-1,24
 965 142 965 142 1030 228.5 c 128,-1,25
 1095 315 1095 315 1126.5 432.5 c 128,-1,26
 1158 550 1158 550 1158 700 c 0,27,28
 1158 818 1158 818 1140 913.5 c 128,-1,29
 1122 1009 1122 1009 1078.5 1091.5 c 128,-1,30
 1035 1174 1035 1174 966.5 1229.5 c 128,-1,31
 898 1285 898 1285 793 1316.5 c 128,-1,32
 688 1348 688 1348 552 1348 c 2,33,-1
 336 1348 l 1,13,-1
EndSplineSet
Validated: 19457
EndChar

StartChar: F
Encoding: 277 70 21
Width: 1180
VWidth: 0
Flags: W
HStem: 0 21G<196 316> 660 102<316 870> 1350 50<316 921.407>
VStem: 196 120<0 660 762 1350>
LayerCount: 2
Back
SplineSet
196 1400 m 1,0,-1
 1050 1400 l 1,1,-1
 1100 1148 l 1,2,-1
 1052 1148 l 1,3,4
 1034 1203 1034 1203 1015.5 1237 c 128,-1,5
 997 1271 997 1271 964.5 1298.5 c 128,-1,6
 932 1326 932 1326 883 1338 c 128,-1,7
 834 1350 834 1350 762 1350 c 2,8,9
 316 1350 l 1,10,-1
 316 762 l 1,11,-1
 870 762 l 1,12,-1
 870 660 l 1,13,-1
 316 660 l 1,14,-1
 316 0 l 1,15,-1
 196 0 l 1,16,-1
 196 1400 l 1,0,-1
EndSplineSet
Fore
SplineSet
196 1400 m 1,0,-1
 1050 1400 l 1,1,-1
 1100 1148 l 1,2,-1
 1052 1148 l 1,3,4
 1034 1203 1034 1203 1015.5 1237 c 128,-1,5
 997 1271 997 1271 964.5 1298.5 c 128,-1,6
 932 1326 932 1326 883 1338 c 128,-1,7
 834 1350 834 1350 762 1350 c 2,8,9
 316 1350 l 1,10,-1
 316 762 l 1,11,-1
 870 762 l 1,12,-1
 870 660 l 1,13,-1
 316 660 l 1,14,-1
 316 0 l 1,15,-1
 196 0 l 1,16,-1
 196 1400 l 1,0,-1
EndSplineSet
Validated: 19457
EndChar

StartChar: G
Encoding: 278 71 22
Width: 1420
VWidth: 0
Flags: W
HStem: -16 130<537.846 936.86> 0 21G<1139.28 1240> 576 104<688 1120> 1382 50<580.091 865.923>
VStem: 100 130<475.228 990.086> 1120 120<279.231 576> 1140 58<1044 1127.72> 1142 98<0 105.565>
LayerCount: 2
Back
SplineSet
688 576 m 1,0,-1
 688 680 l 1,1,-1
 1240 680 l 1,2,-1
 1240 0 l 1,3,-1
 1142 0 l 1,4,-1
 1120 162 l 1,5,6
 1053 88 1053 88 952 36 c 128,-1,7
 851 -16 851 -16 716 -16 c 0,8,9
 622 -16 622 -16 533 13 c 128,-1,10
 444 42 444 42 365.5 102.5 c 128,-1,11
 287 163 287 163 228 248 c 128,-1,12
 169 333 169 333 134.5 453.5 c 128,-1,13
 100 574 100 574 100 714 c 0,14,15
 100 878 100 878 154 1016.5 c 128,-1,16
 208 1155 208 1155 296.5 1244 c 128,-1,17
 385 1333 385 1333 494 1382.5 c 128,-1,18
 603 1432 603 1432 716 1432 c 0,19,20
 802 1432 802 1432 880.5 1416.5 c 128,-1,21
 959 1401 959 1401 1007 1382.5 c 128,-1,22
 1055 1364 1055 1364 1097 1339.5 c 128,-1,23
 1139 1315 1139 1315 1150.5 1305.5 c 128,-1,24
 1162 1296 1162 1296 1168 1290 c 1,25,-1
 1198 1044 l 1,26,-1
 1140 1044 l 1,27,28
 1128 1101 1128 1101 1096.5 1157.5 c 128,-1,29
 1065 1214 1065 1214 1015.5 1265 c 128,-1,30
 966 1316 966 1316 892 1348.5 c 128,-1,31
 818 1381 818 1381 732 1382 c 0,32,33
 632 1384 632 1384 542 1342.5 c 128,-1,34
 452 1301 452 1301 382 1224 c 128,-1,35
 312 1147 312 1147 271 1027.5 c 128,-1,36
 230 908 230 908 230 762 c 0,37,38
 230 472 230 472 372.5 293 c 128,-1,39
 515 114 515 114 746 114 c 0,40,41
 832 114 832 114 905 143 c 128,-1,42
 978 172 978 172 1023.5 216.5 c 128,-1,43
 1069 261 1069 261 1094.5 312 c 128,-1,44
 1120 363 1120 363 1120 410 c 2,45,-1
 1120 576 l 1,46,-1
 688 576 l 1,0,-1
EndSplineSet
Fore
SplineSet
688 576 m 1,0,-1
 688 680 l 1,1,-1
 1240 680 l 1,2,-1
 1240 0 l 1,3,-1
 1142 0 l 1,4,-1
 1120 162 l 1,5,6
 1053 88 1053 88 952 36 c 128,-1,7
 851 -16 851 -16 716 -16 c 0,8,9
 622 -16 622 -16 533 13 c 128,-1,10
 444 42 444 42 365.5 102.5 c 128,-1,11
 287 163 287 163 228 248 c 128,-1,12
 169 333 169 333 134.5 453.5 c 128,-1,13
 100 574 100 574 100 714 c 0,14,15
 100 878 100 878 154 1016.5 c 128,-1,16
 208 1155 208 1155 296.5 1244 c 128,-1,17
 385 1333 385 1333 494 1382.5 c 128,-1,18
 603 1432 603 1432 716 1432 c 0,19,20
 802 1432 802 1432 880.5 1416.5 c 128,-1,21
 959 1401 959 1401 1007 1382.5 c 128,-1,22
 1055 1364 1055 1364 1097 1339.5 c 128,-1,23
 1139 1315 1139 1315 1150.5 1305.5 c 128,-1,24
 1162 1296 1162 1296 1168 1290 c 1,25,-1
 1198 1044 l 1,26,-1
 1140 1044 l 1,27,28
 1128 1101 1128 1101 1096 1158 c 0,29,30
 1068 1208 1068 1208 1021 1260 c 128,-1,31
 974 1312 974 1312 892 1347 c 128,-1,32
 810 1382 810 1382 718 1382 c 24,33,34
 627 1382 627 1382 539 1340 c 0,35,36
 449 1297 449 1297 382 1223 c 0,37,38
 312 1145 312 1145 271 1028 c 0,39,40
 230 908 230 908 230 762 c 0,41,42
 230 472 230 472 372.5 293 c 128,-1,43
 515 114 515 114 746 114 c 0,44,45
 832 114 832 114 905 143 c 128,-1,46
 978 172 978 172 1023.5 216.5 c 128,-1,47
 1069 261 1069 261 1094.5 312 c 128,-1,48
 1120 363 1120 363 1120 410 c 2,49,-1
 1120 576 l 1,50,-1
 688 576 l 1,0,-1
EndSplineSet
Validated: 3073
EndChar

StartChar: H
Encoding: 279 72 23
Width: 1564
VWidth: 0
Flags: W
HStem: 0 21G<220 356 1212 1346> 680 50<356 1212> 1380 20G<220 356 1212 1346>
VStem: 220 136<0 680 730 1400> 1212 134<0 680 730 1400>
LayerCount: 2
Back
SplineSet
1212 1400 m 1,0,-1
 1346 1400 l 1,1,-1
 1346 0 l 1,2,-1
 1212 0 l 1,3,-1
 1212 680 l 1,4,-1
 356 680 l 1,5,-1
 356 0 l 1,6,-1
 220 0 l 1,7,-1
 220 1400 l 1,8,-1
 356 1400 l 1,9,-1
 356 730 l 1,10,-1
 1212 730 l 1,11,-1
 1212 1400 l 1,0,-1
EndSplineSet
Fore
SplineSet
1212 1400 m 1,0,-1
 1346 1400 l 1,1,-1
 1346 0 l 1,2,-1
 1212 0 l 1,3,-1
 1212 680 l 1,4,-1
 356 680 l 1,5,-1
 356 0 l 1,6,-1
 220 0 l 1,7,-1
 220 1400 l 1,8,-1
 356 1400 l 1,9,-1
 356 730 l 1,10,-1
 1212 730 l 1,11,-1
 1212 1400 l 1,0,-1
EndSplineSet
Validated: 19457
EndChar

StartChar: I
Encoding: 280 73 24
Width: 594
VWidth: 0
Flags: W
HStem: 0 21G<230 360> 1380 20G<230 360>
VStem: 230 130<0 1400>
LayerCount: 2
Back
SplineSet
230 1400 m 1,0,-1
 360 1400 l 1,1,-1
 360 0 l 1,2,-1
 230 0 l 1,3,-1
 230 1400 l 1,0,-1
EndSplineSet
Fore
SplineSet
230 1400 m 1,0,-1
 360 1400 l 1,1,-1
 360 0 l 1,2,-1
 230 0 l 1,3,-1
 230 1400 l 1,0,-1
EndSplineSet
Validated: 19457
EndChar

StartChar: J
Encoding: 285 74 29
Width: 610
VWidth: 0
Flags: W
HStem: -404 46<86 166.187> 1380 20G<246 374>
VStem: 246 128<-219.201 1400>
LayerCount: 2
Back
SplineSet
374 1400 m 1,0,-1
 374 140 l 2,1,2
 374 -143 374 -143 307.5 -273.5 c 128,-1,3
 241 -404 241 -404 86 -404 c 1,4,-1
 86 -358 l 1,5,6
 182 -358 182 -358 214 -273.5 c 128,-1,7
 246 -189 246 -189 246 46 c 2,8,-1
 246 1400 l 1,9,-1
 374 1400 l 1,0,-1
EndSplineSet
Fore
SplineSet
374 1400 m 1,0,-1
 374 140 l 2,1,2
 374 -143 374 -143 307.5 -273.5 c 128,-1,3
 241 -404 241 -404 86 -404 c 1,4,-1
 86 -358 l 1,5,6
 182 -358 182 -358 214 -273.5 c 128,-1,7
 246 -189 246 -189 246 46 c 2,8,-1
 246 1400 l 1,9,-1
 374 1400 l 1,0,-1
EndSplineSet
Validated: 19457
EndChar

StartChar: K
Encoding: 286 75 30
Width: 1304
VWidth: 0
Flags: MW
HStem: 0 21G<212 338 1117.09 1316> 1342 58<1032.67 1214>
VStem: 212 126<0 570 652 1400>
DStem2: 338 652 338 570 0.664983 0.746858<0 180.919 328.242 961.929> 598 860 500 750 0.640886 -0.767636<21.633 1003.68>
LayerCount: 2
Back
SplineSet
212 1400 m 1,0,-1
 338 1400 l 1,1,-1
 338 652 l 1,2,-1
 1004 1400 l 1,3,-1
 1214 1400 l 1,4,-1
 1214 1342 l 1,5,6
 1106 1342 1106 1342 1049 1321 c 128,-1,7
 992 1300 992 1300 920 1220 c 2,8,-1
 598 860 l 1,9,-1
 1316 0 l 1,10,-1
 1134 0 l 1,11,-1
 500 750 l 1,12,-1
 338 570 l 1,13,-1
 338 0 l 1,14,-1
 212 0 l 1,15,-1
 212 1400 l 1,0,-1
EndSplineSet
Fore
SplineSet
212 1400 m 1,0,-1
 338 1400 l 1,1,-1
 338 652 l 1,2,-1
 1004 1400 l 1,3,-1
 1214 1400 l 1,4,-1
 1214 1342 l 1,5,6
 1106 1342 1106 1342 1049 1321 c 128,-1,7
 992 1300 992 1300 920 1220 c 2,8,-1
 598 860 l 5,9,-1
 1316 0 l 5,10,-1
 1134 0 l 5,11,-1
 500 750 l 5,12,-1
 338 570 l 1,13,-1
 338 0 l 1,14,-1
 212 0 l 1,15,-1
 212 1400 l 1,0,-1
EndSplineSet
Validated: 19457
EndChar

StartChar: L
Encoding: 287 76 31
Width: 1094
VWidth: 0
Flags: W
HStem: 0 50<342 872.841> 1380 20G<220 342>
VStem: 220 122<50 1400>
LayerCount: 2
Back
SplineSet
220 0 m 1,0,-1
 220 1400 l 1,1,-1
 342 1400 l 1,2,-1
 342 50 l 1,3,-1
 732 50 l 2,4,5
 792 50 792 50 840.5 64 c 128,-1,6
 889 78 889 78 918 97.5 c 128,-1,7
 947 117 947 117 970.5 146.5 c 128,-1,8
 994 176 994 176 1004 197 c 128,-1,9
 1014 218 1014 218 1024 246 c 1,10,-1
 1086 246 l 1,11,-1
 1006 0 l 1,12,-1
 220 0 l 1,0,-1
EndSplineSet
Fore
SplineSet
220 0 m 1,0,-1
 220 1400 l 1,1,-1
 342 1400 l 1,2,-1
 342 50 l 1,3,-1
 732 50 l 2,4,5
 792 50 792 50 840.5 64 c 128,-1,6
 889 78 889 78 918 97.5 c 128,-1,7
 947 117 947 117 970.5 146.5 c 128,-1,8
 994 176 994 176 1004 197 c 128,-1,9
 1014 218 1014 218 1024 246 c 1,10,-1
 1086 246 l 1,11,-1
 1006 0 l 1,12,-1
 220 0 l 1,0,-1
EndSplineSet
Validated: 19457
EndChar

StartChar: M
Encoding: 288 77 32
Width: 1846
VWidth: 0
Flags: MW
HStem: 0 21G<174 230.256 880.195 943.273 1545.68 1696> 1350 50<202 292.521>
DStem2: 174 0 228 0 0.112094 0.993698<6.05307 1326.1> 494 1400 376 1312 0.363542 -0.931578<39.0808 1269.08> 956 218 936 0 0.336336 0.941742<0 1145.7> 1536 1400 1400 1276 0.113547 -0.993533<107.756 1392.31>
LayerCount: 2
Back
SplineSet
174 0 m 1,0,-1
 302 1142 l 2,1,2
 313.151 1243.29 313.151 1243.29 312.961 1278.47 c 0,3,4
 312.673 1331.76 312.673 1331.76 286.791 1342.84 c 0,5,6
 272.907 1348.78 272.907 1348.78 202 1350 c 1,7,-1
 202 1400 l 1,8,-1
 494 1400 l 1,9,-1
 956 218 l 1,10,-1
 1388 1400 l 1,11,-1
 1536 1400 l 1,12,-1
 1696 0 l 1,13,-1
 1548 0 l 1,14,-1
 1400 1276 l 1,15,-1
 936 0 l 1,16,-1
 888 0 l 1,17,-1
 376 1312 l 1,18,-1
 228 0 l 1,19,-1
 174 0 l 1,0,-1
EndSplineSet
Fore
SplineSet
174 0 m 1,0,-1
 302 1142 l 2,1,2
 312 1233 312 1233 313 1280 c 0,3,4
 314 1324 314 1324 293 1339 c 0,5,6
 278 1350 278 1350 221 1350 c 0,7,8
 213 1350 213 1350 202 1350 c 1,9,-1
 202 1400 l 1,10,-1
 494 1400 l 1,11,-1
 956 218 l 1,12,-1
 1388 1400 l 1,13,-1
 1536 1400 l 5,14,-1
 1696 0 l 5,15,-1
 1548 0 l 5,16,-1
 1400 1276 l 5,17,-1
 936 0 l 1,18,-1
 888 0 l 1,19,-1
 376 1312 l 1,20,-1
 228 0 l 1,21,-1
 174 0 l 1,0,-1
EndSplineSet
Validated: 3073
EndChar

StartChar: N
Encoding: 289 78 33
Width: 1548
VWidth: 0
Flags: MW
HStem: 0 21G<226 280 1191.95 1332> 1348 52<110 218.339>
VStem: 226 54<0 1317.94> 1208 124<238 1400>
DStem2: 392 1400 280 1318 0.574878 -0.818239<2.70926 1419.89>
LayerCount: 2
Back
SplineSet
110 1400 m 1,0,-1
 392 1400 l 1,1,-1
 1208 238 l 1,2,-1
 1208 1400 l 1,3,-1
 1332 1400 l 1,4,-1
 1332 0 l 1,5,-1
 1206 0 l 1,6,-1
 280 1318 l 1,7,-1
 280 -2 l 1,8,-1
 226 0 l 1,9,-1
 226 1222 l 2,10,11
 226 1234 226 1234 226.5 1252 c 128,-1,12
 227 1270 227 1270 227 1278 c 128,-1,13
 227 1286 227 1286 226 1298.5 c 128,-1,14
 225 1311 225 1311 222.5 1315.5 c 128,-1,15
 220 1320 220 1320 214.5 1327.5 c 128,-1,16
 209 1335 209 1335 200.5 1337 c 128,-1,17
 192 1339 192 1339 179.5 1342.5 c 128,-1,18
 167 1346 167 1346 150 1347 c 128,-1,19
 133 1348 133 1348 110 1348 c 1,20,-1
 110 1400 l 1,0,-1
EndSplineSet
Fore
SplineSet
110 1400 m 1,0,-1
 392 1400 l 5,1,-1
 1208 238 l 5,2,-1
 1208 1400 l 1,3,-1
 1332 1400 l 1,4,-1
 1332 0 l 1,5,-1
 1206 0 l 5,6,-1
 280 1318 l 5,7,-1
 280 -2 l 1,8,-1
 226 0 l 1,9,-1
 226 1222 l 2,10,11
 226 1234 226 1234 226.5 1252 c 128,-1,12
 227 1270 227 1270 227 1278 c 128,-1,13
 227 1286 227 1286 226 1298.5 c 128,-1,14
 225 1311 225 1311 222.5 1315.5 c 128,-1,15
 220 1320 220 1320 214.5 1327.5 c 128,-1,16
 209 1335 209 1335 200.5 1337 c 128,-1,17
 192 1339 192 1339 179.5 1342.5 c 128,-1,18
 167 1346 167 1346 150 1347 c 128,-1,19
 133 1348 133 1348 110 1348 c 1,20,-1
 110 1400 l 1,0,-1
EndSplineSet
Validated: 19457
EndChar

StartChar: O
Encoding: 291 79 35
Width: 1500
VWidth: 0
Flags: W
HStem: -38 48<589.93 916.367> 1310 130<558.686 942.799>
VStem: 104 130<420.015 936.124> 1266 130<420.063 933.166>
LayerCount: 2
Back
SplineSet
748 1440 m 0,0,1
 875 1440 875 1440 991 1391.5 c 128,-1,2
 1107 1343 1107 1343 1197.5 1254.5 c 128,-1,3
 1288 1166 1288 1166 1342 1029 c 128,-1,4
 1396 892 1396 892 1396 728 c 0,5,6
 1396 578 1396 578 1361 451.5 c 128,-1,7
 1326 325 1326 325 1265.5 236 c 128,-1,8
 1205 147 1205 147 1123.5 84.5 c 128,-1,9
 1042 22 1042 22 948.5 -8 c 128,-1,10
 855 -38 855 -38 754 -38 c 0,11,12
 624 -38 624 -38 508.5 10 c 128,-1,13
 393 58 393 58 302 150.5 c 128,-1,14
 211 243 211 243 157.5 392.5 c 128,-1,15
 104 542 104 542 104 730 c 0,16,17
 104 893 104 893 158 1029.5 c 128,-1,18
 212 1166 212 1166 302 1254.5 c 128,-1,19
 392 1343 392 1343 507.5 1391.5 c 128,-1,20
 623 1440 623 1440 748 1440 c 0,0,1
752 1310 m 0,21,22
 647 1310 647 1310 553 1263.5 c 128,-1,23
 459 1217 459 1217 388 1134 c 128,-1,24
 317 1051 317 1051 275.5 927.5 c 128,-1,25
 234 804 234 804 234 658 c 0,26,27
 234 504 234 504 269.5 385 c 128,-1,28
 305 266 305 266 358.5 197 c 128,-1,29
 412 128 412 128 484.5 84 c 128,-1,30
 557 40 557 40 620.5 25 c 128,-1,31
 684 10 684 10 750 10 c 0,32,33
 798 10 798 10 843 16.5 c 128,-1,34
 888 23 888 23 941 42 c 128,-1,35
 994 61 994 61 1039 91 c 128,-1,36
 1084 121 1084 121 1127 171.5 c 128,-1,37
 1170 222 1170 222 1200 288 c 128,-1,38
 1230 354 1230 354 1248 448.5 c 128,-1,39
 1266 543 1266 543 1266 658 c 0,40,41
 1266 803 1266 803 1224 927 c 128,-1,42
 1182 1051 1182 1051 1111.5 1134 c 128,-1,43
 1041 1217 1041 1217 948 1263.5 c 128,-1,44
 855 1310 855 1310 752 1310 c 0,21,22
EndSplineSet
Fore
SplineSet
748 1440 m 0,0,1
 875 1440 875 1440 991 1391.5 c 128,-1,2
 1107 1343 1107 1343 1197.5 1254.5 c 128,-1,3
 1288 1166 1288 1166 1342 1029 c 128,-1,4
 1396 892 1396 892 1396 728 c 0,5,6
 1396 578 1396 578 1361 451.5 c 128,-1,7
 1326 325 1326 325 1265.5 236 c 128,-1,8
 1205 147 1205 147 1123.5 84.5 c 128,-1,9
 1042 22 1042 22 948.5 -8 c 128,-1,10
 855 -38 855 -38 754 -38 c 0,11,12
 624 -38 624 -38 508.5 10 c 128,-1,13
 393 58 393 58 302 150.5 c 128,-1,14
 211 243 211 243 157.5 392.5 c 128,-1,15
 104 542 104 542 104 730 c 0,16,17
 104 893 104 893 158 1029.5 c 128,-1,18
 212 1166 212 1166 302 1254.5 c 128,-1,19
 392 1343 392 1343 507.5 1391.5 c 128,-1,20
 623 1440 623 1440 748 1440 c 0,0,1
752 1310 m 0,21,22
 647 1310 647 1310 553 1263.5 c 128,-1,23
 459 1217 459 1217 388 1134 c 128,-1,24
 317 1051 317 1051 275.5 927.5 c 128,-1,25
 234 804 234 804 234 658 c 0,26,27
 234 504 234 504 269.5 385 c 128,-1,28
 305 266 305 266 358.5 197 c 128,-1,29
 412 128 412 128 484.5 84 c 128,-1,30
 557 40 557 40 620.5 25 c 128,-1,31
 684 10 684 10 750 10 c 0,32,33
 798 10 798 10 843 16.5 c 128,-1,34
 888 23 888 23 941 42 c 128,-1,35
 994 61 994 61 1039 91 c 128,-1,36
 1084 121 1084 121 1127 171.5 c 128,-1,37
 1170 222 1170 222 1200 288 c 128,-1,38
 1230 354 1230 354 1248 448.5 c 128,-1,39
 1266 543 1266 543 1266 658 c 0,40,41
 1266 803 1266 803 1224 927 c 128,-1,42
 1182 1051 1182 1051 1111.5 1134 c 128,-1,43
 1041 1217 1041 1217 948 1263.5 c 128,-1,44
 855 1310 855 1310 752 1310 c 0,21,22
EndSplineSet
Validated: 19457
EndChar

StartChar: Oslash
Encoding: 296 216 40
Width: 1500
VWidth: 0
Flags: MW
HStem: -38 48<589.844 916.367> 1310 130<558.686 944.116>
VStem: 104 130<419.532 936.124> 1266 130<420.063 933.136>
DStem2: 322 -152 468 -152 0.423845 0.905735<61.8813 233.4 290.341 1514.92 1681.64 1826.14>
LayerCount: 2
Back
SplineSet
1096 1502 m 1,0,-1
 1242 1502 l 1,1,-1
 1147.07 1299.14 l 1,2,3
 1173.2 1278.26 1173.2 1278.26 1197.5 1254.5 c 0,4,5
 1288 1166 1288 1166 1342 1029 c 128,-1,6
 1396 892 1396 892 1396 728 c 0,7,8
 1396 578 1396 578 1361 451.5 c 128,-1,9
 1326 325 1326 325 1265.5 236 c 128,-1,10
 1205 147 1205 147 1123.5 84.5 c 128,-1,11
 1042 22 1042 22 948.5 -8 c 128,-1,12
 855 -38 855 -38 754 -38 c 0,13,14
 640.697 -38 640.697 -38 538.409 -1.53859 c 1,15,-1
 468 -152 l 1,16,-1
 322 -152 l 1,17,-1
 419.316 55.959 l 1,18,19
 356.297 95.3083 356.297 95.3083 302 150.5 c 0,20,21
 211 243 211 243 157.5 392.5 c 128,-1,22
 104 542 104 542 104 730 c 0,23,24
 104 893 104 893 158 1029.5 c 128,-1,25
 212 1166 212 1166 302 1254.5 c 128,-1,26
 392 1343 392 1343 507.5 1391.5 c 128,-1,27
 623 1440 623 1440 748 1440 c 0,28,29
 875 1440 875 1440 991 1391.5 c 0,30,31
 1013.39 1382.14 1013.39 1382.14 1034.83 1371.29 c 1,32,-1
 1096 1502 l 1,0,-1
752 1310 m 0,33,34
 647 1310 647 1310 553 1263.5 c 128,-1,35
 459 1217 459 1217 388 1134 c 128,-1,36
 317 1051 317 1051 275.5 927.5 c 128,-1,37
 234 804 234 804 234 658 c 0,38,39
 234 504 234 504 269.5 385 c 128,-1,40
 305 266 305 266 358.5 197 c 0,41,42
 396.872 147.511 396.872 147.511 445.018 110.883 c 1,43,-1
 977.033 1247.77 l 1,44,45
 962.802 1256.1 962.802 1256.1 948 1263.5 c 0,46,47
 855 1310 855 1310 752 1310 c 0,33,34
1083.92 1164.2 m 1,48,-1
 560.161 44.9427 l 1,49,50
 591.283 31.9017 591.283 31.9017 620.5 25 c 0,51,52
 684 10 684 10 750 10 c 0,53,54
 798 10 798 10 843 16.5 c 128,-1,55
 888 23 888 23 941 42 c 128,-1,56
 994 61 994 61 1039 91 c 128,-1,57
 1084 121 1084 121 1127 171.5 c 128,-1,58
 1170 222 1170 222 1200 288 c 128,-1,59
 1230 354 1230 354 1248 448.5 c 128,-1,60
 1266 543 1266 543 1266 658 c 0,61,62
 1266 803 1266 803 1224 927 c 128,-1,63
 1182 1051 1182 1051 1111.5 1134 c 0,64,65
 1098.12 1149.76 1098.12 1149.76 1083.92 1164.2 c 1,48,-1
EndSplineSet
Fore
SplineSet
1096 1502 m 5,0,-1
 1242 1502 l 5,1,-1
 1147 1299 l 1,2,3
 1173 1278 1173 1278 1198 1254 c 0,4,5
 1287 1169 1287 1169 1342 1029 c 0,6,7
 1396 892 1396 892 1396 728 c 0,8,9
 1396 578 1396 578 1361 451.5 c 128,-1,10
 1326 325 1326 325 1265.5 236 c 128,-1,11
 1205 147 1205 147 1123.5 84.5 c 128,-1,12
 1042 22 1042 22 948.5 -8 c 128,-1,13
 855 -38 855 -38 754 -38 c 0,14,15
 641 -38 641 -38 538 -2 c 1,16,-1
 468 -152 l 5,17,-1
 322 -152 l 5,18,-1
 419 56 l 1,19,20
 354 96 354 96 302 150 c 0,21,22
 210 245 210 245 158 392 c 0,23,24
 104 543 104 543 104 730 c 0,25,26
 104 893 104 893 158 1029.5 c 128,-1,27
 212 1166 212 1166 302 1254.5 c 128,-1,28
 392 1343 392 1343 507.5 1391.5 c 128,-1,29
 623 1440 623 1440 748 1440 c 0,30,31
 885 1440 885 1440 991 1392 c 0,32,33
 1013 1382 1013 1382 1035 1371 c 1,34,-1
 1096 1502 l 5,0,-1
752 1310 m 0,35,36
 647 1310 647 1310 553 1263.5 c 128,-1,37
 459 1217 459 1217 388 1134 c 128,-1,38
 317 1051 317 1051 275.5 927.5 c 128,-1,39
 234 804 234 804 234 658 c 0,40,41
 234 501 234 501 268 385 c 0,42,43
 300 274 300 274 358 196 c 0,44,45
 394 147 394 147 445 111 c 1,46,-1
 977 1248 l 1,47,48
 963 1256 963 1256 948 1264 c 0,49,50
 855 1310 855 1310 752 1310 c 0,35,36
1084 1164 m 1,51,-1
 560 45 l 1,52,53
 591 32 591 32 620 25 c 0,54,55
 684 10 684 10 750 10 c 0,56,57
 798 10 798 10 843 16.5 c 128,-1,58
 888 23 888 23 941 42 c 128,-1,59
 994 61 994 61 1039 91 c 128,-1,60
 1084 121 1084 121 1127 171.5 c 128,-1,61
 1170 222 1170 222 1200 288 c 128,-1,62
 1230 354 1230 354 1248 448.5 c 128,-1,63
 1266 543 1266 543 1266 658 c 0,64,65
 1266 804 1266 804 1224 927 c 128,-1,66
 1182 1050 1182 1050 1112 1134 c 0,67,68
 1098 1150 1098 1150 1084 1164 c 1,51,-1
EndSplineSet
Validated: 3073
EndChar

StartChar: P
Encoding: 298 80 42
Width: 1274
VWidth: 0
Flags: W
HStem: 0 21G<218 342> 582 56<444.726 814.985> 1282 118<342 874>
VStem: 218 124<0 640 698 1282> 1024 132<810.671 1146.21>
LayerCount: 2
Back
SplineSet
218 1400 m 1,0,-1
 692 1400 l 2,1,2
 815 1400 815 1400 907 1369.5 c 128,-1,3
 999 1339 999 1339 1052 1285 c 128,-1,4
 1105 1231 1105 1231 1130.5 1163.5 c 128,-1,5
 1156 1096 1156 1096 1156 1014 c 0,6,7
 1156 913 1156 913 1122 834 c 128,-1,8
 1088 755 1088 755 1037 708.5 c 128,-1,9
 986 662 986 662 918 632.5 c 128,-1,10
 850 603 850 603 790.5 592.5 c 128,-1,11
 731 582 731 582 672 582 c 0,12,13
 588 582 588 582 501.5 598 c 128,-1,14
 415 614 415 614 386.5 624 c 128,-1,15
 358 634 358 634 342 640 c 1,16,-1
 342 0 l 1,17,-1
 218 0 l 1,18,-1
 218 1400 l 1,0,-1
342 1282 m 1,19,-1
 342 698 l 1,20,-1
 384.5 683 l 2,21,22
 427 668 427 668 502.5 653 c 128,-1,23
 578 638 578 638 644 638 c 0,24,25
 720 638 720 638 785 656 c 128,-1,26
 850 674 850 674 905.5 712 c 128,-1,27
 961 750 961 750 992.5 817.5 c 128,-1,28
 1024 885 1024 885 1024 976 c 0,29,30
 1024 1282 1024 1282 640 1282 c 2,31,-1
 342 1282 l 1,19,-1
EndSplineSet
Fore
SplineSet
218 1400 m 1,0,-1
 692 1400 l 2,1,2
 815 1400 815 1400 907 1369.5 c 128,-1,3
 999 1339 999 1339 1052 1285 c 128,-1,4
 1105 1231 1105 1231 1130.5 1163.5 c 128,-1,5
 1156 1096 1156 1096 1156 1014 c 0,6,7
 1156 913 1156 913 1122 834 c 128,-1,8
 1088 755 1088 755 1037 708.5 c 128,-1,9
 986 662 986 662 918 632.5 c 128,-1,10
 850 603 850 603 790.5 592.5 c 128,-1,11
 731 582 731 582 672 582 c 0,12,13
 588 582 588 582 501.5 598 c 128,-1,14
 415 614 415 614 386.5 624 c 128,-1,15
 358 634 358 634 342 640 c 1,16,-1
 342 0 l 1,17,-1
 218 0 l 1,18,-1
 218 1400 l 1,0,-1
342 1282 m 1,19,-1
 342 698 l 1,20,-1
 384.5 683 l 2,21,22
 427 668 427 668 502.5 653 c 128,-1,23
 578 638 578 638 644 638 c 0,24,25
 720 638 720 638 785 656 c 128,-1,26
 850 674 850 674 905.5 712 c 128,-1,27
 961 750 961 750 992.5 817.5 c 128,-1,28
 1024 885 1024 885 1024 976 c 0,29,30
 1024 1282 1024 1282 640 1282 c 2,31,-1
 342 1282 l 1,19,-1
EndSplineSet
Validated: 19457
EndChar

StartChar: Q
Encoding: 299 81 43
Width: 1500
VWidth: 0
Flags: W
HStem: -446 126<1150.94 1465.8> -38 48<650.576 916.367> 1310 130<558.686 942.799>
VStem: 104 130<417.05 936.124> 1266 130<420.063 933.166>
LayerCount: 2
Back
SplineSet
748 1440 m 0,0,1
 875 1440 875 1440 991 1391.5 c 128,-1,2
 1107 1343 1107 1343 1197.5 1254.5 c 128,-1,3
 1288 1166 1288 1166 1342 1029 c 128,-1,4
 1396 892 1396 892 1396 728 c 0,5,6
 1396 578 1396 578 1361 451.5 c 128,-1,7
 1326 325 1326 325 1265.5 236 c 128,-1,8
 1205 147 1205 147 1123.5 84.5 c 128,-1,9
 1042 22 1042 22 948.5 -8 c 128,-1,10
 855 -38 855 -38 754 -38 c 0,11,12
 705 -38 705 -38 649 -30 c 1,13,14
 723 -64 723 -64 838.5 -125 c 128,-1,15
 954 -186 954 -186 1027 -223 c 128,-1,16
 1100 -260 1100 -260 1195 -290 c 128,-1,17
 1290 -320 1290 -320 1370 -320 c 0,18,19
 1409 -320 1409 -320 1446 -312.5 c 128,-1,20
 1483 -305 1483 -305 1506 -296 c 128,-1,21
 1529 -287 1529 -287 1549 -275.5 c 128,-1,22
 1569 -264 1569 -264 1575 -259.5 c 128,-1,23
 1581 -255 1581 -255 1584 -252 c 1,24,-1
 1608 -282 l 1,25,-1
 1595 -299 l 2,26,27
 1582 -316 1582 -316 1554 -340 c 128,-1,28
 1526 -364 1526 -364 1488.5 -388 c 128,-1,29
 1451 -412 1451 -412 1394.5 -429 c 128,-1,30
 1338 -446 1338 -446 1276 -446 c 0,31,32
 1218 -446 1218 -446 1156 -422 c 128,-1,33
 1094 -398 1094 -398 1034.5 -359 c 128,-1,34
 975 -320 975 -320 910.5 -272.5 c 128,-1,35
 846 -225 846 -225 772 -174.5 c 128,-1,36
 698 -124 698 -124 619.5 -80.5 c 128,-1,37
 541 -37 541 -37 440 -3.5 c 128,-1,38
 339 30 339 30 232 42 c 1,39,-1
 232 90 l 1,40,41
 323 81 323 81 417 56 c 1,42,43
 272 146 272 146 188 317 c 128,-1,44
 104 488 104 488 104 730 c 0,45,46
 104 893 104 893 158 1029.5 c 128,-1,47
 212 1166 212 1166 302 1254.5 c 128,-1,48
 392 1343 392 1343 507.5 1391.5 c 128,-1,49
 623 1440 623 1440 748 1440 c 0,0,1
752 1310 m 0,50,51
 647 1310 647 1310 553 1263.5 c 128,-1,52
 459 1217 459 1217 388 1134 c 128,-1,53
 317 1051 317 1051 275.5 927.5 c 128,-1,54
 234 804 234 804 234 658 c 0,55,56
 234 504 234 504 269.5 385 c 128,-1,57
 305 266 305 266 358.5 197 c 128,-1,58
 412 128 412 128 484.5 84 c 128,-1,59
 557 40 557 40 620.5 25 c 128,-1,60
 684 10 684 10 750 10 c 0,61,62
 798 10 798 10 843 16.5 c 128,-1,63
 888 23 888 23 941 42 c 128,-1,64
 994 61 994 61 1039 91 c 128,-1,65
 1084 121 1084 121 1127 171.5 c 128,-1,66
 1170 222 1170 222 1200 288 c 128,-1,67
 1230 354 1230 354 1248 448.5 c 128,-1,68
 1266 543 1266 543 1266 658 c 0,69,70
 1266 803 1266 803 1224 927 c 128,-1,71
 1182 1051 1182 1051 1111.5 1134 c 128,-1,72
 1041 1217 1041 1217 948 1263.5 c 128,-1,73
 855 1310 855 1310 752 1310 c 0,50,51
EndSplineSet
Fore
SplineSet
748 1440 m 0,0,1
 875 1440 875 1440 991 1391.5 c 128,-1,2
 1107 1343 1107 1343 1197.5 1254.5 c 128,-1,3
 1288 1166 1288 1166 1342 1029 c 128,-1,4
 1396 892 1396 892 1396 728 c 0,5,6
 1396 578 1396 578 1361 451.5 c 128,-1,7
 1326 325 1326 325 1265.5 236 c 128,-1,8
 1205 147 1205 147 1123.5 84.5 c 128,-1,9
 1042 22 1042 22 948.5 -8 c 128,-1,10
 855 -38 855 -38 754 -38 c 0,11,12
 705 -38 705 -38 649 -30 c 1,13,14
 723 -64 723 -64 838.5 -125 c 128,-1,15
 954 -186 954 -186 1027 -223 c 128,-1,16
 1100 -260 1100 -260 1195 -290 c 128,-1,17
 1290 -320 1290 -320 1370 -320 c 0,18,19
 1409 -320 1409 -320 1446 -312.5 c 128,-1,20
 1483 -305 1483 -305 1506 -296 c 128,-1,21
 1529 -287 1529 -287 1549 -275.5 c 128,-1,22
 1569 -264 1569 -264 1575 -259.5 c 128,-1,23
 1581 -255 1581 -255 1584 -252 c 1,24,-1
 1608 -282 l 1,25,-1
 1595 -299 l 2,26,27
 1582 -316 1582 -316 1554 -340 c 128,-1,28
 1526 -364 1526 -364 1488.5 -388 c 128,-1,29
 1451 -412 1451 -412 1394.5 -429 c 128,-1,30
 1338 -446 1338 -446 1276 -446 c 0,31,32
 1218 -446 1218 -446 1156 -422 c 128,-1,33
 1094 -398 1094 -398 1034.5 -359 c 128,-1,34
 975 -320 975 -320 910.5 -272.5 c 128,-1,35
 846 -225 846 -225 772 -174.5 c 128,-1,36
 698 -124 698 -124 619.5 -80.5 c 128,-1,37
 541 -37 541 -37 440 -3.5 c 128,-1,38
 339 30 339 30 232 42 c 1,39,-1
 232 90 l 1,40,41
 323 81 323 81 417 56 c 1,42,43
 272 146 272 146 188 317 c 128,-1,44
 104 488 104 488 104 730 c 0,45,46
 104 893 104 893 158 1029.5 c 128,-1,47
 212 1166 212 1166 302 1254.5 c 128,-1,48
 392 1343 392 1343 507.5 1391.5 c 128,-1,49
 623 1440 623 1440 748 1440 c 0,0,1
752 1310 m 0,50,51
 647 1310 647 1310 553 1263.5 c 128,-1,52
 459 1217 459 1217 388 1134 c 128,-1,53
 317 1051 317 1051 275.5 927.5 c 128,-1,54
 234 804 234 804 234 658 c 0,55,56
 234 504 234 504 269.5 385 c 128,-1,57
 305 266 305 266 358.5 197 c 128,-1,58
 412 128 412 128 484.5 84 c 128,-1,59
 557 40 557 40 620.5 25 c 128,-1,60
 684 10 684 10 750 10 c 0,61,62
 798 10 798 10 843 16.5 c 128,-1,63
 888 23 888 23 941 42 c 128,-1,64
 994 61 994 61 1039 91 c 128,-1,65
 1084 121 1084 121 1127 171.5 c 128,-1,66
 1170 222 1170 222 1200 288 c 128,-1,67
 1230 354 1230 354 1248 448.5 c 128,-1,68
 1266 543 1266 543 1266 658 c 0,69,70
 1266 803 1266 803 1224 927 c 128,-1,71
 1182 1051 1182 1051 1111.5 1134 c 128,-1,72
 1041 1217 1041 1217 948 1263.5 c 128,-1,73
 855 1310 855 1310 752 1310 c 0,50,51
EndSplineSet
Validated: 19457
EndChar

StartChar: R
Encoding: 300 82 44
Width: 1416
VWidth: 0
Flags: MW
HStem: 0 48<1341.93 1456> 622 50<340 764.332> 1278 122<340 892.334>
VStem: 218 122<0 622 672 1278> 1046 130<829.063 1144.3>
DStem2: 908 648 865 447 0.573448 -0.819242<0 696.569>
LayerCount: 2
Back
SplineSet
218 1400 m 1,0,-1
 682 1400 l 2,1,2
 815 1400 815 1400 914.5 1366.5 c 128,-1,3
 1014 1333 1014 1333 1069 1276 c 128,-1,4
 1124 1219 1124 1219 1150 1152.5 c 128,-1,5
 1176 1086 1176 1086 1176 1010 c 0,6,7
 1176 759 1176 759 908 648 c 1,8,9
 1040.76 431.711 1040.76 431.711 1092.62 351.743 c 0,10,11
 1214.38 163.975 1214.38 163.975 1288.16 104.894 c 0,12,13
 1357.85 49.0906 1357.85 49.0906 1456 48 c 1,14,-1
 1458 0 l 1,15,-1
 1324 0 l 2,16,17
 1259 0 1259 0 1206.5 21.5 c 128,-1,18
 1154 43 1154 43 1116.5 77 c 128,-1,19
 1079 111 1079 111 1036 172 c 128,-1,20
 993 233 993 233 958.5 293 c 128,-1,21
 924 353 924 353 865 447 c 128,-1,22
 806 541 806 541 748 622 c 1,23,-1
 340 622 l 1,24,-1
 340 0 l 1,25,-1
 218 0 l 1,26,-1
 218 1400 l 1,0,-1
340 1278 m 1,27,-1
 340 672 l 1,28,-1
 668 672 l 2,29,30
 733 672 733 672 786 680 c 128,-1,31
 839 688 839 688 889 709 c 128,-1,32
 939 730 939 730 972.5 764 c 128,-1,33
 1006 798 1006 798 1026 854 c 128,-1,34
 1046 910 1046 910 1046 984 c 0,35,36
 1046 1050 1046 1050 1025 1101.5 c 128,-1,37
 1004 1153 1004 1153 957 1193.5 c 128,-1,38
 910 1234 910 1234 826 1256 c 128,-1,39
 742 1278 742 1278 624 1278 c 2,40,-1
 340 1278 l 1,27,-1
EndSplineSet
Fore
SplineSet
218 1400 m 1,0,-1
 682 1400 l 2,1,2
 815 1400 815 1400 914.5 1366.5 c 128,-1,3
 1014 1333 1014 1333 1069 1276 c 128,-1,4
 1124 1219 1124 1219 1150 1152.5 c 128,-1,5
 1176 1086 1176 1086 1176 1010 c 0,6,7
 1176 759 1176 759 908 648 c 5,8,9
 1040.76 431.711 1040.76 431.711 1092.62 351.743 c 0,10,11
 1214.38 163.975 1214.38 163.975 1288.16 104.894 c 4,12,13
 1357.85 49.0906 1357.85 49.0906 1456 48 c 1,14,-1
 1458 0 l 1,15,-1
 1324 0 l 2,16,17
 1259 0 1259 0 1206.5 21.5 c 128,-1,18
 1154 43 1154 43 1116.5 77 c 132,-1,19
 1079 111 1079 111 1036 172 c 128,-1,20
 993 233 993 233 958.5 293 c 128,-1,21
 924 353 924 353 865 447 c 128,-1,22
 806 541 806 541 748 622 c 5,23,-1
 340 622 l 1,24,-1
 340 0 l 1,25,-1
 218 0 l 1,26,-1
 218 1400 l 1,0,-1
340 1278 m 1,27,-1
 340 672 l 1,28,-1
 668 672 l 2,29,30
 733 672 733 672 786 680 c 128,-1,31
 839 688 839 688 889 709 c 128,-1,32
 939 730 939 730 972.5 764 c 128,-1,33
 1006 798 1006 798 1026 854 c 128,-1,34
 1046 910 1046 910 1046 984 c 0,35,36
 1046 1050 1046 1050 1025 1101.5 c 128,-1,37
 1004 1153 1004 1153 957 1193.5 c 128,-1,38
 910 1234 910 1234 826 1256 c 128,-1,39
 742 1278 742 1278 624 1278 c 2,40,-1
 340 1278 l 1,27,-1
EndSplineSet
Validated: 19457
EndChar

StartChar: S
Encoding: 301 83 45
Width: 1172
VWidth: 0
Flags: W
HStem: -22 124<368.796 773.659> 1364 56<426.944 688.097>
VStem: 176 122<975.572 1246.91> 890 134<206.946 476.324>
LayerCount: 2
Back
SplineSet
924 1312 m 128,-1,1
 924 1310 924 1310 952 1038 c 1,2,-1
 898 1038 l 1,3,4
 857 1191 857 1191 771.5 1277.5 c 128,-1,5
 686 1364 686 1364 556 1364 c 0,6,7
 432 1364 432 1364 365 1289.5 c 128,-1,8
 298 1215 298 1215 298 1116 c 0,9,10
 298 1057 298 1057 323 1007.5 c 128,-1,11
 348 958 348 958 390 922.5 c 128,-1,12
 432 887 432 887 486.5 855 c 128,-1,13
 541 823 541 823 601 794.5 c 128,-1,14
 661 766 661 766 721 736.5 c 128,-1,15
 781 707 781 707 835.5 670 c 128,-1,16
 890 633 890 633 932 590 c 128,-1,17
 974 547 974 547 999 486 c 128,-1,18
 1024 425 1024 425 1024 352 c 0,19,20
 1024 181 1024 181 899 79.5 c 128,-1,21
 774 -22 774 -22 568 -22 c 0,22,23
 453 -22 453 -22 334 27 c 128,-1,24
 215 76 215 76 136 146 c 1,25,-1
 222 240 l 1,26,27
 380 102 380 102 590 102 c 0,28,29
 718 102 718 102 804 166.5 c 128,-1,30
 890 231 890 231 890 348 c 0,31,32
 890 415 890 415 850.5 469.5 c 128,-1,33
 811 524 811 524 748 563 c 128,-1,34
 685 602 685 602 609 638.5 c 128,-1,35
 533 675 533 675 457 715.5 c 128,-1,36
 381 756 381 756 318 803.5 c 128,-1,37
 255 851 255 851 215.5 922.5 c 128,-1,38
 176 994 176 994 176 1082 c 0,39,40
 176 1229 176 1229 287 1324.5 c 128,-1,41
 398 1420 398 1420 574 1420 c 0,42,43
 642 1420 642 1420 703.5 1409 c 128,-1,44
 765 1398 765 1398 803.5 1382.5 c 128,-1,45
 842 1367 842 1367 870.5 1350.5 c 128,-1,46
 899 1334 899 1334 911.5 1324 c 128,-1,0
 924 1314 924 1314 924 1312 c 128,-1,1
EndSplineSet
Fore
SplineSet
924 1312 m 128,-1,1
 924 1310 924 1310 952 1038 c 1,2,-1
 898 1038 l 1,3,4
 857 1191 857 1191 771.5 1277.5 c 128,-1,5
 686 1364 686 1364 556 1364 c 0,6,7
 432 1364 432 1364 365 1289.5 c 128,-1,8
 298 1215 298 1215 298 1116 c 0,9,10
 298 1057 298 1057 323 1007.5 c 128,-1,11
 348 958 348 958 390 922.5 c 128,-1,12
 432 887 432 887 486.5 855 c 128,-1,13
 541 823 541 823 601 794.5 c 128,-1,14
 661 766 661 766 721 736.5 c 128,-1,15
 781 707 781 707 835.5 670 c 128,-1,16
 890 633 890 633 932 590 c 128,-1,17
 974 547 974 547 999 486 c 128,-1,18
 1024 425 1024 425 1024 352 c 0,19,20
 1024 181 1024 181 899 79.5 c 128,-1,21
 774 -22 774 -22 568 -22 c 0,22,23
 453 -22 453 -22 334 27 c 128,-1,24
 215 76 215 76 136 146 c 1,25,-1
 222 240 l 1,26,27
 380 102 380 102 590 102 c 0,28,29
 718 102 718 102 804 166.5 c 128,-1,30
 890 231 890 231 890 348 c 0,31,32
 890 415 890 415 850.5 469.5 c 128,-1,33
 811 524 811 524 748 563 c 128,-1,34
 685 602 685 602 609 638.5 c 128,-1,35
 533 675 533 675 457 715.5 c 128,-1,36
 381 756 381 756 318 803.5 c 128,-1,37
 255 851 255 851 215.5 922.5 c 128,-1,38
 176 994 176 994 176 1082 c 0,39,40
 176 1229 176 1229 287 1324.5 c 128,-1,41
 398 1420 398 1420 574 1420 c 0,42,43
 642 1420 642 1420 703.5 1409 c 128,-1,44
 765 1398 765 1398 803.5 1382.5 c 128,-1,45
 842 1367 842 1367 870.5 1350.5 c 128,-1,46
 899 1334 899 1334 911.5 1324 c 128,-1,0
 924 1314 924 1314 924 1312 c 128,-1,1
EndSplineSet
Validated: 19457
EndChar

StartChar: T
Encoding: 302 84 46
Width: 1070
VWidth: 0
Flags: W
HStem: 0 21G<470 600> 1350 50<130.693 470 600 940.633>
VStem: -26 52<1150 1247.19> 470 130<0 1350> 1042.5 53.5<1150 1250>
LayerCount: 2
Back
SplineSet
-26 1150 m 1,0,-1
 -8 1400 l 1,1,-1
 1078 1400 l 1,2,-1
 1096 1150 l 1,3,-1
 1044 1150 l 1,4,-1
 1042.5 1170.5 l 2,5,6
 1041 1191 1041 1191 1029.5 1220.5 c 128,-1,7
 1018 1250 1018 1250 997.5 1279.5 c 128,-1,8
 977 1309 977 1309 932.5 1329.5 c 128,-1,9
 888 1350 888 1350 828 1350 c 2,10,-1
 600 1350 l 1,11,-1
 600 0 l 1,12,-1
 470 0 l 1,13,-1
 470 1350 l 1,14,-1
 242 1350 l 2,15,16
 182 1350 182 1350 137.5 1328.5 c 128,-1,17
 93 1307 93 1307 72.5 1280.5 c 128,-1,18
 52 1254 52 1254 40.5 1219.5 c 128,-1,19
 29 1185 29 1185 27.5 1171.5 c 128,-1,20
 26 1158 26 1158 26 1150 c 1,21,-1
 -26 1150 l 1,0,-1
EndSplineSet
Fore
SplineSet
-26 1150 m 1,0,-1
 -8 1400 l 1,1,-1
 1078 1400 l 1,2,-1
 1096 1150 l 1,3,-1
 1044 1150 l 1,4,-1
 1042.5 1170.5 l 2,5,6
 1041 1191 1041 1191 1029.5 1220.5 c 128,-1,7
 1018 1250 1018 1250 997.5 1279.5 c 128,-1,8
 977 1309 977 1309 932.5 1329.5 c 128,-1,9
 888 1350 888 1350 828 1350 c 2,10,-1
 600 1350 l 1,11,-1
 600 0 l 1,12,-1
 470 0 l 1,13,-1
 470 1350 l 1,14,-1
 242 1350 l 2,15,16
 182 1350 182 1350 137.5 1328.5 c 128,-1,17
 93 1307 93 1307 72.5 1280.5 c 128,-1,18
 52 1254 52 1254 40.5 1219.5 c 128,-1,19
 29 1185 29 1185 27.5 1171.5 c 128,-1,20
 26 1158 26 1158 26 1150 c 1,21,-1
 -26 1150 l 1,0,-1
EndSplineSet
Validated: 19457
EndChar

StartChar: Thorn
Encoding: 303 222 47
Width: 1046
VWidth: 0
Flags: W
HStem: 0 21G<128 258> 326 54<258 587.568> 942 112<258 640.664> 1380 20G<128 258>
VStem: 128 130<0 326 380 942 1054 1400> 784 126<512.366 817.278>
LayerCount: 2
Back
SplineSet
128 1400 m 1,0,-1
 258 1400 l 1,1,-1
 258 1054 l 1,2,-1
 432 1054 l 2,3,4
 562 1054 562 1054 657 1026.5 c 128,-1,5
 752 999 752 999 806 949.5 c 128,-1,6
 860 900 860 900 885 838.5 c 128,-1,7
 910 777 910 777 910 702 c 0,8,9
 910 509 910 509 783 417.5 c 128,-1,10
 656 326 656 326 426 326 c 2,11,-1
 258 326 l 1,12,-1
 258 0 l 1,13,-1
 128 0 l 1,14,-1
 128 1400 l 1,0,-1
398 942 m 2,15,16
 258 942 l 1,17,-1
 258 380 l 1,18,-1
 396 380 l 2,19,20
 583 380 583 380 683.5 454 c 128,-1,21
 784 528 784 528 784 662 c 0,22,23
 784 942 784 942 398 942 c 2,15,16
EndSplineSet
Fore
SplineSet
128 1400 m 1,0,-1
 258 1400 l 1,1,-1
 258 1054 l 1,2,-1
 432 1054 l 2,3,4
 562 1054 562 1054 657 1026.5 c 128,-1,5
 752 999 752 999 806 949.5 c 128,-1,6
 860 900 860 900 885 838.5 c 128,-1,7
 910 777 910 777 910 702 c 0,8,9
 910 509 910 509 783 417.5 c 128,-1,10
 656 326 656 326 426 326 c 2,11,-1
 258 326 l 1,12,-1
 258 0 l 1,13,-1
 128 0 l 1,14,-1
 128 1400 l 1,0,-1
398 942 m 2,15,16
 258 942 l 1,17,-1
 258 380 l 1,18,-1
 396 380 l 2,19,20
 583 380 583 380 683.5 454 c 128,-1,21
 784 528 784 528 784 662 c 0,22,23
 784 942 784 942 398 942 c 2,15,16
EndSplineSet
Validated: 19457
EndChar

StartChar: U
Encoding: 304 85 48
Width: 1508
VWidth: 0
Flags: W
HStem: 2 48<594.006 919.318> 1380 20G<218 358 1152 1290>
VStem: 218 140.085<330.784 1400> 1152 138<330.981 1400>
LayerCount: 2
Back
SplineSet
358 1400 m 1,0,-1
 356 724 l 2,1,2
 356 615.526 356 615.526 358.085 554.675 c 0,3,4
 366.321 314.271 366.321 314.271 429.573 204.44 c 0,5,6
 518.516 50 518.516 50 756 50 c 0,7,8
 881.669 50 881.669 50 963.309 92.1243 c 0,9,10
 1091.58 158.312 1091.58 158.312 1129.45 348.543 c 0,11,12
 1152 461.822 1152 461.822 1152 724 c 2,13,-1
 1152 1400 l 1,14,-1
 1290 1400 l 1,15,-1
 1290 708 l 2,16,17
 1290 567 1290 567 1275 461 c 128,-1,18
 1260 355 1260 355 1223.5 266 c 128,-1,19
 1187 177 1187 177 1126.5 120.5 c 128,-1,20
 1066 64 1066 64 973.5 33 c 128,-1,21
 881 2 881 2 756 2 c 0,22,23
 630 2 630 2 536.5 33 c 128,-1,24
 443 64 443 64 382.5 120.5 c 128,-1,25
 322 177 322 177 285 266 c 128,-1,26
 248 355 248 355 233 461 c 128,-1,27
 218 567 218 567 218 708 c 2,28,-1
 218 1400 l 1,29,-1
 358 1400 l 1,0,-1
EndSplineSet
Fore
SplineSet
358 1400 m 1,0,-1
 356 724 l 2,1,2
 356 615.526 356 615.526 358.085 554.675 c 0,3,4
 366.321 314.271 366.321 314.271 429.573 204.44 c 0,5,6
 518.516 50 518.516 50 756 50 c 0,7,8
 881.669 50 881.669 50 963.309 92.1243 c 0,9,10
 1091.58 158.312 1091.58 158.312 1129.45 348.543 c 0,11,12
 1152 461.822 1152 461.822 1152 724 c 2,13,-1
 1152 1400 l 1,14,-1
 1290 1400 l 1,15,-1
 1290 708 l 2,16,17
 1290 567 1290 567 1275 461 c 128,-1,18
 1260 355 1260 355 1223.5 266 c 128,-1,19
 1187 177 1187 177 1126.5 120.5 c 128,-1,20
 1066 64 1066 64 973.5 33 c 128,-1,21
 881 2 881 2 756 2 c 0,22,23
 630 2 630 2 536.5 33 c 128,-1,24
 443 64 443 64 382.5 120.5 c 128,-1,25
 322 177 322 177 285 266 c 128,-1,26
 248 355 248 355 233 461 c 128,-1,27
 218 567 218 567 218 708 c 2,28,-1
 218 1400 l 1,29,-1
 358 1400 l 1,0,-1
EndSplineSet
Validated: 19457
EndChar

StartChar: V
Encoding: 309 86 53
Width: 1194
VWidth: 0
Flags: MW
HStem: 0 21G<556.086 636.111> 1350 50<960 1036.62>
DStem2: 148 1400 10 1400 0.367953 -0.929844<0 1303.9> 644 194 628 0 0.375831 0.926688<0 1166.67>
LayerCount: 2
Back
SplineSet
628 0 m 1,0,-1
 564 0 l 1,1,-1
 10 1400 l 1,2,-1
 148 1400 l 1,3,-1
 644 194 l 1,4,5
 962 968 962 968 1028 1144 c 0,6,7
 1051 1206 1051 1206 1055.5 1248.5 c 128,-1,8
 1060 1291 1060 1291 1047 1312 c 128,-1,9
 1034 1333 1034 1333 1013 1341.5 c 128,-1,10
 992 1350 992 1350 960 1350 c 1,11,-1
 960 1400 l 1,12,-1
 1182 1400 l 1,13,-1
 1182 1366 l 1,14,-1
 628 0 l 1,0,-1
EndSplineSet
Fore
SplineSet
628 0 m 5,0,-1
 564 0 l 1,1,-1
 10 1400 l 1,2,-1
 148 1400 l 1,3,-1
 644 194 l 5,4,5
 962 972 962 972 1028 1144 c 4,6,7
 1054 1208 1054 1208 1057 1249.5 c 128,-1,8
 1060 1291 1060 1291 1047 1312 c 128,-1,9
 1034 1333 1034 1333 1013 1341.5 c 128,-1,10
 992 1350 992 1350 960 1350 c 1,11,-1
 960 1400 l 1,12,-1
 1182 1400 l 1,13,-1
 1182 1366 l 5,14,-1
 628 0 l 5,0,-1
EndSplineSet
Validated: 3073
EndChar

StartChar: W
Encoding: 310 87 54
Width: 2062
VWidth: 0
Flags: MW
HStem: 0 21G<537.143 615.368 1413.12 1491.41> 1350 50<1774 1853.34>
DStem2: 202 1400 64 1400 0.324324 -0.945946<0 1266.92> 620 204 608 0 0.345269 0.938504<0 1019.31> 1074 1400 1028 1140 0.329861 -0.94403<230.274 1273.27> 1494 198 1484 0 0.347359 0.937732<0 1159.29>
LayerCount: 2
Back
SplineSet
1484 0 m 1,0,-1
 1420 0 l 1,1,-1
 1028 1140 l 1,2,-1
 608 0 l 1,3,-1
 544 0 l 1,4,-1
 64 1400 l 1,5,-1
 202 1400 l 1,6,-1
 620 204 l 1,7,-1
 1060 1400 l 1,8,-1
 1074 1400 l 1,9,-1
 1494 198 l 1,10,11
 1844 1144 l 2,12,13
 1864 1198 1864 1198 1869 1237.5 c 128,-1,14
 1874 1277 1874 1277 1868.5 1298 c 128,-1,15
 1863 1319 1863 1319 1846 1331.5 c 128,-1,16
 1829 1344 1829 1344 1813 1347 c 128,-1,17
 1797 1350 1797 1350 1774 1350 c 1,18,-1
 1774 1400 l 1,19,-1
 1990 1400 l 1,20,-1
 1990 1366 l 1,21,-1
 1484 0 l 1,0,-1
EndSplineSet
Fore
SplineSet
1484 0 m 5,0,-1
 1420 0 l 1,1,-1
 1028 1140 l 1,2,-1
 608 0 l 1,3,-1
 544 0 l 1,4,-1
 64 1400 l 1,5,-1
 202 1400 l 1,6,-1
 620 204 l 1,7,-1
 1060 1400 l 1,8,-1
 1074 1400 l 1,9,-1
 1494 198 l 5,10,11
 1844 1144 l 6,12,13
 1864 1198 1864 1198 1869 1237.5 c 128,-1,14
 1874 1277 1874 1277 1868.5 1298 c 128,-1,15
 1863 1319 1863 1319 1846 1331.5 c 128,-1,16
 1829 1344 1829 1344 1813 1347 c 128,-1,17
 1797 1350 1797 1350 1774 1350 c 1,18,-1
 1774 1400 l 1,19,-1
 1990 1400 l 1,20,-1
 1990 1366 l 5,21,-1
 1484 0 l 5,0,-1
EndSplineSet
Validated: 19457
EndChar

StartChar: X
Encoding: 311 88 55
Width: 1188
VWidth: 0
Flags: MW
HStem: 0 21G<54 147.941 956.71 1128> 1350 50<894 959.307>
DStem2: 196 1400 38 1400 0.554151 -0.832416<0 778.799 857.098 1594.3> 54 0 134 0 0.575916 0.817509<46.0733 794.516> 628 752 660 702 0.574282 0.818657<0 635.82>
LayerCount: 2
Back
SplineSet
38 1400 m 1,0,-1
 196 1400 l 1,1,-1
 628 752 l 1,2,-1
 938 1194 l 2,3,4
 975 1248 975 1248 978.5 1284 c 128,-1,5
 982 1320 982 1320 960 1335 c 128,-1,6
 938 1350 938 1350 894 1350 c 1,7,-1
 894 1400 l 1,8,-1
 1130 1400 l 1,9,-1
 1130 1372 l 1,10,-1
 660 702 l 1,11,-1
 1128 0 l 1,12,-1
 970 0 l 1,13,-1
 562 614 l 1,14,-1
 134 0 l 1,15,-1
 54 0 l 1,16,-1
 526 670 l 1,17,-1
 38 1400 l 1,0,-1
EndSplineSet
Fore
SplineSet
38 1400 m 1,0,-1
 196 1400 l 1,1,-1
 628 752 l 1,2,-1
 938 1194 l 2,3,4
 975 1248 975 1248 978.5 1284 c 128,-1,5
 982 1320 982 1320 960 1335 c 128,-1,6
 938 1350 938 1350 894 1350 c 1,7,-1
 894 1400 l 1,8,-1
 1130 1400 l 1,9,-1
 1130 1372 l 1,10,-1
 660 702 l 1,11,-1
 1128 0 l 1,12,-1
 970 0 l 1,13,-1
 562 614 l 5,14,-1
 134 0 l 5,15,-1
 54 0 l 5,16,-1
 526 670 l 5,17,-1
 38 1400 l 1,0,-1
EndSplineSet
Validated: 19457
EndChar

StartChar: Y
Encoding: 312 89 56
Width: 1054
VWidth: 0
Flags: MW
HStem: 0 21G<434 570> 1352 48<814 890.72>
VStem: 434 136<0 700>
DStem2: 134 1400 -16 1400 0.540758 -0.841178<0 751.052> 550 770 570 706 0.588172 0.808736<0 631.655>
LayerCount: 2
Back
SplineSet
134 1400 m 1,0,-1
 550 770 l 1,1,2
 793 1095 793 1095 858 1192 c 0,3,4
 964 1349 964 1349 814 1352 c 1,5,-1
 814 1400 l 1,6,-1
 1050 1400 l 1,7,-1
 1050 1366 l 1,8,-1
 570 706 l 1,9,-1
 570 0 l 1,10,-1
 434 0 l 1,11,-1
 434 700 l 1,12,-1
 -16 1400 l 1,13,-1
 134 1400 l 1,0,-1
EndSplineSet
Fore
SplineSet
134 1400 m 1,0,-1
 550 770 l 5,1,2
 807 1113 807 1113 858 1192 c 4,3,4
 901 1258 901 1258 901 1297 c 0,5,6
 901 1352 901 1352 814 1352 c 1,7,-1
 814 1400 l 1,8,-1
 1050 1400 l 1,9,-1
 1050 1366 l 5,10,-1
 570 706 l 5,11,-1
 570 0 l 1,12,-1
 434 0 l 1,13,-1
 434 700 l 1,14,-1
 -16 1400 l 1,15,-1
 134 1400 l 1,0,-1
EndSplineSet
Validated: 3073
EndChar

StartChar: Z
Encoding: 314 90 58
Width: 1196
VWidth: 0
Flags: MW
HStem: 0 132<258 1126> 1348 52<315.055 962>
DStem2: 104 120 258 132 0.572745 0.819733<98.0396 1498.05>
LayerCount: 2
Back
SplineSet
1126 0 m 1,0,-1
 104 0 l 1,1,-1
 104 120 l 1,2,-1
 962 1348 l 1,3,-1
 468 1348 l 2,4,5
 340 1348 340 1348 277 1300.5 c 128,-1,6
 214 1253 214 1253 178 1144 c 1,7,-1
 128 1144 l 1,8,-1
 184 1400 l 1,9,-1
 1106 1400 l 1,10,-1
 1106 1348 l 1,11,-1
 258 132 l 1,12,-1
 1126 132 l 1,13,-1
 1126 0 l 1,0,-1
EndSplineSet
Fore
SplineSet
1126 0 m 1,0,-1
 104 0 l 1,1,-1
 104 120 l 5,2,-1
 962 1348 l 5,3,-1
 468 1348 l 2,4,5
 340 1348 340 1348 277 1300.5 c 128,-1,6
 214 1253 214 1253 178 1144 c 1,7,-1
 128 1144 l 1,8,-1
 184 1400 l 1,9,-1
 1106 1400 l 1,10,-1
 1106 1348 l 5,11,-1
 258 132 l 5,12,-1
 1126 132 l 1,13,-1
 1126 0 l 1,0,-1
EndSplineSet
Validated: 19457
EndChar

StartChar: a
Encoding: 315 97 59
Width: 838
VWidth: 0
Flags: W
HStem: -4 66<251.542 452.695> 466 41<396.608 612> 780 92<187.312 568.649>
VStem: 76 110<113.082 358.99> 612 100<0 160 174.406 466 510 737.196>
LayerCount: 2
Back
SplineSet
412 872 m 0,0,1
 489 872 489 872 545 857 c 128,-1,2
 601 842 601 842 632.5 819 c 128,-1,3
 664 796 664 796 682.5 759 c 128,-1,4
 701 722 701 722 706.5 687 c 128,-1,5
 712 652 712 652 712 604 c 2,6,-1
 712 0 l 1,7,-1
 622 0 l 1,8,-1
 612 160 l 1,9,10
 563 81 563 81 475 38.5 c 128,-1,11
 387 -4 387 -4 316 -4 c 0,12,13
 219 -4 219 -4 147.5 52.5 c 128,-1,14
 76 109 76 109 76 224 c 0,15,16
 76 287 76 287 100 336 c 128,-1,17
 124 385 124 385 168 415 c 128,-1,18
 212 445 212 445 262 465 c 128,-1,19
 312 485 312 485 378 494.5 c 128,-1,20
 444 504 444 504 496.5 507 c 128,-1,21
 549 510 549 510 612 510 c 1,22,23
 612 518 612 518 610 600 c 0,24,25
 609 644 609 644 602 673 c 128,-1,26
 595 702 595 702 575 728.5 c 128,-1,27
 555 755 555 755 514.5 767.5 c 128,-1,28
 474 780 474 780 412 780 c 0,29,30
 296 780 296 780 180 732 c 1,31,-1
 162 818 l 1,32,-1
 191 831.5 l 2,33,34
 220 845 220 845 282.5 858.5 c 128,-1,35
 345 872 345 872 412 872 c 0,0,1
612 296 m 2,36,37
 612 466 l 1,38,39
 186 466 186 466 186 236 c 0,40,41
 186 158 186 158 233.5 110 c 128,-1,42
 281 62 281 62 360 62 c 0,43,44
 457 62 457 62 534.5 136.5 c 128,-1,45
 612 211 612 211 612 296 c 2,36,37
EndSplineSet
Fore
SplineSet
412 872 m 0,0,1
 489 872 489 872 545 857 c 128,-1,2
 601 842 601 842 632.5 819 c 128,-1,3
 664 796 664 796 682.5 759 c 128,-1,4
 701 722 701 722 706.5 687 c 128,-1,5
 712 652 712 652 712 604 c 2,6,-1
 712 0 l 1,7,-1
 622 0 l 1,8,-1
 612 160 l 1,9,10
 563 81 563 81 475 38.5 c 128,-1,11
 387 -4 387 -4 316 -4 c 0,12,13
 219 -4 219 -4 147.5 52.5 c 128,-1,14
 76 109 76 109 76 224 c 0,15,16
 76 287 76 287 100 336 c 128,-1,17
 124 385 124 385 168 415 c 128,-1,18
 212 445 212 445 262 465 c 128,-1,19
 312 485 312 485 378 494.5 c 128,-1,20
 444 504 444 504 496.5 507 c 128,-1,21
 549 510 549 510 612 510 c 1,22,23
 612 518 612 518 610 600 c 0,24,25
 609 644 609 644 602 673 c 128,-1,26
 595 702 595 702 575 728.5 c 128,-1,27
 555 755 555 755 514.5 767.5 c 128,-1,28
 474 780 474 780 412 780 c 0,29,30
 296 780 296 780 180 732 c 1,31,-1
 162 818 l 1,32,-1
 191 831.5 l 2,33,34
 220 845 220 845 282.5 858.5 c 128,-1,35
 345 872 345 872 412 872 c 0,0,1
612 296 m 2,36,37
 612 466 l 1,38,39
 186 466 186 466 186 236 c 0,40,41
 186 158 186 158 233.5 110 c 128,-1,42
 281 62 281 62 360 62 c 0,43,44
 457 62 457 62 534.5 136.5 c 128,-1,45
 612 211 612 211 612 296 c 2,36,37
EndSplineSet
Validated: 19457
EndChar

StartChar: acute
Encoding: 318 180 62
Width: 868
VWidth: 0
Flags: W
HStem: 1050 288
VStem: 352 294
LayerCount: 2
Back
SplineSet
352 1050 m 1,0,-1
 508 1338 l 1,1,-1
 646 1338 l 1,2,-1
 406 1050 l 1,3,-1
 352 1050 l 1,0,-1
EndSplineSet
Fore
SplineSet
352 1050 m 5,0,-1
 508 1338 l 5,1,-1
 646 1338 l 5,2,-1
 406 1050 l 5,3,-1
 352 1050 l 5,0,-1
EndSplineSet
Validated: 19457
EndChar

StartChar: ae
Encoding: 320 230 64
Width: 1400
VWidth: 0
Flags: W
HStem: -4 66<252.754 451.451> 0 100<842.508 1144.01> 466 44<398.608 614 728 1208> 780 92<194.753 570.772> 822 40<877.532 1066.78>
VStem: 78 110<112.914 358.707> 614 110<230.551 466 510 683.578> 1208 107.5<510 698.439>
LayerCount: 2
Back
SplineSet
972 862 m 0,0,1
 1050 862 1050 862 1111.5 839.5 c 128,-1,2
 1173 817 1173 817 1208 784 c 128,-1,3
 1243 751 1243 751 1267 705.5 c 128,-1,4
 1291 660 1291 660 1300.5 622.5 c 128,-1,5
 1310 585 1310 585 1313 544 c 128,-1,6
 1316 503 1316 503 1315.5 488.5 c 128,-1,7
 1315 474 1315 474 1314 466 c 1,8,-1
 724 466 l 1,9,10
 717 295 717 295 791 197.5 c 128,-1,11
 865 100 865 100 1002 100 c 0,12,13
 1042 100 1042 100 1082.5 115 c 128,-1,14
 1123 130 1123 130 1150 148.5 c 128,-1,15
 1177 167 1177 167 1202 191 c 128,-1,16
 1227 215 1227 215 1234.5 224.5 c 128,-1,17
 1242 234 1242 234 1246 240 c 1,18,-1
 1316 178 l 1,19,-1
 1303 159.5 l 2,20,21
 1290 141 1290 141 1261.5 115 c 128,-1,22
 1233 89 1233 89 1195.5 63 c 128,-1,23
 1158 37 1158 37 1101 18.5 c 128,-1,24
 1044 0 1044 0 982 0 c 0,25,26
 869 0 869 0 784 61.5 c 128,-1,27
 699 123 699 123 654 228 c 1,28,29
 624 164 624 164 578 116 c 128,-1,30
 532 68 532 68 483.5 43.5 c 128,-1,31
 435 19 435 19 393.5 7.5 c 128,-1,32
 352 -4 352 -4 318 -4 c 0,33,34
 273 -4 273 -4 232 8.5 c 128,-1,35
 191 21 191 21 155.5 46.5 c 128,-1,36
 120 72 120 72 99 115.5 c 128,-1,37
 78 159 78 159 78 216 c 128,-1,38
 78 273 78 273 97.5 318.5 c 128,-1,39
 117 364 117 364 147.5 394 c 128,-1,40
 178 424 178 424 224.5 446.5 c 128,-1,41
 271 469 271 469 315.5 481 c 128,-1,42
 360 493 360 493 417.5 499.5 c 128,-1,43
 475 506 475 506 518 508 c 128,-1,44
 561 510 561 510 614 510 c 1,45,46
 614 518 614 518 612 600 c 0,47,48
 611 644 611 644 604 673 c 128,-1,49
 597 702 597 702 577 728.5 c 128,-1,50
 557 755 557 755 516.5 767.5 c 128,-1,51
 476 780 476 780 414 780 c 0,52,53
 298 780 298 780 182 732 c 1,54,-1
 164 812 l 1,55,-1
 193 827 l 2,56,57
 222 842 222 842 284.5 857 c 128,-1,58
 347 872 347 872 414 872 c 0,59,60
 547 872 547 872 613 833 c 128,-1,61
 679 794 679 794 700 722 c 1,62,63
 802 862 802 862 972 862 c 0,0,1
614 316 m 2,64,65
 614 466 l 1,66,67
 188 466 188 466 188 236 c 0,68,69
 188 158 188 158 235.5 110 c 128,-1,70
 283 62 283 62 362 62 c 0,71,72
 462 62 462 62 538 137 c 128,-1,73
 614 212 614 212 614 316 c 2,64,65
728 510 m 1,74,-1
 1208 510 l 1,75,76
 1208 523 1208 523 1207 539.5 c 128,-1,77
 1206 556 1206 556 1201 588 c 128,-1,78
 1196 620 1196 620 1187 649 c 128,-1,79
 1178 678 1178 678 1160.5 711 c 128,-1,80
 1143 744 1143 744 1119 767.5 c 128,-1,81
 1095 791 1095 791 1057 806.5 c 128,-1,82
 1019 822 1019 822 972 822 c 0,83,84
 920 822 920 822 878 802.5 c 128,-1,85
 836 783 836 783 811 750 c 128,-1,86
 786 717 786 717 768.5 682.5 c 128,-1,87
 751 648 751 648 743 608.5 c 128,-1,88
 735 569 735 569 732 548 c 128,-1,89
 729 527 729 527 728 510 c 1,74,-1
EndSplineSet
Fore
SplineSet
972 862 m 0,0,1
 1050 862 1050 862 1111.5 839.5 c 128,-1,2
 1173 817 1173 817 1208 784 c 128,-1,3
 1243 751 1243 751 1267 705.5 c 128,-1,4
 1291 660 1291 660 1300.5 622.5 c 128,-1,5
 1310 585 1310 585 1313 544 c 128,-1,6
 1316 503 1316 503 1315.5 488.5 c 128,-1,7
 1315 474 1315 474 1314 466 c 1,8,-1
 724 466 l 1,9,10
 724 457 724 457 724 447 c 0,11,12
 724 281 724 281 794.5 190.5 c 128,-1,13
 865 100 865 100 1002 100 c 0,14,15
 1042 100 1042 100 1082.5 115 c 128,-1,16
 1123 130 1123 130 1150 148.5 c 128,-1,17
 1177 167 1177 167 1202 191 c 128,-1,18
 1227 215 1227 215 1234.5 224.5 c 128,-1,19
 1242 234 1242 234 1246 240 c 1,20,-1
 1316 178 l 1,21,-1
 1303 160 l 2,22,23
 1290 141 1290 141 1261.5 115 c 128,-1,24
 1233 89 1233 89 1195.5 63 c 128,-1,25
 1158 37 1158 37 1101 18.5 c 128,-1,26
 1044 0 1044 0 982 0 c 0,27,28
 869 0 869 0 784 61.5 c 128,-1,29
 699 123 699 123 654 228 c 1,30,31
 624 164 624 164 578 116 c 128,-1,32
 532 68 532 68 483.5 43.5 c 128,-1,33
 435 19 435 19 393.5 7.5 c 128,-1,34
 352 -4 352 -4 318 -4 c 0,35,36
 273 -4 273 -4 232 8.5 c 128,-1,37
 191 21 191 21 155.5 46.5 c 128,-1,38
 120 72 120 72 99 115.5 c 128,-1,39
 78 159 78 159 78 216 c 128,-1,40
 78 273 78 273 97.5 318.5 c 128,-1,41
 117 364 117 364 147.5 394 c 128,-1,42
 178 424 178 424 224.5 446.5 c 128,-1,43
 271 469 271 469 315.5 481 c 128,-1,44
 360 493 360 493 417.5 499.5 c 128,-1,45
 475 506 475 506 518 508 c 128,-1,46
 561 510 561 510 614 510 c 1,47,48
 614 518 614 518 612 600 c 0,49,50
 611 644 611 644 604 673 c 128,-1,51
 597 702 597 702 577 728.5 c 128,-1,52
 557 755 557 755 516.5 767.5 c 128,-1,53
 476 780 476 780 414 780 c 0,54,55
 298 780 298 780 182 732 c 1,56,-1
 164 812 l 1,57,-1
 193 827 l 2,58,59
 222 842 222 842 284.5 857 c 128,-1,60
 347 872 347 872 414 872 c 0,61,62
 547 872 547 872 613 833 c 128,-1,63
 679 794 679 794 700 722 c 1,64,65
 802 862 802 862 972 862 c 0,0,1
614 316 m 2,66,-1
 614 466 l 1,67,68
 188 466 188 466 188 236 c 0,69,70
 188 158 188 158 235.5 110 c 128,-1,71
 283 62 283 62 362 62 c 0,72,73
 462 62 462 62 538 137 c 128,-1,74
 614 212 614 212 614 316 c 2,66,-1
728 510 m 1,75,-1
 1208 510 l 1,76,77
 1208 523 1208 523 1207 539.5 c 128,-1,78
 1206 556 1206 556 1201 588 c 128,-1,79
 1196 620 1196 620 1187 649 c 128,-1,80
 1178 678 1178 678 1160.5 711 c 128,-1,81
 1143 744 1143 744 1119 767.5 c 128,-1,82
 1095 791 1095 791 1057 806.5 c 128,-1,83
 1019 822 1019 822 972 822 c 0,84,85
 920 822 920 822 878 802.5 c 128,-1,86
 836 783 836 783 811 750 c 128,-1,87
 786 717 786 717 768.5 682.5 c 128,-1,88
 751 648 751 648 743 608.5 c 128,-1,89
 735 569 735 569 732 548 c 128,-1,90
 729 527 729 527 728 510 c 1,75,-1
EndSplineSet
Validated: 3073
EndChar

StartChar: ampersand
Encoding: 322 38 66
Width: 1402
VWidth: 0
Flags: MW
HStem: 0 94<355.42 664.576 1108.26 1278.32> 1176 40<495.078 665.026>
VStem: 140 108<202.013 491.292> 314 106<876.859 1099.58> 742 112<855.113 1132.27> 1046 114<498.421 626>
DStem2: 591 696 479 639 0.655155 -0.755494<0 475.377>
LayerCount: 2
Back
SplineSet
590 1216 m 0,0,1
 640 1216 640 1216 685 1204.5 c 128,-1,2
 730 1193 730 1193 769 1168.5 c 128,-1,3
 808 1144 808 1144 831 1099 c 128,-1,4
 854 1054 854 1054 854 994 c 0,5,6
 854 950 854 950 839 911.5 c 128,-1,7
 824 873 824 873 801.5 844.5 c 128,-1,8
 779 816 779 816 742 787.5 c 128,-1,9
 705 759 705 759 672 739.5 c 128,-1,10
 639 720 639 720 591 696 c 1,11,-1
 748 508 l 1,12,13
 835 402 835 402 898 333 c 1,14,15
 1008 471 1008 471 1046 626 c 1,16,-1
 1160 626 l 1,17,18
 1109 427 1109 427 971 256 c 1,19,20
 1131 94 1131 94 1216 94 c 0,21,22
 1247 94 1247 94 1273 104.5 c 128,-1,23
 1299 115 1299 115 1306 121.5 c 128,-1,24
 1313 128 1313 128 1316 132 c 1,25,-1
 1340 114 l 1,26,-1
 1332.5 102.5 l 2,27,28
 1325 91 1325 91 1309 74 c 128,-1,29
 1293 57 1293 57 1272.5 40 c 128,-1,30
 1252 23 1252 23 1221 11.5 c 128,-1,31
 1190 0 1190 0 1158 0 c 0,32,33
 1060 0 1060 0 890 168 c 1,34,35
 704 -6 704 -6 498 -6 c 0,36,37
 348 -6 348 -6 244 86 c 128,-1,38
 140 178 140 178 140 322 c 0,39,40
 140 383 140 383 158.5 434 c 128,-1,41
 177 485 177 485 202.5 518.5 c 128,-1,42
 228 552 228 552 274 585 c 128,-1,43
 320 618 320 618 354.5 636 c 128,-1,44
 389 654 389 654 446 680 c 1,45,46
 380 767 380 767 347 836 c 128,-1,47
 314 905 314 905 314 974 c 0,48,49
 314 1065 314 1065 396.5 1140.5 c 128,-1,50
 479 1216 479 1216 590 1216 c 0,0,1
644 444 m 1,51,52
 515 594 515 594 479 639 c 1,53,54
 426 611 426 611 388.5 584.5 c 128,-1,55
 351 558 351 558 317 525.5 c 128,-1,56
 283 493 283 493 265.5 450.5 c 128,-1,57
 248 408 248 408 248 358 c 0,58,59
 248 310 248 310 262 266 c 128,-1,60
 276 222 276 222 305.5 183.5 c 128,-1,61
 335 145 335 145 387 122.5 c 128,-1,62
 439 100 439 100 508 100 c 0,63,64
 662 100 662 100 817 245 c 1,65,66
 753 315 753 315 644 444 c 1,51,52
420 1030 m 0,67,68
 420 965 420 965 454 896.5 c 128,-1,69
 488 828 488 828 560 735 c 1,70,71
 647 782 647 782 694.5 840.5 c 128,-1,72
 742 899 742 899 742 990 c 0,73,74
 742 1176 742 1176 576 1176 c 0,75,76
 512 1176 512 1176 466 1136.5 c 128,-1,77
 420 1097 420 1097 420 1030 c 0,67,68
EndSplineSet
Fore
SplineSet
590 1216 m 0,0,1
 640 1216 640 1216 685 1204.5 c 128,-1,2
 730 1193 730 1193 769 1168.5 c 128,-1,3
 808 1144 808 1144 831 1099 c 128,-1,4
 854 1054 854 1054 854 994 c 0,5,6
 854 950 854 950 839 911.5 c 128,-1,7
 824 873 824 873 801.5 844.5 c 128,-1,8
 779 816 779 816 742 787.5 c 128,-1,9
 705 759 705 759 672 739.5 c 128,-1,10
 639 720 639 720 591 696 c 1,11,-1
 748 508 l 1,12,13
 835 402 835 402 898 333 c 1,14,15
 1008 471 1008 471 1046 626 c 1,16,-1
 1160 626 l 1,17,18
 1109 427 1109 427 971 256 c 5,19,20
 1131 94 1131 94 1216 94 c 0,21,22
 1247 94 1247 94 1273 104.5 c 128,-1,23
 1299 115 1299 115 1306 121.5 c 128,-1,24
 1313 128 1313 128 1316 132 c 1,25,-1
 1340 114 l 1,26,-1
 1332.5 102.5 l 2,27,28
 1325 91 1325 91 1309 74 c 128,-1,29
 1293 57 1293 57 1272.5 40 c 128,-1,30
 1252 23 1252 23 1221 11.5 c 128,-1,31
 1190 0 1190 0 1158 0 c 0,32,33
 1060 0 1060 0 890 168 c 5,34,35
 704 -6 704 -6 498 -6 c 0,36,37
 348 -6 348 -6 244 86 c 128,-1,38
 140 178 140 178 140 322 c 0,39,40
 140 383 140 383 158.5 434 c 128,-1,41
 177 485 177 485 202.5 518.5 c 128,-1,42
 228 552 228 552 274 585 c 128,-1,43
 320 618 320 618 354.5 636 c 128,-1,44
 389 654 389 654 446 680 c 5,45,46
 380 767 380 767 347 836 c 128,-1,47
 314 905 314 905 314 974 c 0,48,49
 314 1065 314 1065 396.5 1140.5 c 128,-1,50
 479 1216 479 1216 590 1216 c 0,0,1
644 444 m 1,51,52
 515 594 515 594 479 639 c 1,53,54
 426 611 426 611 388.5 584.5 c 128,-1,55
 351 558 351 558 317 525.5 c 128,-1,56
 283 493 283 493 265.5 450.5 c 128,-1,57
 248 408 248 408 248 358 c 0,58,59
 248 310 248 310 262 266 c 128,-1,60
 276 222 276 222 305.5 183.5 c 128,-1,61
 335 145 335 145 387 122.5 c 128,-1,62
 439 100 439 100 508 100 c 0,63,64
 662 100 662 100 817 245 c 1,65,66
 753 315 753 315 644 444 c 1,51,52
420 1030 m 0,67,68
 420 965 420 965 454 896.5 c 128,-1,69
 488 828 488 828 560 735 c 5,70,71
 647 782 647 782 694.5 840.5 c 128,-1,72
 742 899 742 899 742 990 c 0,73,74
 742 1176 742 1176 576 1176 c 0,75,76
 512 1176 512 1176 466 1136.5 c 128,-1,77
 420 1097 420 1097 420 1030 c 0,67,68
EndSplineSet
Validated: 19457
EndChar

StartChar: asciicircum
Encoding: 324 94 68
Width: 840
VWidth: 0
Flags: MW
DStem2: 40 496 140 496 0.381331 0.924439<38.1331 769.064> 470 1296 418 1172 0.381331 -0.924439<94.8012 827.257>
LayerCount: 2
Back
SplineSet
370 1296 m 1,0,-1
 470 1296 l 1,1,-1
 800 496 l 1,2,-1
 700 496 l 1,3,-1
 418 1172 l 1,4,-1
 140 496 l 1,5,-1
 40 496 l 1,6,-1
 370 1296 l 1,0,-1
EndSplineSet
Fore
SplineSet
370 1296 m 5,0,-1
 470 1296 l 1,1,-1
 800 496 l 1,2,-1
 700 496 l 1,3,-1
 418 1172 l 5,4,-1
 140 496 l 5,5,-1
 40 496 l 5,6,-1
 370 1296 l 5,0,-1
EndSplineSet
Validated: 3073
EndChar

StartChar: asciitilde
Encoding: 325 126 69
Width: 952
VWidth: 0
Flags: W
HStem: 386 88<523.091 756.909> 524 88<171.461 398.806>
LayerCount: 2
Back
SplineSet
80 434 m 1,0,1
 81 438 81 438 83.5 444.5 c 128,-1,2
 86 451 86 451 95 469.5 c 128,-1,3
 104 488 104 488 114.5 504.5 c 128,-1,4
 125 521 125 521 143.5 541.5 c 128,-1,5
 162 562 162 562 183 577 c 128,-1,6
 204 592 204 592 233.5 602 c 128,-1,7
 263 612 263 612 296 612 c 0,8,9
 340 612 340 612 391 590.5 c 128,-1,10
 442 569 442 569 481 543 c 128,-1,11
 520 517 520 517 567.5 495.5 c 128,-1,12
 615 474 615 474 652 474 c 0,13,14
 679 474 679 474 707 485.5 c 128,-1,15
 735 497 735 497 755 513.5 c 128,-1,16
 775 530 775 530 791.5 546.5 c 128,-1,17
 808 563 808 563 816 574.5 c 2,18,-1
 824 586 l 1,19,-1
 862 562 l 1,20,21
 859 555 859 555 853 543 c 128,-1,22
 847 531 847 531 825.5 500.5 c 128,-1,23
 804 470 804 470 779 447 c 128,-1,24
 754 424 754 424 712.5 405 c 128,-1,25
 671 386 671 386 626 386 c 0,26,27
 579 386 579 386 527.5 407.5 c 128,-1,28
 476 429 476 429 439 455 c 128,-1,29
 402 481 402 481 357 502.5 c 128,-1,30
 312 524 312 524 276 524 c 0,31,32
 232 524 232 524 191.5 497 c 128,-1,33
 151 470 151 470 132.5 443 c 2,34,-1
 114 416 l 1,35,-1
 80 434 l 1,0,1
EndSplineSet
Fore
SplineSet
80 434 m 1,0,1
 81 438 81 438 83.5 444.5 c 128,-1,2
 86 451 86 451 95 469.5 c 128,-1,3
 104 488 104 488 114.5 504.5 c 128,-1,4
 125 521 125 521 143.5 541.5 c 128,-1,5
 162 562 162 562 183 577 c 128,-1,6
 204 592 204 592 233.5 602 c 128,-1,7
 263 612 263 612 296 612 c 0,8,9
 340 612 340 612 391 590.5 c 128,-1,10
 442 569 442 569 481 543 c 128,-1,11
 520 517 520 517 567.5 495.5 c 128,-1,12
 615 474 615 474 652 474 c 0,13,14
 679 474 679 474 707 485.5 c 128,-1,15
 735 497 735 497 755 513.5 c 128,-1,16
 775 530 775 530 791.5 546.5 c 128,-1,17
 808 563 808 563 816 574.5 c 2,18,-1
 824 586 l 1,19,-1
 862 562 l 1,20,21
 859 555 859 555 853 543 c 128,-1,22
 847 531 847 531 825.5 500.5 c 128,-1,23
 804 470 804 470 779 447 c 128,-1,24
 754 424 754 424 712.5 405 c 128,-1,25
 671 386 671 386 626 386 c 0,26,27
 579 386 579 386 527.5 407.5 c 128,-1,28
 476 429 476 429 439 455 c 128,-1,29
 402 481 402 481 357 502.5 c 128,-1,30
 312 524 312 524 276 524 c 0,31,32
 232 524 232 524 191.5 497 c 128,-1,33
 151 470 151 470 132.5 443 c 2,34,-1
 114 416 l 1,35,-1
 80 434 l 1,0,1
EndSplineSet
Validated: 19457
EndChar

StartChar: asterisk
Encoding: 326 42 70
Width: 648
VWidth: 0
Flags: W
HStem: 826 574
VStem: 46 554
LayerCount: 2
Back
SplineSet
600 1208 m 1,0,1
 434 1157 434 1157 347 1113 c 1,2,3
 387 1093 387 1093 450 1069.5 c 128,-1,4
 513 1046 513 1046 556.5 1032 c 2,5,-1
 600 1018 l 1,6,-1
 544 920 l 1,7,8
 416 1039 416 1039 334 1092 c 1,9,10
 337 1048 337 1048 348.5 981.5 c 128,-1,11
 360 915 360 915 370 870.5 c 2,12,-1
 380 826 l 1,13,-1
 266 826 l 1,14,15
 304 993 304 993 309 1091 c 1,16,17
 273 1066 273 1066 221 1023.5 c 128,-1,18
 169 981 169 981 135.5 950.5 c 2,19,-1
 102 920 l 1,20,-1
 46 1018 l 1,21,22
 211 1066 211 1066 298 1112 c 1,23,24
 258 1132 258 1132 195 1156 c 128,-1,25
 132 1180 132 1180 89 1194 c 2,26,-1
 46 1208 l 1,27,-1
 102 1306 l 1,28,29
 226 1189 226 1189 309 1135 c 1,30,31
 306 1179 306 1179 295.5 1245.5 c 128,-1,32
 285 1312 285 1312 275.5 1356 c 2,33,-1
 266 1400 l 1,34,-1
 380 1400 l 1,35,36
 340 1232 340 1232 334 1133 c 1,37,38
 371 1157 371 1157 423.5 1200.5 c 128,-1,39
 476 1244 476 1244 510 1275 c 2,40,-1
 544 1306 l 1,41,-1
 600 1208 l 1,0,1
EndSplineSet
Fore
SplineSet
600 1208 m 1,0,1
 434 1157 434 1157 347 1113 c 1,2,3
 387 1093 387 1093 450 1069.5 c 128,-1,4
 513 1046 513 1046 556.5 1032 c 2,5,-1
 600 1018 l 1,6,-1
 544 920 l 1,7,8
 416 1039 416 1039 334 1092 c 1,9,10
 337 1048 337 1048 348.5 981.5 c 128,-1,11
 360 915 360 915 370 870.5 c 2,12,-1
 380 826 l 1,13,-1
 266 826 l 1,14,15
 304 993 304 993 309 1091 c 1,16,17
 273 1066 273 1066 221 1023.5 c 128,-1,18
 169 981 169 981 135.5 950.5 c 2,19,-1
 102 920 l 1,20,-1
 46 1018 l 1,21,22
 211 1066 211 1066 298 1112 c 1,23,24
 258 1132 258 1132 195 1156 c 128,-1,25
 132 1180 132 1180 89 1194 c 2,26,-1
 46 1208 l 1,27,-1
 102 1306 l 1,28,29
 226 1189 226 1189 309 1135 c 1,30,31
 306 1179 306 1179 295.5 1245.5 c 128,-1,32
 285 1312 285 1312 275.5 1356 c 2,33,-1
 266 1400 l 1,34,-1
 380 1400 l 1,35,36
 340 1232 340 1232 334 1133 c 1,37,38
 371 1157 371 1157 423.5 1200.5 c 128,-1,39
 476 1244 476 1244 510 1275 c 2,40,-1
 544 1306 l 1,41,-1
 600 1208 l 1,0,1
EndSplineSet
Validated: 19457
EndChar

StartChar: at
Encoding: 327 64 71
Width: 1592
VWidth: 0
Flags: W
HStem: -48 102<579.599 1047.54> 272 54<1075.44 1236.22> 276 104<624.96 807.378> 1000 68<731.992 949.309> 1298 102<584.02 1056.58>
VStem: 90 102<445.319 906.755> 438 126<447.77 811.667> 948 99<339.692 485.864> 1386 102<506.199 964.893>
LayerCount: 2
Back
SplineSet
1040 1044 m 1,0,-1
 1148 1044 l 1,1,-1
 1052 512 l 1,2,3
 1024 326 1024 326 1148 326 c 0,4,5
 1245 326 1245 326 1315.5 433.5 c 128,-1,6
 1386 541 1386 541 1386 728 c 0,7,8
 1386 847 1386 847 1348 950 c 128,-1,9
 1310 1053 1310 1053 1239.5 1130.5 c 128,-1,10
 1169 1208 1169 1208 1059 1253 c 128,-1,11
 949 1298 949 1298 814 1298 c 0,12,13
 687 1298 687 1298 572 1249 c 128,-1,14
 457 1200 457 1200 373.5 1117 c 128,-1,15
 290 1034 290 1034 241 919.5 c 128,-1,16
 192 805 192 805 192 680 c 0,17,18
 192 509 192 509 275 365 c 128,-1,19
 358 221 358 221 501.5 137.5 c 128,-1,20
 645 54 645 54 814 54 c 0,21,22
 892 54 892 54 966.5 74 c 128,-1,23
 1041 94 1041 94 1064.5 106 c 128,-1,24
 1088 118 1088 118 1100 126 c 1,25,-1
 1146 32 l 1,26,-1
 1109.5 12 l 2,27,28
 1073 -8 1073 -8 990 -28 c 128,-1,29
 907 -48 907 -48 814 -48 c 0,30,31
 617 -48 617 -48 450.5 49 c 128,-1,32
 284 146 284 146 187 312.5 c 128,-1,33
 90 479 90 479 90 676 c 128,-1,34
 90 873 90 873 187 1039.5 c 128,-1,35
 284 1206 284 1206 450.5 1303 c 128,-1,36
 617 1400 617 1400 814 1400 c 0,37,38
 1005 1400 1005 1400 1159.5 1316 c 128,-1,39
 1314 1232 1314 1232 1401 1084.5 c 128,-1,40
 1488 937 1488 937 1488 754 c 0,41,42
 1488 659 1488 659 1467.5 579 c 128,-1,43
 1447 499 1447 499 1412 443 c 128,-1,44
 1377 387 1377 387 1330.5 348 c 128,-1,45
 1284 309 1284 309 1233 290.5 c 128,-1,46
 1182 272 1182 272 1128 272 c 0,47,48
 1033 272 1033 272 988.5 322.5 c 128,-1,49
 944 373 944 373 948 486 c 1,50,51
 928 456 928 456 922 446.5 c 128,-1,52
 916 437 916 437 894.5 408 c 128,-1,53
 873 379 873 379 860.5 366.5 c 128,-1,54
 848 354 848 354 823.5 332.5 c 128,-1,55
 799 311 799 311 778 301.5 c 128,-1,56
 757 292 757 292 728 284 c 128,-1,57
 699 276 699 276 668 276 c 0,58,59
 554 276 554 276 490.5 383 c 128,-1,60
 427 490 427 490 442 648 c 0,61,62
 458 823 458 823 568.5 945.5 c 128,-1,63
 679 1068 679 1068 808 1068 c 0,64,65
 852 1068 852 1068 891 1057.5 c 128,-1,66
 930 1047 930 1047 953 1034 c 128,-1,67
 976 1021 976 1021 995.5 1004 c 128,-1,68
 1015 987 1015 987 1020 980.5 c 128,-1,69
 1025 974 1025 974 1028 970 c 1,70,-1
 1040 1044 l 1,0,-1
982 698 m 1,71,72
 1009 857 1009 857 1016 902 c 1,73,-1
 1008.5 912 l 2,74,75
 1001 922 1001 922 985.5 936.5 c 128,-1,76
 970 951 970 951 949.5 965.5 c 128,-1,77
 929 980 929 980 898.5 990 c 128,-1,78
 868 1000 868 1000 836 1000 c 0,79,80
 734 1000 734 1000 660 903 c 128,-1,81
 586 806 586 806 568 680 c 0,82,83
 550 550 550 550 594.5 465 c 128,-1,84
 639 380 639 380 720 380 c 0,85,86
 798 380 798 380 881.5 485 c 128,-1,87
 965 590 965 590 982 698 c 1,71,72
EndSplineSet
Fore
SplineSet
1040 1044 m 1,0,-1
 1148 1044 l 1,1,-1
 1050 497 l 1,2,3
 1047 471 1047 471 1047 450 c 0,4,5
 1047 326 1047 326 1143 326 c 0,6,7
 1243 326 1243 326 1316 434 c 0,8,9
 1386 538 1386 538 1386 728 c 0,10,11
 1386 847 1386 847 1348 950 c 128,-1,12
 1310 1053 1310 1053 1239.5 1130.5 c 128,-1,13
 1169 1208 1169 1208 1059 1253 c 128,-1,14
 949 1298 949 1298 814 1298 c 0,15,16
 687 1298 687 1298 572 1249 c 128,-1,17
 457 1200 457 1200 373.5 1117 c 128,-1,18
 290 1034 290 1034 241 919.5 c 128,-1,19
 192 805 192 805 192 680 c 0,20,21
 192 509 192 509 275 365 c 128,-1,22
 358 221 358 221 501.5 137.5 c 128,-1,23
 645 54 645 54 814 54 c 0,24,25
 892 54 892 54 966.5 74 c 128,-1,26
 1041 94 1041 94 1064.5 106 c 128,-1,27
 1088 118 1088 118 1100 126 c 1,28,-1
 1146 32 l 1,29,-1
 1110 12 l 2,30,31
 1073 -8 1073 -8 990 -28 c 128,-1,32
 907 -48 907 -48 814 -48 c 0,33,34
 617 -48 617 -48 450.5 49 c 128,-1,35
 284 146 284 146 187 312.5 c 128,-1,36
 90 479 90 479 90 676 c 128,-1,37
 90 873 90 873 187 1039.5 c 128,-1,38
 284 1206 284 1206 450.5 1303 c 128,-1,39
 617 1400 617 1400 814 1400 c 0,40,41
 1005 1400 1005 1400 1159.5 1316 c 128,-1,42
 1314 1232 1314 1232 1401 1084.5 c 128,-1,43
 1488 937 1488 937 1488 754 c 0,44,45
 1488 659 1488 659 1467.5 579 c 128,-1,46
 1447 499 1447 499 1412 443 c 128,-1,47
 1377 387 1377 387 1330.5 348 c 128,-1,48
 1284 309 1284 309 1233 290.5 c 128,-1,49
 1182 272 1182 272 1128 272 c 0,50,51
 1031 272 1031 272 988 322 c 0,52,53
 948 369 948 369 948 468 c 0,54,55
 948 476 948 476 948 486 c 1,56,57
 928 456 928 456 922 446.5 c 128,-1,58
 916 437 916 437 894.5 408.5 c 128,-1,59
 873 380 873 380 860.5 367.5 c 128,-1,60
 848 355 848 355 823.5 333.5 c 128,-1,61
 799 312 799 312 778 302.5 c 128,-1,62
 757 293 757 293 728 284.5 c 128,-1,63
 699 276 699 276 668 276 c 0,64,65
 556 276 556 276 492 380 c 0,66,67
 438 468 438 468 438 591 c 0,68,69
 439 621 439 621 441 648 c 0,70,71
 453 812 453 812 568 946 c 0,72,73
 673 1068 673 1068 808 1068 c 0,74,75
 852 1068 852 1068 891 1057.5 c 128,-1,76
 930 1047 930 1047 953 1034 c 128,-1,77
 976 1021 976 1021 995.5 1004 c 128,-1,78
 1015 987 1015 987 1020 980.5 c 128,-1,79
 1025 974 1025 974 1028 970 c 1,80,-1
 1040 1044 l 1,0,-1
982 698 m 1,81,82
 1009 857 1009 857 1016 902 c 1,83,-1
 1008 912 l 2,84,85
 996 927 996 927 986 936 c 0,86,87
 968 952 968 952 950 966 c 0,88,89
 930 980 930 980 898.5 990 c 128,-1,90
 867 1000 867 1000 836 1000 c 0,91,92
 742 1000 742 1000 662 903 c 0,93,94
 591 818 591 818 567 680 c 0,95,96
 564 663 564 663 564 609 c 0,97,98
 564 531 564 531 598 465 c 0,99,100
 642 380 642 380 720 380 c 128,-1,101
 798 380 798 380 881.5 485 c 128,-1,102
 965 590 965 590 982 698 c 1,81,82
EndSplineSet
Validated: 3073
EndChar

StartChar: b
Encoding: 329 98 73
Width: 992
VWidth: 0
Flags: W
HStem: -12 100<407.851 674.397> 814 56<452.469 667.263> 1360 40<70 165.521>
VStem: 188 102<0 141 209.536 690.191 702 1351.96> 794 100<229.66 696.102>
LayerCount: 2
Back
SplineSet
188 0 m 1,0,-1
 188 1262 l 2,1,2
 188 1289 188 1289 186 1302 c 128,-1,3
 184 1315 184 1315 173.5 1331 c 128,-1,4
 163 1347 163 1347 138 1353.5 c 128,-1,5
 113 1360 113 1360 70 1360 c 1,6,-1
 70 1400 l 1,7,-1
 290 1400 l 1,8,-1
 290 702 l 1,9,10
 293 708 293 708 303.5 722.5 c 128,-1,11
 314 737 314 737 340 764 c 128,-1,12
 366 791 366 791 398.5 813.5 c 128,-1,13
 431 836 431 836 481 853 c 128,-1,14
 531 870 531 870 586 870 c 0,15,16
 645 870 645 870 697 849 c 128,-1,17
 749 828 749 828 795 782 c 128,-1,18
 841 736 841 736 867.5 652 c 128,-1,19
 894 568 894 568 894 454 c 0,20,21
 894 347 894 347 870.5 262.5 c 128,-1,22
 847 178 847 178 811 128 c 128,-1,23
 775 78 775 78 729 45 c 128,-1,24
 683 12 683 12 642.5 0 c 128,-1,25
 602 -12 602 -12 564 -12 c 0,26,27
 509 -12 509 -12 460.5 3.5 c 128,-1,28
 412 19 412 19 383 39.5 c 128,-1,29
 354 60 354 60 331 84.5 c 128,-1,30
 308 109 308 109 300.5 122 c 128,-1,31
 293 135 293 135 290 141 c 1,32,-1
 276 0 l 1,33,-1
 188 0 l 1,0,-1
544 88 m 0,34,35
 658 88 658 88 726 189.5 c 128,-1,36
 794 291 794 291 794 454 c 0,37,38
 794 814 794 814 556 814 c 0,39,40
 498 814 498 814 445.5 787.5 c 128,-1,41
 393 761 393 761 361.5 724 c 128,-1,42
 330 687 330 687 311 654 c 128,-1,43
 292 621 292 621 290 602 c 1,44,-1
 290 354 l 2,45,46
 290 252 290 252 366 170 c 128,-1,47
 442 88 442 88 544 88 c 0,34,35
EndSplineSet
Fore
SplineSet
188 0 m 1,0,-1
 188 1262 l 2,1,2
 188 1289 188 1289 186 1302 c 128,-1,3
 184 1315 184 1315 173.5 1331 c 128,-1,4
 163 1347 163 1347 138 1353.5 c 128,-1,5
 113 1360 113 1360 70 1360 c 1,6,-1
 70 1400 l 1,7,-1
 290 1400 l 1,8,-1
 290 702 l 1,9,10
 293 708 293 708 303.5 722.5 c 128,-1,11
 314 737 314 737 340 764 c 128,-1,12
 366 791 366 791 398.5 813.5 c 128,-1,13
 431 836 431 836 481 853 c 128,-1,14
 531 870 531 870 586 870 c 0,15,16
 645 870 645 870 697 849 c 128,-1,17
 749 828 749 828 795 782 c 128,-1,18
 841 736 841 736 867.5 652 c 128,-1,19
 894 568 894 568 894 454 c 0,20,21
 894 347 894 347 870.5 262.5 c 128,-1,22
 847 178 847 178 811 128 c 128,-1,23
 775 78 775 78 729 45 c 128,-1,24
 683 12 683 12 642.5 0 c 128,-1,25
 602 -12 602 -12 564 -12 c 0,26,27
 509 -12 509 -12 460.5 3.5 c 128,-1,28
 412 19 412 19 383 39.5 c 128,-1,29
 354 60 354 60 331 84.5 c 128,-1,30
 308 109 308 109 300.5 122 c 128,-1,31
 293 135 293 135 290 141 c 1,32,-1
 276 0 l 1,33,-1
 188 0 l 1,0,-1
544 88 m 0,34,35
 658 88 658 88 726 189.5 c 128,-1,36
 794 291 794 291 794 454 c 0,37,38
 794 814 794 814 556 814 c 0,39,40
 498 814 498 814 445.5 787.5 c 128,-1,41
 393 761 393 761 361.5 724 c 128,-1,42
 330 687 330 687 311 654 c 128,-1,43
 292 621 292 621 290 602 c 1,44,-1
 290 354 l 2,45,46
 290 252 290 252 366 170 c 128,-1,47
 442 88 442 88 544 88 c 0,34,35
EndSplineSet
Validated: 19457
EndChar

StartChar: backslash
Encoding: 330 92 74
Width: 994
VWidth: 0
Flags: MW
HStem: 1380 20G<38 147.347>
DStem2: 138 1400 38 1400 0.42338 -0.905952<0 1951.14>
LayerCount: 2
Back
SplineSet
138 1400 m 1,0,-1
 982 -406 l 1,1,-1
 882 -406 l 1,2,-1
 38 1400 l 1,3,-1
 138 1400 l 1,0,-1
EndSplineSet
Fore
SplineSet
138 1400 m 5,0,-1
 982 -406 l 5,1,-1
 882 -406 l 5,2,-1
 38 1400 l 5,3,-1
 138 1400 l 5,0,-1
EndSplineSet
Validated: 19457
EndChar

StartChar: bar
Encoding: 331 124 75
Width: 520
VWidth: 0
Flags: W
HStem: 1380 20G<208 308.022>
VStem: 210 100<-406 1400>
LayerCount: 2
Back
SplineSet
208 1400 m 1,0,-1
 308 1400 l 1,1,-1
 310 -406 l 1,2,-1
 210 -406 l 1,3,-1
 208 1400 l 1,0,-1
EndSplineSet
Fore
SplineSet
208 1400 m 1,0,-1
 308 1400 l 1,1,-1
 310 -406 l 1,2,-1
 210 -406 l 1,3,-1
 208 1400 l 1,0,-1
EndSplineSet
Validated: 19457
EndChar

StartChar: braceleft
Encoding: 332 123 76
Width: 630
VWidth: 0
Flags: W
HStem: -262 42<439.583 554> 512 44<136 207.613> 1288 42<439.583 554>
VStem: 268 104<-159.51 463.672 602.587 1227.51>
CounterMasks: 1 e0
LayerCount: 2
Back
SplineSet
554 -220 m 1,0,1
 554 -262 l 1,2,3
 521 -262 521 -262 490 -258 c 128,-1,4
 459 -254 459 -254 416 -238 c 128,-1,5
 373 -222 373 -222 342.5 -195.5 c 128,-1,6
 312 -169 312 -169 290 -119 c 128,-1,7
 268 -69 268 -69 268 -2 c 2,8,-1
 268 362 l 2,9,10
 268 449 268 449 241 480.5 c 128,-1,11
 214 512 214 512 136 512 c 1,12,-1
 136 556 l 1,13,14
 214 556 214 556 241 587.5 c 128,-1,15
 268 619 268 619 268 706 c 2,16,-1
 268 1070 l 2,17,18
 268 1137 268 1137 290 1187 c 128,-1,19
 312 1237 312 1237 342.5 1263.5 c 128,-1,20
 373 1290 373 1290 416 1306 c 128,-1,21
 459 1322 459 1322 490 1326 c 128,-1,22
 521 1330 521 1330 554 1330 c 1,23,-1
 554 1288 l 1,24,25
 372 1288 372 1288 372 1154 c 2,26,-1
 372 820 l 2,27,28
 372 757 372 757 365.5 712 c 128,-1,29
 359 667 359 667 341.5 627.5 c 128,-1,30
 324 588 324 588 291 565 c 128,-1,31
 258 542 258 542 208 534 c 1,32,33
 303 517 303 517 337.5 447 c 128,-1,34
 372 377 372 377 372 248 c 2,35,-1
 372 -86 l 2,36,37
 372 -220 372 -220 554 -220 c 1,0,1
EndSplineSet
Fore
SplineSet
554 -220 m 1,0,1
 554 -262 l 1,2,3
 521 -262 521 -262 490 -258 c 128,-1,4
 459 -254 459 -254 416 -238 c 128,-1,5
 373 -222 373 -222 342.5 -195.5 c 128,-1,6
 312 -169 312 -169 290 -119 c 128,-1,7
 268 -69 268 -69 268 -2 c 2,8,-1
 268 362 l 2,9,10
 268 449 268 449 241 480.5 c 128,-1,11
 214 512 214 512 136 512 c 1,12,-1
 136 556 l 1,13,14
 214 556 214 556 241 587.5 c 128,-1,15
 268 619 268 619 268 706 c 2,16,-1
 268 1070 l 2,17,18
 268 1137 268 1137 290 1187 c 128,-1,19
 312 1237 312 1237 342.5 1263.5 c 128,-1,20
 373 1290 373 1290 416 1306 c 128,-1,21
 459 1322 459 1322 490 1326 c 128,-1,22
 521 1330 521 1330 554 1330 c 1,23,-1
 554 1288 l 1,24,25
 372 1288 372 1288 372 1154 c 2,26,-1
 372 820 l 2,27,28
 372 757 372 757 365.5 712 c 128,-1,29
 359 667 359 667 341.5 627.5 c 128,-1,30
 324 588 324 588 291 565 c 128,-1,31
 258 542 258 542 208 534 c 1,32,33
 303 517 303 517 337.5 447 c 128,-1,34
 372 377 372 377 372 248 c 2,35,-1
 372 -86 l 2,36,37
 372 -220 372 -220 554 -220 c 1,0,1
EndSplineSet
Validated: 19457
EndChar

StartChar: braceright
Encoding: 333 125 77
Width: 614
VWidth: 0
Flags: W
HStem: -262 42<62 176.417> 512 44<408.387 480> 1288 42<62 176.417>
VStem: 244 104<-159.51 463.672 602.587 1227.51>
CounterMasks: 1 e0
LayerCount: 2
Back
SplineSet
62 -220 m 1,0,1
 244 -220 244 -220 244 -86 c 2,2,-1
 244 248 l 2,3,4
 244 377 244 377 278.5 447 c 128,-1,5
 313 517 313 517 408 534 c 1,6,7
 358 542 358 542 325 565 c 128,-1,8
 292 588 292 588 274.5 627.5 c 128,-1,9
 257 667 257 667 250.5 712 c 128,-1,10
 244 757 244 757 244 820 c 2,11,-1
 244 1154 l 2,12,13
 244 1288 244 1288 62 1288 c 1,14,-1
 62 1330 l 1,15,16
 95 1330 95 1330 126 1326 c 128,-1,17
 157 1322 157 1322 200 1306 c 128,-1,18
 243 1290 243 1290 273.5 1263.5 c 128,-1,19
 304 1237 304 1237 326 1187 c 128,-1,20
 348 1137 348 1137 348 1070 c 2,21,-1
 348 706 l 2,22,23
 348 619 348 619 375 587.5 c 128,-1,24
 402 556 402 556 480 556 c 1,25,-1
 480 512 l 1,26,27
 402 512 402 512 375 480.5 c 128,-1,28
 348 449 348 449 348 362 c 2,29,-1
 348 -2 l 2,30,31
 348 -69 348 -69 326 -119 c 128,-1,32
 304 -169 304 -169 273.5 -195.5 c 128,-1,33
 243 -222 243 -222 200 -238 c 128,-1,34
 157 -254 157 -254 126 -258 c 128,-1,35
 95 -262 95 -262 62 -262 c 1,36,-1
 62 -220 l 1,0,1
EndSplineSet
Fore
SplineSet
62 -220 m 1,0,1
 244 -220 244 -220 244 -86 c 2,2,-1
 244 248 l 2,3,4
 244 377 244 377 278.5 447 c 128,-1,5
 313 517 313 517 408 534 c 1,6,7
 358 542 358 542 325 565 c 128,-1,8
 292 588 292 588 274.5 627.5 c 128,-1,9
 257 667 257 667 250.5 712 c 128,-1,10
 244 757 244 757 244 820 c 2,11,-1
 244 1154 l 2,12,13
 244 1288 244 1288 62 1288 c 1,14,-1
 62 1330 l 1,15,16
 95 1330 95 1330 126 1326 c 128,-1,17
 157 1322 157 1322 200 1306 c 128,-1,18
 243 1290 243 1290 273.5 1263.5 c 128,-1,19
 304 1237 304 1237 326 1187 c 128,-1,20
 348 1137 348 1137 348 1070 c 2,21,-1
 348 706 l 2,22,23
 348 619 348 619 375 587.5 c 128,-1,24
 402 556 402 556 480 556 c 1,25,-1
 480 512 l 1,26,27
 402 512 402 512 375 480.5 c 128,-1,28
 348 449 348 449 348 362 c 2,29,-1
 348 -2 l 2,30,31
 348 -69 348 -69 326 -119 c 128,-1,32
 304 -169 304 -169 273.5 -195.5 c 128,-1,33
 243 -222 243 -222 200 -238 c 128,-1,34
 157 -254 157 -254 126 -258 c 128,-1,35
 95 -262 95 -262 62 -262 c 1,36,-1
 62 -220 l 1,0,1
EndSplineSet
Validated: 19457
EndChar

StartChar: bracketleft
Encoding: 334 91 78
Width: 606
VWidth: 0
Flags: W
HStem: -262 44<344 550> 1288 44<344 550>
VStem: 240 104<-218 1288>
LayerCount: 2
Back
SplineSet
550 1332 m 1,0,-1
 550 1288 l 1,1,-1
 344 1288 l 1,2,-1
 344 -218 l 1,3,-1
 550 -218 l 1,4,-1
 550 -262 l 1,5,-1
 240 -262 l 1,6,-1
 240 1332 l 1,7,-1
 550 1332 l 1,0,-1
EndSplineSet
Fore
SplineSet
550 1332 m 1,0,-1
 550 1288 l 1,1,-1
 344 1288 l 1,2,-1
 344 -218 l 1,3,-1
 550 -218 l 1,4,-1
 550 -262 l 1,5,-1
 240 -262 l 1,6,-1
 240 1332 l 1,7,-1
 550 1332 l 1,0,-1
EndSplineSet
Validated: 19457
EndChar

StartChar: bracketright
Encoding: 335 93 79
Width: 428
VWidth: 0
Flags: W
HStem: -262 44<56 262> 1288 44<56 262>
VStem: 262 104<-218 1288>
LayerCount: 2
Back
SplineSet
56 1332 m 1,0,-1
 366 1332 l 1,1,-1
 366 -262 l 1,2,-1
 56 -262 l 1,3,-1
 56 -218 l 1,4,-1
 262 -218 l 1,5,-1
 262 1288 l 1,6,-1
 56 1288 l 1,7,-1
 56 1332 l 1,0,-1
EndSplineSet
Fore
SplineSet
56 1332 m 1,0,-1
 366 1332 l 1,1,-1
 366 -262 l 1,2,-1
 56 -262 l 1,3,-1
 56 -218 l 1,4,-1
 262 -218 l 1,5,-1
 262 1288 l 1,6,-1
 56 1288 l 1,7,-1
 56 1332 l 1,0,-1
EndSplineSet
Validated: 19457
EndChar

StartChar: breve
Encoding: 336 728 80
Width: 536
VWidth: 0
Flags: W
HStem: 1052 100<138.105 390.132>
VStem: 24 480
LayerCount: 2
Back
SplineSet
68 1294 m 1,0,-1
 74 1279.5 l 2,1,2
 80 1265 80 1265 95.5 1244 c 128,-1,3
 111 1223 111 1223 132.5 1202 c 128,-1,4
 154 1181 154 1181 189 1166.5 c 128,-1,5
 224 1152 224 1152 264 1152 c 128,-1,6
 304 1152 304 1152 339.5 1167.5 c 128,-1,7
 375 1183 375 1183 395.5 1201.5 c 128,-1,8
 416 1220 416 1220 432.5 1244.5 c 128,-1,9
 449 1269 449 1269 453.5 1278.5 c 128,-1,10
 458 1288 458 1288 460 1294 c 1,11,-1
 504 1294 l 1,12,-1
 498.5 1269 l 2,13,14
 493 1244 493 1244 475.5 1208.5 c 128,-1,15
 458 1173 458 1173 433.5 1137.5 c 128,-1,16
 409 1102 409 1102 364 1077 c 128,-1,17
 319 1052 319 1052 264 1052 c 0,18,19
 224 1052 224 1052 189 1066 c 128,-1,20
 154 1080 154 1080 130.5 1100 c 128,-1,21
 107 1120 107 1120 87.5 1148 c 128,-1,22
 68 1176 68 1176 57 1198.5 c 128,-1,23
 46 1221 46 1221 37.5 1246.5 c 128,-1,24
 29 1272 29 1272 27 1280.5 c 128,-1,25
 25 1289 25 1289 24 1294 c 1,26,-1
 68 1294 l 1,0,-1
EndSplineSet
Fore
SplineSet
68 1294 m 1,0,-1
 74 1279.5 l 2,1,2
 80 1265 80 1265 95.5 1244 c 128,-1,3
 111 1223 111 1223 132.5 1202 c 128,-1,4
 154 1181 154 1181 189 1166.5 c 128,-1,5
 224 1152 224 1152 264 1152 c 128,-1,6
 304 1152 304 1152 339.5 1167.5 c 128,-1,7
 375 1183 375 1183 395.5 1201.5 c 128,-1,8
 416 1220 416 1220 432.5 1244.5 c 128,-1,9
 449 1269 449 1269 453.5 1278.5 c 128,-1,10
 458 1288 458 1288 460 1294 c 1,11,-1
 504 1294 l 1,12,-1
 498.5 1269 l 2,13,14
 493 1244 493 1244 475.5 1208.5 c 128,-1,15
 458 1173 458 1173 433.5 1137.5 c 128,-1,16
 409 1102 409 1102 364 1077 c 128,-1,17
 319 1052 319 1052 264 1052 c 0,18,19
 224 1052 224 1052 189 1066 c 128,-1,20
 154 1080 154 1080 130.5 1100 c 128,-1,21
 107 1120 107 1120 87.5 1148 c 128,-1,22
 68 1176 68 1176 57 1198.5 c 128,-1,23
 46 1221 46 1221 37.5 1246.5 c 128,-1,24
 29 1272 29 1272 27 1280.5 c 128,-1,25
 25 1289 25 1289 24 1294 c 1,26,-1
 68 1294 l 1,0,-1
EndSplineSet
Validated: 19457
EndChar

StartChar: brokenbar
Encoding: 337 166 81
Width: 518
VWidth: 0
Flags: W
HStem: 1380 20G<208 310>
VStem: 210 100<-406 334 658 1400>
LayerCount: 2
Back
SplineSet
208 1400 m 1,0,-1
 310 1400 l 1,1,-1
 310 658 l 1,2,-1
 210 658 l 1,3,-1
 208 1400 l 1,0,-1
208 334 m 1,4,-1
 310 334 l 1,5,-1
 310 -406 l 1,6,-1
 210 -406 l 1,7,-1
 208 334 l 1,4,-1
EndSplineSet
Fore
SplineSet
208 1400 m 1,0,-1
 310 1400 l 1,1,-1
 310 658 l 1,2,-1
 210 658 l 1,3,-1
 208 1400 l 1,0,-1
208 334 m 1,4,-1
 310 334 l 1,5,-1
 310 -406 l 1,6,-1
 210 -406 l 1,7,-1
 208 334 l 1,4,-1
EndSplineSet
Validated: 19457
EndChar

StartChar: bullet
Encoding: 338 8226 82
Width: 572
VWidth: 0
Flags: W
HStem: 288 418<148.053 404.659>
VStem: 68 418<368.053 624.659>
LayerCount: 2
Back
SplineSet
68 496 m 128,-1,1
 68 583 68 583 128.5 644.5 c 128,-1,2
 189 706 189 706 276 706 c 128,-1,3
 363 706 363 706 424.5 644.5 c 128,-1,4
 486 583 486 583 486 496 c 128,-1,5
 486 409 486 409 424.5 348.5 c 128,-1,6
 363 288 363 288 276 288 c 128,-1,7
 189 288 189 288 128.5 348.5 c 128,-1,0
 68 409 68 409 68 496 c 128,-1,1
EndSplineSet
Fore
SplineSet
68 496 m 128,-1,1
 68 583 68 583 128.5 644.5 c 128,-1,2
 189 706 189 706 276 706 c 128,-1,3
 363 706 363 706 424.5 644.5 c 128,-1,4
 486 583 486 583 486 496 c 128,-1,5
 486 409 486 409 424.5 348.5 c 128,-1,6
 363 288 363 288 276 288 c 128,-1,7
 189 288 189 288 128.5 348.5 c 128,-1,0
 68 409 68 409 68 496 c 128,-1,1
EndSplineSet
Validated: 19457
EndChar

StartChar: c
Encoding: 339 99 83
Width: 876
VWidth: 0
Flags: W
HStem: -10 100<331.386 621.576> 828 45<357.029 555.815>
VStem: 90 102<250.641 645.648> 700 42<576 657.809>
LayerCount: 2
Back
SplineSet
466 872 m 0,0,1
 526 868 526 868 572 860 c 128,-1,2
 618 852 618 852 647.5 840 c 128,-1,3
 677 828 677 828 702 812 c 128,-1,4
 727 796 727 796 734 790 c 128,-1,5
 741 784 741 784 744 780 c 1,6,-1
 742 576 l 1,7,-1
 700 576 l 1,8,9
 685 684 685 684 621.5 756 c 128,-1,10
 558 828 558 828 452 828 c 0,11,12
 343 828 343 828 267.5 729.5 c 128,-1,13
 192 631 192 631 192 460 c 0,14,15
 192 300 192 300 269.5 195 c 128,-1,16
 347 90 347 90 478 90 c 0,17,18
 519 90 519 90 560 105 c 128,-1,19
 601 120 601 120 627.5 138.5 c 128,-1,20
 654 157 654 157 678.5 181 c 128,-1,21
 703 205 703 205 710.5 214.5 c 128,-1,22
 718 224 718 224 722 230 c 1,23,-1
 792 166 l 1,24,-1
 779 148 l 2,25,26
 766 130 766 130 737.5 104 c 128,-1,27
 709 78 709 78 671.5 52 c 128,-1,28
 634 26 634 26 577 8 c 128,-1,29
 520 -10 520 -10 458 -10 c 0,30,31
 294 -10 294 -10 192 117 c 128,-1,32
 90 244 90 244 90 436 c 0,33,34
 90 535 90 535 121.5 618.5 c 128,-1,35
 153 702 153 702 206 756.5 c 128,-1,36
 259 811 259 811 326.58 843.895 c 128,-1,37
 394.159 876.789 394.159 876.789 466 872 c 0,0,1
EndSplineSet
Fore
SplineSet
473 873 m 0,0,1
 508 873 508 873 551 866 c 128,-1,2
 594 859 594 859 644 839 c 0,3,4
 669 829 669 829 701 810 c 0,5,6
 726 795 726 795 732 790 c 0,7,8
 739 784 739 784 742 780 c 1,9,-1
 742 576 l 1,10,-1
 700 576 l 1,11,12
 685 684 685 684 621.5 756 c 128,-1,13
 558 828 558 828 452 828 c 0,14,15
 343 828 343 828 267.5 729.5 c 128,-1,16
 192 631 192 631 192 460 c 0,17,18
 192 300 192 300 269.5 195 c 128,-1,19
 347 90 347 90 478 90 c 0,20,21
 519 90 519 90 560 105 c 128,-1,22
 601 120 601 120 627.5 138.5 c 128,-1,23
 654 157 654 157 678.5 181 c 128,-1,24
 703 205 703 205 710.5 214.5 c 128,-1,25
 718 224 718 224 722 230 c 1,26,-1
 792 166 l 1,27,-1
 779 148 l 2,28,29
 766 130 766 130 737.5 104 c 128,-1,30
 709 78 709 78 671.5 52 c 128,-1,31
 634 26 634 26 577 8 c 128,-1,32
 520 -10 520 -10 458 -10 c 0,33,34
 294 -10 294 -10 192 117 c 128,-1,35
 90 244 90 244 90 436 c 0,36,37
 90 540 90 540 122 618 c 0,38,39
 160 711 160 711 204 755 c 0,40,41
 244 797 244 797 305 832 c 0,42,43
 376 873 376 873 473 873 c 0,0,1
EndSplineSet
Validated: 3073
EndChar

StartChar: caron
Encoding: 340 711 84
Width: 530
VWidth: 0
Flags: W
HStem: 1052 242
VStem: 26 478
LayerCount: 2
Back
SplineSet
304 1052 m 1,0,-1
 228 1052 l 1,1,-1
 26 1294 l 1,2,-1
 164 1294 l 1,3,-1
 264 1110 l 1,4,-1
 364 1294 l 1,5,-1
 504 1294 l 1,6,-1
 304 1052 l 1,0,-1
EndSplineSet
Fore
SplineSet
304 1052 m 1,0,-1
 228 1052 l 1,1,-1
 26 1294 l 1,2,-1
 164 1294 l 1,3,-1
 264 1110 l 1,4,-1
 364 1294 l 1,5,-1
 504 1294 l 1,6,-1
 304 1052 l 1,0,-1
EndSplineSet
Validated: 19457
EndChar

StartChar: ccedilla
Encoding: 341 231 85
Width: 872
VWidth: 0
Flags: W
HStem: -10 100<379.893 621.892> 828 45<357.029 555.815>
VStem: 90 102<250.641 645.648> 446 90<-299.266 -148.528> 700 42<576 657.809>
LayerCount: 2
Back
Refer: 86 184 S 1 0 0 1 0 0 2
Refer: 83 99 N 1 0 0 1 0 0 2
Fore
SplineSet
473 873 m 0,0,1
 508 873 508 873 551 866 c 128,-1,2
 594 859 594 859 644 839 c 0,3,4
 669 829 669 829 701 810 c 0,5,6
 726 795 726 795 732 790 c 0,7,8
 739 784 739 784 742 780 c 1,9,-1
 742 576 l 1,10,-1
 700 576 l 1,11,12
 685 684 685 684 621.5 756 c 128,-1,13
 558 828 558 828 452 828 c 0,14,15
 343 828 343 828 267.5 729.5 c 128,-1,16
 192 631 192 631 192 460 c 0,17,18
 192 300 192 300 270 195 c 0,19,20
 347 90 347 90 478 90 c 0,21,22
 519 90 519 90 560 105 c 128,-1,23
 601 120 601 120 627.5 138.5 c 128,-1,24
 654 157 654 157 678.5 181 c 128,-1,25
 703 205 703 205 710.5 214.5 c 128,-1,26
 718 224 718 224 722 230 c 1,27,-1
 792 166 l 1,28,-1
 779 148 l 2,29,30
 766 130 766 130 738 104 c 0,31,32
 706 75 706 75 672 52 c 0,33,34
 632 25 632 25 577 8 c 0,35,36
 520 -10 520 -10 458 -10 c 0,37,38
 442 -10 442 -10 427 -9 c 1,39,-1
 420 -54 l 1,40,-1
 432 -60 l 2,41,42
 444 -66 444 -66 461 -79 c 128,-1,43
 478 -92 478 -92 495 -109 c 128,-1,44
 512 -126 512 -126 524 -151 c 128,-1,45
 536 -176 536 -176 536 -202 c 0,46,47
 536 -233 536 -233 520.5 -260.5 c 128,-1,48
 505 -288 505 -288 486 -304 c 128,-1,49
 467 -320 467 -320 442 -333 c 128,-1,50
 417 -346 417 -346 408 -349 c 2,51,-1
 392 -354 l 1,52,-1
 370 -322 l 1,53,-1
 389 -315 l 2,54,55
 408 -308 408 -308 427 -284.5 c 128,-1,56
 446 -261 446 -261 446 -228 c 0,57,58
 446 -210 446 -210 437.5 -192.5 c 128,-1,59
 429 -175 429 -175 418.5 -164 c 128,-1,60
 408 -153 408 -153 394 -143 c 0,61,62
 378 -132 378 -132 374 -130 c 0,63,64
 369 -128 369 -128 366 -126 c 1,65,66
 366 -124 366 -124 387 -3 c 1,67,68
 271 19 271 19 192 117 c 0,69,70
 90 244 90 244 90 436 c 0,71,72
 90 540 90 540 122 618 c 0,73,74
 160 711 160 711 204 755 c 1,75,76
 244 797 244 797 305 832 c 0,77,78
 376 873 376 873 473 873 c 0,0,1
EndSplineSet
Validated: 3073
EndChar

StartChar: cedilla
Encoding: 342 184 86
Width: 824
VWidth: 0
Flags: W
HStem: -354 39<389 407.5>
VStem: 392 28<-53.2969 26> 446 90<-299.266 -148.528>
LayerCount: 2
Back
SplineSet
392 26 m 1,0,1
 432 26 l 1,2,-1
 420 -54 l 1,3,-1
 432 -60 l 2,4,5
 444 -66 444 -66 461 -79 c 128,-1,6
 478 -92 478 -92 495 -109 c 128,-1,7
 512 -126 512 -126 524 -151 c 128,-1,8
 536 -176 536 -176 536 -202 c 0,9,10
 536 -233 536 -233 520.5 -260.5 c 128,-1,11
 505 -288 505 -288 486 -304 c 128,-1,12
 467 -320 467 -320 442 -333 c 128,-1,13
 417 -346 417 -346 407.5 -349 c 128,-1,14
 398 -352 398 -352 392 -354 c 1,15,-1
 370 -322 l 1,16,-1
 389 -315 l 2,17,18
 408 -308 408 -308 427 -284.5 c 128,-1,19
 446 -261 446 -261 446 -228 c 0,20,21
 446 -210 446 -210 437.5 -192.5 c 128,-1,22
 429 -175 429 -175 418.5 -164 c 128,-1,23
 408 -153 408 -153 394 -143 c 128,-1,24
 380 -133 380 -133 374.5 -130.5 c 128,-1,25
 369 -128 369 -128 366 -126 c 1,26,27
 366 -124 366 -124 392 26 c 1,0,1
EndSplineSet
Fore
SplineSet
392 26 m 1,0,1
 432 26 l 1,2,-1
 420 -54 l 1,3,-1
 432 -60 l 2,4,5
 444 -66 444 -66 461 -79 c 128,-1,6
 478 -92 478 -92 495 -109 c 128,-1,7
 512 -126 512 -126 524 -151 c 128,-1,8
 536 -176 536 -176 536 -202 c 0,9,10
 536 -233 536 -233 520.5 -260.5 c 128,-1,11
 505 -288 505 -288 486 -304 c 128,-1,12
 467 -320 467 -320 442 -333 c 128,-1,13
 417 -346 417 -346 407.5 -349 c 128,-1,14
 398 -352 398 -352 392 -354 c 1,15,-1
 370 -322 l 1,16,-1
 389 -315 l 2,17,18
 408 -308 408 -308 427 -284.5 c 128,-1,19
 446 -261 446 -261 446 -228 c 0,20,21
 446 -210 446 -210 437.5 -192.5 c 128,-1,22
 429 -175 429 -175 418.5 -164 c 128,-1,23
 408 -153 408 -153 394 -143 c 128,-1,24
 380 -133 380 -133 374.5 -130.5 c 128,-1,25
 369 -128 369 -128 366 -126 c 1,26,27
 366 -124 366 -124 392 26 c 1,0,1
EndSplineSet
Validated: 19457
EndChar

StartChar: cent
Encoding: 343 162 87
Width: 888
VWidth: 0
Flags: W
HStem: -6 106<326.065 412 500 642.594> 822 44<355.846 412>
VStem: 98 102<249.548 651.797> 412 88<-178 -2.85742 100 822 871 1026> 708 42<576 657.559>
LayerCount: 2
Back
SplineSet
412 1026 m 1,0,-1
 500 1026 l 1,1,-1
 500 871 l 1,2,3
 549 869 549 869 593.5 858.5 c 128,-1,4
 638 848 638 848 664.5 836.5 c 128,-1,5
 691 825 691 825 713.5 810 c 128,-1,6
 736 795 736 795 742.5 789 c 128,-1,7
 749 783 749 783 752 780 c 1,8,-1
 750 576 l 1,9,-1
 708 576 l 1,10,11
 694 672 694 672 641 741.5 c 128,-1,12
 588 811 588 811 500 825 c 1,13,-1
 500 90 l 1,14,15
 539 93 539 93 577.5 109 c 128,-1,16
 616 125 616 125 641 143 c 128,-1,17
 666 161 666 161 689.5 184 c 128,-1,18
 713 207 713 207 719.5 216 c 128,-1,19
 726 225 726 225 730 230 c 1,20,-1
 800 166 l 1,21,-1
 788 149.5 l 2,22,23
 776 133 776 133 750.5 109 c 128,-1,24
 725 85 725 85 691.5 60.5 c 128,-1,25
 658 36 658 36 606.5 16 c 128,-1,26
 555 -4 555 -4 500 -8 c 1,27,-1
 500 -178 l 1,28,-1
 412 -178 l 1,29,-1
 412 -6 l 1,30,31
 270 16 270 16 184 138.5 c 128,-1,32
 98 261 98 261 98 436 c 0,33,34
 98 610 98 610 188.5 726 c 128,-1,35
 279 842 279 842 412 866 c 1,36,-1
 412 1026 l 1,0,-1
200 460 m 0,37,38
 200 324 200 324 256.5 226 c 128,-1,39
 313 128 313 128 412 100 c 1,40,-1
 412 822 l 1,41,42
 320 801 320 801 260 706 c 128,-1,43
 200 611 200 611 200 460 c 0,37,38
EndSplineSet
Fore
SplineSet
412 1026 m 1,0,-1
 500 1026 l 1,1,-1
 500 871 l 1,2,3
 549 869 549 869 593.5 858.5 c 128,-1,4
 638 848 638 848 664.5 836.5 c 128,-1,5
 691 825 691 825 713.5 810 c 128,-1,6
 736 795 736 795 742.5 789 c 128,-1,7
 749 783 749 783 752 780 c 1,8,-1
 750 576 l 1,9,-1
 708 576 l 1,10,11
 694 672 694 672 641 741.5 c 128,-1,12
 588 811 588 811 500 825 c 1,13,-1
 500 90 l 1,14,15
 539 93 539 93 577.5 109 c 128,-1,16
 616 125 616 125 641 143 c 128,-1,17
 666 161 666 161 689.5 184 c 128,-1,18
 713 207 713 207 719.5 216 c 128,-1,19
 726 225 726 225 730 230 c 1,20,-1
 800 166 l 1,21,-1
 788 149.5 l 2,22,23
 776 133 776 133 750.5 109 c 128,-1,24
 725 85 725 85 691.5 60.5 c 128,-1,25
 658 36 658 36 606.5 16 c 128,-1,26
 555 -4 555 -4 500 -8 c 1,27,-1
 500 -178 l 1,28,-1
 412 -178 l 1,29,-1
 412 -6 l 1,30,31
 270 16 270 16 184 138.5 c 128,-1,32
 98 261 98 261 98 436 c 0,33,34
 98 610 98 610 188.5 726 c 128,-1,35
 279 842 279 842 412 866 c 1,36,-1
 412 1026 l 1,0,-1
200 460 m 0,37,38
 200 324 200 324 256.5 226 c 128,-1,39
 313 128 313 128 412 100 c 1,40,-1
 412 822 l 1,41,42
 320 801 320 801 260 706 c 128,-1,43
 200 611 200 611 200 460 c 0,37,38
EndSplineSet
Validated: 19457
EndChar

StartChar: circumflex
Encoding: 344 710 88
Width: 860
VWidth: 0
Flags: W
HStem: 1052 242
VStem: 178 478
LayerCount: 2
Back
SplineSet
456 1294 m 1,0,-1
 656 1052 l 1,1,-1
 516 1052 l 1,2,-1
 416 1236 l 1,3,-1
 316 1052 l 1,4,-1
 178 1052 l 1,5,-1
 380 1294 l 1,6,-1
 456 1294 l 1,0,-1
EndSplineSet
Fore
SplineSet
456 1294 m 1,0,-1
 656 1052 l 1,1,-1
 516 1052 l 1,2,-1
 416 1236 l 1,3,-1
 316 1052 l 1,4,-1
 178 1052 l 1,5,-1
 380 1294 l 1,6,-1
 456 1294 l 1,0,-1
EndSplineSet
Validated: 19457
EndChar

StartChar: colon
Encoding: 345 58 89
Width: 520
VWidth: 0
Flags: W
HStem: 0 180<198.815 325.185> 684 180<198.815 325.185>
VStem: 172 180<26.8154 153.185 710.815 837.185>
LayerCount: 2
Back
SplineSet
172 90 m 128,-1,1
 172 128 172 128 198 154 c 128,-1,2
 224 180 224 180 262 180 c 128,-1,3
 300 180 300 180 326 154 c 128,-1,4
 352 128 352 128 352 90 c 128,-1,5
 352 52 352 52 326 26 c 128,-1,6
 300 0 300 0 262 0 c 128,-1,7
 224 0 224 0 198 26 c 128,-1,0
 172 52 172 52 172 90 c 128,-1,1
172 774 m 128,-1,9
 172 812 172 812 198 838 c 128,-1,10
 224 864 224 864 262 864 c 128,-1,11
 300 864 300 864 326 838 c 128,-1,12
 352 812 352 812 352 774 c 128,-1,13
 352 736 352 736 326 710 c 128,-1,14
 300 684 300 684 262 684 c 128,-1,15
 224 684 224 684 198 710 c 128,-1,8
 172 736 172 736 172 774 c 128,-1,9
EndSplineSet
Fore
SplineSet
172 90 m 128,-1,1
 172 128 172 128 198 154 c 128,-1,2
 224 180 224 180 262 180 c 128,-1,3
 300 180 300 180 326 154 c 128,-1,4
 352 128 352 128 352 90 c 128,-1,5
 352 52 352 52 326 26 c 128,-1,6
 300 0 300 0 262 0 c 128,-1,7
 224 0 224 0 198 26 c 128,-1,0
 172 52 172 52 172 90 c 128,-1,1
172 774 m 128,-1,9
 172 812 172 812 198 838 c 128,-1,10
 224 864 224 864 262 864 c 128,-1,11
 300 864 300 864 326 838 c 128,-1,12
 352 812 352 812 352 774 c 128,-1,13
 352 736 352 736 326 710 c 128,-1,14
 300 684 300 684 262 684 c 128,-1,15
 224 684 224 684 198 710 c 128,-1,8
 172 736 172 736 172 774 c 128,-1,9
EndSplineSet
Validated: 19457
EndChar

StartChar: comma
Encoding: 346 44 90
Width: 368
VWidth: 0
Flags: W
HStem: 0 180<108.817 178.527>
VStem: 78 183<21.7549 147.051> 179 82<-98.5913 47.672>
LayerCount: 2
Back
SplineSet
78 90 m 0,0,1
 78 133 78 133 107.5 156.5 c 128,-1,2
 137 180 137 180 168 180 c 0,3,4
 201 180 201 180 231.5 148 c 128,-1,5
 262 116 262 116 262 42 c 0,6,7
 262 1 262 1 246.5 -41 c 128,-1,8
 231 -83 231 -83 212.5 -111.5 c 128,-1,9
 194 -140 194 -140 169.5 -167.5 c 128,-1,10
 145 -195 145 -195 135.5 -203 c 128,-1,11
 126 -211 126 -211 120 -216 c 1,12,-1
 100 -178 l 1,13,-1
 123 -153.5 l 2,14,15
 146 -129 146 -129 165.5 -84.5 c 128,-1,16
 185 -40 185 -40 178 0 c 1,17,18
 147 -4 147 -4 112.5 18.5 c 128,-1,19
 78 41 78 41 78 90 c 0,0,1
EndSplineSet
Fore
SplineSet
78 89 m 4,0,1
 78 132 78 132 106.5 156 c 132,-1,2
 135 180 135 180 168 180 c 4,3,4
 202 179 202 179 232 148 c 4,5,6
 261 118 261 118 261 42 c 4,7,8
 261 1 261 1 246 -41 c 132,-1,9
 231 -83 231 -83 212.5 -111.5 c 132,-1,10
 194 -140 194 -140 169.5 -167.5 c 132,-1,11
 145 -195 145 -195 135.5 -203 c 132,-1,12
 126 -211 126 -211 120 -216 c 5,13,-1
 98 -178 l 5,14,-1
 118 -160 l 6,15,16
 142 -139 142 -139 166 -88 c 4,17,18
 179 -60 179 -60 179 -23 c 4,19,20
 179 -12 179 -12 178 0 c 5,21,22
 134 0 134 0 108 21 c 4,23,24
 78 45 78 45 78 89 c 4,0,1
EndSplineSet
Validated: 3073
EndChar

StartChar: copyright
Encoding: 347 169 91
Width: 1544
VWidth: 0
Flags: W
HStem: -4 66<574.048 974.12> 242 86<635.319 927.454> 1084 46<659.448 884.837> 1332 66<574.048 974.12>
VStem: 74 66<496.048 896.12> 390 86<510.56 902.083> 1410 66<496.048 896.12>
LayerCount: 2
Back
SplineSet
74 696 m 128,-1,1
 74 887 74 887 167.5 1048.5 c 128,-1,2
 261 1210 261 1210 422 1304 c 128,-1,3
 583 1398 583 1398 774 1398 c 128,-1,4
 965 1398 965 1398 1126.5 1304 c 128,-1,5
 1288 1210 1288 1210 1382 1048.5 c 128,-1,6
 1476 887 1476 887 1476 696 c 128,-1,7
 1476 505 1476 505 1382 344 c 128,-1,8
 1288 183 1288 183 1126.5 89.5 c 128,-1,9
 965 -4 965 -4 774 -4 c 128,-1,10
 583 -4 583 -4 422 89.5 c 128,-1,11
 261 183 261 183 167.5 344 c 128,-1,0
 74 505 74 505 74 696 c 128,-1,1
140 696 m 128,-1,13
 140 524 140 524 225 378 c 128,-1,14
 310 232 310 232 456 147 c 128,-1,15
 602 62 602 62 774 62 c 128,-1,16
 946 62 946 62 1092.5 147 c 128,-1,17
 1239 232 1239 232 1324.5 378 c 128,-1,18
 1410 524 1410 524 1410 696 c 128,-1,19
 1410 868 1410 868 1324.5 1014.5 c 128,-1,20
 1239 1161 1239 1161 1092.5 1246.5 c 128,-1,21
 946 1332 946 1332 774 1332 c 128,-1,22
 602 1332 602 1332 456 1246.5 c 128,-1,23
 310 1161 310 1161 225 1014.5 c 128,-1,12
 140 868 140 868 140 696 c 128,-1,13
1028 480 m 1,24,25
 1102 438 l 1,26,-1
 1091 418 l 2,27,28
 1080 398 1080 398 1053.5 369 c 128,-1,29
 1027 340 1027 340 991.5 311 c 128,-1,30
 956 282 956 282 897.5 262 c 128,-1,31
 839 242 839 242 772 242 c 0,32,33
 700 242 700 242 632 272.5 c 128,-1,34
 564 303 564 303 510 358.5 c 128,-1,35
 456 414 456 414 423 502.5 c 128,-1,36
 390 591 390 591 390 698 c 0,37,38
 390 797 390 797 423 880.5 c 128,-1,39
 456 964 456 964 510.5 1017.5 c 128,-1,40
 565 1071 565 1071 633 1100.5 c 128,-1,41
 701 1130 701 1130 772 1130 c 0,42,43
 823 1130 823 1130 870 1120.5 c 128,-1,44
 917 1111 917 1111 945 1100 c 128,-1,45
 973 1089 973 1089 998 1074 c 128,-1,46
 1023 1059 1023 1059 1029.5 1053 c 128,-1,47
 1036 1047 1036 1047 1040 1044 c 1,48,-1
 1060 894 l 1,49,-1
 1010 894 l 1,50,51
 994 974 994 974 934 1027.5 c 128,-1,52
 874 1081 874 1081 772 1084 c 1,53,54
 647 1086 647 1086 561.5 991 c 128,-1,55
 476 896 476 896 476 722 c 0,56,57
 476 550 476 550 562 439 c 128,-1,58
 648 328 648 328 782 328 c 0,59,60
 830 328 830 328 873.5 344.5 c 128,-1,61
 917 361 917 361 943 381 c 128,-1,62
 969 401 969 401 991 427 c 128,-1,63
 1013 453 1013 453 1019 463.5 c 128,-1,64
 1025 474 1025 474 1028 480 c 1,24,25
EndSplineSet
Fore
SplineSet
74 696 m 128,-1,1
 74 887 74 887 167.5 1048.5 c 128,-1,2
 261 1210 261 1210 422 1304 c 128,-1,3
 583 1398 583 1398 774 1398 c 128,-1,4
 965 1398 965 1398 1126.5 1304 c 128,-1,5
 1288 1210 1288 1210 1382 1048.5 c 128,-1,6
 1476 887 1476 887 1476 696 c 128,-1,7
 1476 505 1476 505 1382 344 c 128,-1,8
 1288 183 1288 183 1126.5 89.5 c 128,-1,9
 965 -4 965 -4 774 -4 c 128,-1,10
 583 -4 583 -4 422 89.5 c 128,-1,11
 261 183 261 183 167.5 344 c 128,-1,0
 74 505 74 505 74 696 c 128,-1,1
140 696 m 128,-1,13
 140 524 140 524 225 378 c 128,-1,14
 310 232 310 232 456 147 c 128,-1,15
 602 62 602 62 774 62 c 128,-1,16
 946 62 946 62 1092.5 147 c 128,-1,17
 1239 232 1239 232 1324.5 378 c 128,-1,18
 1410 524 1410 524 1410 696 c 128,-1,19
 1410 868 1410 868 1324.5 1014.5 c 128,-1,20
 1239 1161 1239 1161 1092.5 1246.5 c 128,-1,21
 946 1332 946 1332 774 1332 c 128,-1,22
 602 1332 602 1332 456 1246.5 c 128,-1,23
 310 1161 310 1161 225 1014.5 c 128,-1,12
 140 868 140 868 140 696 c 128,-1,13
1028 480 m 1,24,25
 1102 438 l 1,26,-1
 1091 418 l 2,27,28
 1080 398 1080 398 1053.5 369 c 128,-1,29
 1027 340 1027 340 991.5 311 c 128,-1,30
 956 282 956 282 897.5 262 c 128,-1,31
 839 242 839 242 772 242 c 0,32,33
 700 242 700 242 632 272.5 c 128,-1,34
 564 303 564 303 510 358.5 c 128,-1,35
 456 414 456 414 423 502.5 c 128,-1,36
 390 591 390 591 390 698 c 0,37,38
 390 797 390 797 423 880.5 c 128,-1,39
 456 964 456 964 510.5 1017.5 c 128,-1,40
 565 1071 565 1071 633 1100.5 c 128,-1,41
 701 1130 701 1130 772 1130 c 0,42,43
 823 1130 823 1130 870 1120.5 c 128,-1,44
 917 1111 917 1111 945 1100 c 128,-1,45
 973 1089 973 1089 998 1074 c 128,-1,46
 1023 1059 1023 1059 1029.5 1053 c 128,-1,47
 1036 1047 1036 1047 1040 1044 c 1,48,-1
 1060 894 l 1,49,-1
 1010 894 l 1,50,51
 995 970 995 970 934 1028 c 0,52,53
 874 1084 874 1084 772 1084 c 27,54,55
 647 1084 647 1084 562 991 c 0,56,57
 476 896 476 896 476 722 c 0,58,59
 476 550 476 550 562 439 c 128,-1,60
 648 328 648 328 782 328 c 0,61,62
 830 328 830 328 873.5 344.5 c 128,-1,63
 917 361 917 361 943 381 c 128,-1,64
 969 401 969 401 991 427 c 128,-1,65
 1013 453 1013 453 1019 463.5 c 128,-1,66
 1025 474 1025 474 1028 480 c 1,24,25
EndSplineSet
Validated: 3073
EndChar

StartChar: currency
Encoding: 348 164 92
Width: 900
VWidth: 0
Flags: W
HStem: 434 48<329.674 535.562> 996 48<330.74 536.377>
VStem: 128 48<636.013 841.33> 690 50<631.424 846.277>
LayerCount: 2
Back
SplineSet
732 372 m 1,0,-1
 612 490 l 1,1,2
 530 431 530 431 434 434 c 1,3,4
 336 434 336 434 258 490 c 1,5,-1
 140 372 l 1,6,-1
 68 444 l 1,7,-1
 184 560 l 1,8,9
 128 638 128 638 128 738 c 0,10,11
 128 835 128 835 186 916 c 1,12,-1
 68 1036 l 1,13,-1
 140 1108 l 1,14,-1
 258 988 l 1,15,16
 336 1044 336 1044 434 1044 c 0,17,18
 534 1044 534 1044 612 988 c 1,19,-1
 732 1108 l 1,20,-1
 804 1036 l 1,21,-1
 684 916 l 1,22,23
 740 834 740 834 740 738 c 0,24,25
 740 640 740 640 684 562 c 1,26,-1
 804 444 l 1,27,-1
 732 372 l 1,0,-1
434 482 m 1,28,29
 536 484 536 484 613 560 c 128,-1,30
 690 636 690 636 690 738 c 0,31,32
 690 841 690 841 613.5 917.5 c 128,-1,33
 537 994 537 994 434 996 c 1,34,35
 330 994 330 994 254 918 c 128,-1,36
 178 842 178 842 176 738 c 1,37,38
 178 636 178 636 254.5 559.5 c 128,-1,39
 331 483 331 483 434 482 c 1,28,29
EndSplineSet
Fore
SplineSet
732 372 m 1,0,-1
 612 490 l 1,1,2
 532 434 532 434 434 434 c 129,-1,3
 336 434 336 434 258 490 c 1,4,-1
 140 372 l 1,5,-1
 68 444 l 1,6,-1
 184 560 l 1,7,8
 128 638 128 638 128 738 c 0,9,10
 128 835 128 835 186 916 c 1,11,-1
 68 1036 l 1,12,-1
 140 1108 l 1,13,-1
 258 988 l 1,14,15
 336 1044 336 1044 434 1044 c 0,16,17
 534 1044 534 1044 612 988 c 1,18,-1
 732 1108 l 1,19,-1
 804 1036 l 1,20,-1
 684 916 l 1,21,22
 740 834 740 834 740 738 c 0,23,24
 740 640 740 640 684 562 c 1,25,-1
 804 444 l 1,26,-1
 732 372 l 1,0,-1
434 482 m 1,27,28
 536 484 536 484 613 560 c 128,-1,29
 690 636 690 636 690 738 c 0,30,31
 690 841 690 841 613.5 917.5 c 128,-1,32
 537 994 537 994 434 996 c 1,33,34
 330 994 330 994 254 918 c 128,-1,35
 178 842 178 842 176 738 c 1,36,37
 178 636 178 636 254.5 559.5 c 128,-1,38
 331 483 331 483 434 482 c 1,27,28
EndSplineSet
Validated: 3073
EndChar

StartChar: d
Encoding: 349 100 93
Width: 954
VWidth: 0
Flags: W
HStem: -10 52<342.649 528.385 808.538 908> 758 102<302.46 591.686> 1360 40<570 665.521>
VStem: 92 108<186.389 639.723> 688 102<52.0355 187 190.941 663.044 734 1351.96>
LayerCount: 2
Back
SplineSet
688 0 m 1,0,-1
 688 187 l 1,1,2
 682 173 682 173 676.5 162 c 128,-1,3
 671 151 671 151 646 115 c 128,-1,4
 621 79 621 79 593.5 55.5 c 128,-1,5
 566 32 566 32 518.5 11 c 128,-1,6
 471 -10 471 -10 418 -10 c 0,7,8
 372 -10 372 -10 328 4 c 128,-1,9
 284 18 284 18 240.5 51.5 c 128,-1,10
 197 85 197 85 164.5 134 c 128,-1,11
 132 183 132 183 112 259.5 c 128,-1,12
 92 336 92 336 92 430 c 0,13,14
 92 525 92 525 113.5 601 c 128,-1,15
 135 677 135 677 169.5 724.5 c 128,-1,16
 204 772 204 772 250.5 803.5 c 128,-1,17
 297 835 297 835 343.5 847.5 c 128,-1,18
 390 860 390 860 438 860 c 0,19,20
 492 860 492 860 538 846.5 c 128,-1,21
 584 833 584 833 610 816.5 c 128,-1,22
 636 800 636 800 656 778 c 128,-1,23
 676 756 676 756 681 747.5 c 128,-1,24
 686 739 686 739 688 734 c 1,25,-1
 688 1262 l 2,26,27
 688 1289 688 1289 686 1302 c 128,-1,28
 684 1315 684 1315 673.5 1331 c 128,-1,29
 663 1347 663 1347 638 1353.5 c 128,-1,30
 613 1360 613 1360 570 1360 c 1,31,-1
 570 1400 l 1,32,-1
 790 1400 l 1,33,-1
 790 142 l 2,34,35
 790 115 790 115 792 102 c 128,-1,36
 794 89 794 89 804.5 73 c 128,-1,37
 815 57 815 57 840 50.5 c 128,-1,38
 865 44 865 44 908 44 c 1,39,-1
 908 0 l 1,40,-1
 688 0 l 1,0,-1
446 758 m 0,41,42
 321 758 321 758 260.5 667 c 128,-1,43
 200 576 200 576 200 418 c 0,44,45
 200 238 200 238 266 140 c 128,-1,46
 332 42 332 42 444 42 c 0,47,48
 498 42 498 42 546.5 76 c 128,-1,49
 595 110 595 110 624.5 158 c 128,-1,50
 654 206 654 206 671 253.5 c 128,-1,51
 688 301 688 301 688 332 c 2,52,-1
 688 564 l 2,53,54
 688 587 688 587 672 618.5 c 128,-1,55
 656 650 656 650 627.5 682 c 128,-1,56
 599 714 599 714 550.5 736 c 128,-1,57
 502 758 502 758 446 758 c 0,41,42
EndSplineSet
Fore
SplineSet
688 0 m 1,0,-1
 688 187 l 1,1,2
 682 173 682 173 676.5 162 c 128,-1,3
 671 151 671 151 646 115 c 128,-1,4
 621 79 621 79 593.5 55.5 c 128,-1,5
 566 32 566 32 518.5 11 c 128,-1,6
 471 -10 471 -10 418 -10 c 0,7,8
 372 -10 372 -10 328 4 c 128,-1,9
 284 18 284 18 240.5 51.5 c 128,-1,10
 197 85 197 85 164.5 134 c 128,-1,11
 132 183 132 183 112 259.5 c 128,-1,12
 92 336 92 336 92 430 c 0,13,14
 92 525 92 525 113.5 601 c 128,-1,15
 135 677 135 677 169.5 724.5 c 128,-1,16
 204 772 204 772 250.5 803.5 c 128,-1,17
 297 835 297 835 343.5 847.5 c 128,-1,18
 390 860 390 860 438 860 c 0,19,20
 492 860 492 860 538 846.5 c 128,-1,21
 584 833 584 833 610 816.5 c 128,-1,22
 636 800 636 800 656 778 c 128,-1,23
 676 756 676 756 681 747.5 c 128,-1,24
 686 739 686 739 688 734 c 1,25,-1
 688 1262 l 2,26,27
 688 1289 688 1289 686 1302 c 128,-1,28
 684 1315 684 1315 673.5 1331 c 128,-1,29
 663 1347 663 1347 638 1353.5 c 128,-1,30
 613 1360 613 1360 570 1360 c 1,31,-1
 570 1400 l 1,32,-1
 790 1400 l 1,33,-1
 790 142 l 2,34,35
 790 115 790 115 792 102 c 128,-1,36
 794 89 794 89 804.5 73 c 128,-1,37
 815 57 815 57 840 50.5 c 128,-1,38
 865 44 865 44 908 44 c 1,39,-1
 908 0 l 1,40,-1
 688 0 l 1,0,-1
446 758 m 0,41,42
 321 758 321 758 260.5 667 c 128,-1,43
 200 576 200 576 200 418 c 0,44,45
 200 238 200 238 266 140 c 128,-1,46
 332 42 332 42 444 42 c 0,47,48
 498 42 498 42 546.5 76 c 128,-1,49
 595 110 595 110 624.5 158 c 128,-1,50
 654 206 654 206 671 253.5 c 128,-1,51
 688 301 688 301 688 332 c 2,52,-1
 688 564 l 2,53,54
 688 587 688 587 672 618.5 c 128,-1,55
 656 650 656 650 627.5 682 c 128,-1,56
 599 714 599 714 550.5 736 c 128,-1,57
 502 758 502 758 446 758 c 0,41,42
EndSplineSet
Validated: 19457
EndChar

StartChar: degree
Encoding: 350 176 94
Width: 606
VWidth: 0
Flags: W
HStem: 1032 56<200.932 399.068> 1476 56<200.932 399.068>
VStem: 50 56<1182.93 1381.07> 494 56<1182.93 1381.07>
LayerCount: 2
Back
SplineSet
50 1282 m 128,-1,1
 50 1386 50 1386 123 1459 c 128,-1,2
 196 1532 196 1532 300 1532 c 128,-1,3
 404 1532 404 1532 477 1459 c 128,-1,4
 550 1386 550 1386 550 1282 c 128,-1,5
 550 1178 550 1178 477 1105 c 128,-1,6
 404 1032 404 1032 300 1032 c 128,-1,7
 196 1032 196 1032 123 1105 c 128,-1,0
 50 1178 50 1178 50 1282 c 128,-1,1
106 1282 m 128,-1,9
 106 1202 106 1202 163 1145 c 128,-1,10
 220 1088 220 1088 300 1088 c 128,-1,11
 380 1088 380 1088 437 1145 c 128,-1,12
 494 1202 494 1202 494 1282 c 128,-1,13
 494 1362 494 1362 437 1419 c 128,-1,14
 380 1476 380 1476 300 1476 c 128,-1,15
 220 1476 220 1476 163 1419 c 128,-1,8
 106 1362 106 1362 106 1282 c 128,-1,9
EndSplineSet
Fore
SplineSet
50 1282 m 128,-1,1
 50 1386 50 1386 123 1459 c 128,-1,2
 196 1532 196 1532 300 1532 c 128,-1,3
 404 1532 404 1532 477 1459 c 128,-1,4
 550 1386 550 1386 550 1282 c 128,-1,5
 550 1178 550 1178 477 1105 c 128,-1,6
 404 1032 404 1032 300 1032 c 128,-1,7
 196 1032 196 1032 123 1105 c 128,-1,0
 50 1178 50 1178 50 1282 c 128,-1,1
106 1282 m 128,-1,9
 106 1202 106 1202 163 1145 c 128,-1,10
 220 1088 220 1088 300 1088 c 128,-1,11
 380 1088 380 1088 437 1145 c 128,-1,12
 494 1202 494 1202 494 1282 c 128,-1,13
 494 1362 494 1362 437 1419 c 128,-1,14
 380 1476 380 1476 300 1476 c 128,-1,15
 220 1476 220 1476 163 1419 c 128,-1,8
 106 1362 106 1362 106 1282 c 128,-1,9
EndSplineSet
Validated: 19457
EndChar

StartChar: dieresis
Encoding: 351 168 95
Width: 864
VWidth: 0
Flags: W
HStem: 1078 146<239.658 340.342 517.658 619.311>
VStem: 218 145<1101.66 1202.4> 496 146<1099.66 1201.31>
LayerCount: 2
Back
SplineSet
218 1152 m 128,-1,1
 218 1182 218 1182 239 1204 c 128,-1,2
 260 1226 260 1226 290 1224 c 128,-1,3
 320 1222 320 1222 341 1203 c 128,-1,4
 362 1184 362 1184 363 1153 c 128,-1,5
 364 1122 364 1122 342 1101 c 128,-1,6
 320 1080 320 1080 290 1080 c 128,-1,7
 260 1080 260 1080 239 1101 c 128,-1,0
 218 1122 218 1122 218 1152 c 128,-1,1
496 1150 m 128,-1,9
 496 1180 496 1180 517 1202 c 128,-1,10
 538 1224 538 1224 568 1224 c 128,-1,11
 598 1224 598 1224 620 1202 c 128,-1,12
 642 1180 642 1180 642 1150 c 128,-1,13
 642 1120 642 1120 620 1099 c 128,-1,14
 598 1078 598 1078 568 1078 c 128,-1,15
 538 1078 538 1078 517 1099 c 128,-1,8
 496 1120 496 1120 496 1150 c 128,-1,9
EndSplineSet
Fore
SplineSet
218 1152 m 128,-1,1
 218 1182 218 1182 239 1204 c 128,-1,2
 260 1226 260 1226 290 1224 c 128,-1,3
 320 1222 320 1222 341 1203 c 128,-1,4
 362 1184 362 1184 363 1153 c 128,-1,5
 364 1122 364 1122 342 1101 c 128,-1,6
 320 1080 320 1080 290 1080 c 128,-1,7
 260 1080 260 1080 239 1101 c 128,-1,0
 218 1122 218 1122 218 1152 c 128,-1,1
496 1150 m 128,-1,9
 496 1180 496 1180 517 1202 c 128,-1,10
 538 1224 538 1224 568 1224 c 128,-1,11
 598 1224 598 1224 620 1202 c 128,-1,12
 642 1180 642 1180 642 1150 c 128,-1,13
 642 1120 642 1120 620 1099 c 128,-1,14
 598 1078 598 1078 568 1078 c 128,-1,15
 538 1078 538 1078 517 1099 c 128,-1,8
 496 1120 496 1120 496 1150 c 128,-1,9
EndSplineSet
Validated: 19457
EndChar

StartChar: divide
Encoding: 352 247 96
Width: 892
VWidth: 0
Flags: W
HStem: 34 180<376.815 503.185> 382 94<52 844> 646 180<376.815 503.185>
VStem: 350 180<60.8154 187.185 672.815 799.185>
LayerCount: 2
Back
SplineSet
844 382 m 1,0,-1
 52 382 l 1,1,-1
 52 476 l 1,2,-1
 844 476 l 1,3,-1
 844 382 l 1,0,-1
350 736 m 132,-1,5
 350 774 350 774 376 800 c 132,-1,6
 402 826 402 826 440 826 c 132,-1,7
 478 826 478 826 504 800 c 132,-1,8
 530 774 530 774 530 736 c 132,-1,9
 530 698 530 698 504 672 c 132,-1,10
 478 646 478 646 440 646 c 132,-1,11
 402 646 402 646 376 672 c 132,-1,4
 350 698 350 698 350 736 c 132,-1,5
350 124 m 128,-1,13
 350 162 350 162 376 188 c 128,-1,14
 402 214 402 214 440 214 c 128,-1,15
 478 214 478 214 504 188 c 128,-1,16
 530 162 530 162 530 124 c 128,-1,17
 530 86 530 86 504 60 c 128,-1,18
 478 34 478 34 440 34 c 128,-1,19
 402 34 402 34 376 60 c 128,-1,12
 350 86 350 86 350 124 c 128,-1,13
EndSplineSet
Fore
SplineSet
844 382 m 1,0,-1
 52 382 l 1,1,-1
 52 476 l 1,2,-1
 844 476 l 1,3,-1
 844 382 l 1,0,-1
350 736 m 132,-1,5
 350 774 350 774 376 800 c 132,-1,6
 402 826 402 826 440 826 c 132,-1,7
 478 826 478 826 504 800 c 132,-1,8
 530 774 530 774 530 736 c 132,-1,9
 530 698 530 698 504 672 c 132,-1,10
 478 646 478 646 440 646 c 132,-1,11
 402 646 402 646 376 672 c 132,-1,4
 350 698 350 698 350 736 c 132,-1,5
350 124 m 128,-1,13
 350 162 350 162 376 188 c 128,-1,14
 402 214 402 214 440 214 c 128,-1,15
 478 214 478 214 504 188 c 128,-1,16
 530 162 530 162 530 124 c 128,-1,17
 530 86 530 86 504 60 c 128,-1,18
 478 34 478 34 440 34 c 128,-1,19
 402 34 402 34 376 60 c 128,-1,12
 350 86 350 86 350 124 c 128,-1,13
EndSplineSet
Validated: 19457
EndChar

StartChar: dollar
Encoding: 353 36 97
Width: 956
VWidth: 0
Flags: W
HStem: -30 21G<410 514> 75 63<305.742 410 514 629.496> 1259 62<313.828 410 514 590.472> 1410 20G<410 514>
VStem: 98 112<911.967 1165.66> 98 58<340 360> 410 104<-30 79.775 138 613 795 1259 1315.3 1430> 720 58<1040 1059> 744 118<235.926 479.924>
LayerCount: 2
Back
SplineSet
410 1430 m 1,0,-1
 514 1430 l 1,1,-1
 514 1321 l 1,2,3
 561 1317 561 1317 606 1304 c 128,-1,4
 651 1291 651 1291 679 1278 c 128,-1,5
 707 1265 707 1265 733 1248.5 c 128,-1,6
 759 1232 759 1232 766.5 1226 c 128,-1,7
 774 1220 774 1220 778 1216 c 1,8,-1
 778 1040 l 1,9,-1
 720 1040 l 1,10,-1
 715.5 1059 l 2,11,12
 711 1078 711 1078 696.5 1106.5 c 128,-1,13
 682 1135 682 1135 660.5 1165 c 128,-1,14
 639 1195 639 1195 600.5 1221.5 c 128,-1,15
 562 1248 562 1248 514 1259 c 1,16,-1
 514 742 l 1,17,18
 563 718 563 718 588 705 c 128,-1,19
 613 692 613 692 656.5 667.5 c 128,-1,20
 700 643 700 643 723.5 624.5 c 128,-1,21
 747 606 747 606 777.5 577.5 c 128,-1,22
 808 549 808 549 823.5 522.5 c 128,-1,23
 839 496 839 496 850.5 461 c 128,-1,24
 862 426 862 426 862 388 c 0,25,26
 862 317 862 317 831 259 c 128,-1,27
 800 201 800 201 748.5 164.5 c 128,-1,28
 697 128 697 128 637.5 106 c 128,-1,29
 578 84 578 84 514 77 c 1,30,-1
 514 -30 l 1,31,-1
 410 -30 l 1,32,-1
 410 75 l 1,33,34
 328 81 328 81 246.5 109.5 c 128,-1,35
 165 138 165 138 138.5 153 c 128,-1,36
 112 168 112 168 98 178 c 1,37,-1
 98 360 l 1,38,-1
 156 360 l 1,39,-1
 160.5 340 l 2,40,41
 165 320 165 320 181.5 290.5 c 128,-1,42
 198 261 198 261 223.5 230 c 128,-1,43
 249 199 249 199 298 173 c 128,-1,44
 347 147 347 147 410 138 c 1,45,-1
 410 664 l 1,46,47
 353 692 353 692 316 713 c 128,-1,48
 279 734 279 734 234 766.5 c 128,-1,49
 189 799 189 799 162.5 831 c 128,-1,50
 136 863 136 863 117.5 908 c 128,-1,51
 99 953 99 953 98 1004 c 0,52,53
 96 1126 96 1126 180 1216 c 128,-1,54
 264 1306 264 1306 410 1321 c 1,55,-1
 410 1430 l 1,0,-1
744 354 m 0,56,57
 744 399 744 399 726.5 437 c 128,-1,58
 709 475 709 475 674.5 506.5 c 128,-1,59
 640 538 640 538 603.5 561.5 c 128,-1,60
 567 585 567 585 514 613 c 1,61,-1
 514 136 l 1,62,63
 624 147 624 147 684 211 c 128,-1,64
 744 275 744 275 744 354 c 0,56,57
210 1034 m 4,65,66
 210 959 210 959 262 903 c 132,-1,67
 314 847 314 847 410 795 c 5,68,-1
 410 1263 l 5,69,70
 324 1251 324 1251 267 1189.5 c 132,-1,71
 210 1128 210 1128 210 1034 c 4,65,66
EndSplineSet
Fore
SplineSet
410 1430 m 1,0,-1
 514 1430 l 1,1,-1
 514 1321 l 1,2,3
 561 1317 561 1317 606 1304 c 128,-1,4
 651 1291 651 1291 679 1278 c 128,-1,5
 707 1265 707 1265 733 1248.5 c 128,-1,6
 759 1232 759 1232 766.5 1226 c 128,-1,7
 774 1220 774 1220 778 1216 c 1,8,-1
 778 1040 l 1,9,-1
 720 1040 l 1,10,-1
 716 1059 l 2,11,12
 714 1072 714 1072 696 1106 c 0,13,14
 682 1133 682 1133 660 1165 c 0,15,16
 640 1194 640 1194 600 1222 c 0,17,18
 563 1248 563 1248 514 1259 c 1,19,-1
 514 742 l 1,20,21
 563 718 563 718 588 705 c 128,-1,22
 613 692 613 692 656.5 667.5 c 128,-1,23
 700 643 700 643 723.5 624.5 c 128,-1,24
 747 606 747 606 777.5 577.5 c 128,-1,25
 808 549 808 549 823.5 522.5 c 128,-1,26
 839 496 839 496 850.5 461 c 128,-1,27
 862 426 862 426 862 388 c 0,28,29
 862 317 862 317 831 259 c 128,-1,30
 800 201 800 201 748.5 164.5 c 128,-1,31
 697 128 697 128 637.5 106 c 128,-1,32
 578 84 578 84 514 77 c 1,33,-1
 514 -30 l 1,34,-1
 410 -30 l 1,35,-1
 410 75 l 1,36,37
 328 81 328 81 246.5 109.5 c 128,-1,38
 165 138 165 138 138.5 153 c 128,-1,39
 112 168 112 168 98 178 c 1,40,-1
 98 360 l 1,41,-1
 156 360 l 1,42,-1
 160 340 l 2,43,44
 163 324 163 324 182 290 c 0,45,46
 199 260 199 260 224 230 c 0,47,48
 249 199 249 199 298 173 c 128,-1,49
 347 147 347 147 410 138 c 1,50,-1
 410 664 l 1,51,52
 353 692 353 692 316 713 c 0,53,54
 271 739 271 739 234 766 c 0,55,56
 192 797 192 797 162 831 c 0,57,58
 137 859 137 859 116 908 c 0,59,60
 98 951 98 951 98 1011 c 27,61,62
 98 1125 98 1125 180 1216 c 0,63,64
 264 1306 264 1306 410 1321 c 1,65,-1
 410 1430 l 1,0,-1
744 354 m 0,66,67
 744 399 744 399 726.5 437 c 128,-1,68
 709 475 709 475 674.5 506.5 c 128,-1,69
 640 538 640 538 603.5 561.5 c 128,-1,70
 567 585 567 585 514 613 c 1,71,-1
 514 136 l 1,72,73
 624 147 624 147 684 211 c 128,-1,74
 744 275 744 275 744 354 c 0,66,67
210 1034 m 0,75,76
 210 959 210 959 262 903 c 128,-1,77
 314 847 314 847 410 795 c 1,78,-1
 410 1263 l 1,79,80
 324 1251 324 1251 267 1189.5 c 128,-1,81
 210 1128 210 1128 210 1034 c 0,75,76
EndSplineSet
Validated: 3073
EndChar

StartChar: dotaccent
Encoding: 354 729 98
Width: 864
VWidth: 0
Flags: W
HStem: 1112 146<371.658 473.311>
VStem: 350 146<1133.66 1235.31>
LayerCount: 2
Back
SplineSet
350 1184 m 128,-1,1
 350 1214 350 1214 371 1236 c 132,-1,2
 392 1258 392 1258 422 1258 c 132,-1,3
 452 1258 452 1258 474 1236 c 128,-1,4
 496 1214 496 1214 496 1184 c 128,-1,5
 496 1154 496 1154 474 1133 c 128,-1,6
 452 1112 452 1112 422 1112 c 128,-1,7
 392 1112 392 1112 371 1133 c 128,-1,0
 350 1154 350 1154 350 1184 c 128,-1,1
EndSplineSet
Fore
SplineSet
350 1184 m 128,-1,1
 350 1214 350 1214 371 1236 c 132,-1,2
 392 1258 392 1258 422 1258 c 132,-1,3
 452 1258 452 1258 474 1236 c 128,-1,4
 496 1214 496 1214 496 1184 c 128,-1,5
 496 1154 496 1154 474 1133 c 128,-1,6
 452 1112 452 1112 422 1112 c 128,-1,7
 392 1112 392 1112 371 1133 c 128,-1,0
 350 1154 350 1154 350 1184 c 128,-1,1
EndSplineSet
Validated: 19457
EndChar

StartChar: dotlessi
Encoding: 355 305 99
Width: 446
VWidth: 0
Flags: W
HStem: 0 21G<206 308> 820 42<88 184.447>
VStem: 206 102<0 811.964>
LayerCount: 2
Back
SplineSet
206 0 m 5,0,-1
 206 722 l 6,1,2
 206 749 206 749 204 762 c 132,-1,3
 202 775 202 775 191.5 791 c 132,-1,4
 181 807 181 807 156 813.5 c 132,-1,5
 131 820 131 820 88 820 c 5,6,-1
 88 862 l 5,7,-1
 308 862 l 5,8,-1
 308 0 l 5,9,-1
 206 0 l 5,0,-1
EndSplineSet
Fore
SplineSet
206 0 m 5,0,-1
 206 722 l 6,1,2
 206 749 206 749 204 762 c 132,-1,3
 202 775 202 775 191.5 791 c 132,-1,4
 181 807 181 807 156 813.5 c 132,-1,5
 131 820 131 820 88 820 c 5,6,-1
 88 862 l 5,7,-1
 308 862 l 5,8,-1
 308 0 l 5,9,-1
 206 0 l 5,0,-1
EndSplineSet
Validated: 19457
EndChar

StartChar: e
Encoding: 356 101 100
Width: 876
VWidth: 0
Flags: W
HStem: 0 100<325.129 622.013> 496 40<206 686> 822 40<357.358 543.893>
VStem: 92 109<239.304 496 536 651.229> 682.5 108.5<536 704.117>
LayerCount: 2
Back
SplineSet
450 862 m 0,0,1
 509 862 509 862 558 849 c 128,-1,2
 607 836 607 836 641 816 c 128,-1,3
 675 796 675 796 701.5 767 c 128,-1,4
 728 738 728 738 743.5 709.5 c 128,-1,5
 759 681 759 681 770 648 c 128,-1,6
 781 615 781 615 785 591 c 128,-1,7
 789 567 789 567 791 542 c 128,-1,8
 793 517 793 517 792.5 509 c 128,-1,9
 792 501 792 501 792 496 c 1,10,-1
 202 496 l 1,11,12
 193 304 193 304 267 202 c 128,-1,13
 341 100 341 100 480 100 c 0,14,15
 520 100 520 100 560.5 115 c 128,-1,16
 601 130 601 130 628 148.5 c 128,-1,17
 655 167 655 167 680 191 c 128,-1,18
 705 215 705 215 712.5 224.5 c 128,-1,19
 720 234 720 234 724 240 c 1,20,-1
 794 178 l 1,21,-1
 781 159.5 l 2,22,23
 768 141 768 141 739.5 115 c 128,-1,24
 711 89 711 89 673.5 63 c 128,-1,25
 636 37 636 37 579 18.5 c 128,-1,26
 522 0 522 0 460 0 c 0,27,28
 297 0 297 0 194.5 124 c 128,-1,29
 92 248 92 248 92 432 c 0,30,31
 92 622 92 622 193 742 c 128,-1,32
 294 862 294 862 450 862 c 0,0,1
206 536 m 5,33,34
 686 536 l 5,35,36
 686 554 686 554 682.5 581 c 132,-1,37
 679 608 679 608 664.5 652.5 c 132,-1,38
 650 697 650 697 626.5 733 c 132,-1,39
 603 769 603 769 557 795.5 c 132,-1,40
 511 822 511 822 450 822 c 4,41,42
 390 822 390 822 343.5 795 c 132,-1,43
 297 768 297 768 272.5 732.5 c 132,-1,44
 248 697 248 697 232 652 c 132,-1,45
 216 607 216 607 211.5 581 c 132,-1,46
 207 555 207 555 206 536 c 5,33,34
EndSplineSet
Fore
SplineSet
450 862 m 0,0,1
 509 862 509 862 558 849 c 128,-1,2
 607 836 607 836 641 816 c 128,-1,3
 675 796 675 796 701.5 767 c 128,-1,4
 728 738 728 738 743.5 709.5 c 128,-1,5
 759 681 759 681 770 648 c 128,-1,6
 781 615 781 615 785 591 c 128,-1,7
 789 567 789 567 791 542 c 128,-1,8
 793 517 793 517 792.5 509 c 128,-1,9
 792 501 792 501 792 496 c 1,10,-1
 202 496 l 1,11,12
 201 475 201 475 201 455 c 0,13,14
 201 293 201 293 267 202 c 0,15,16
 341 100 341 100 480 100 c 0,17,18
 520 100 520 100 560.5 115 c 128,-1,19
 601 130 601 130 628 148.5 c 128,-1,20
 655 167 655 167 680 191 c 128,-1,21
 705 215 705 215 712.5 224.5 c 128,-1,22
 720 234 720 234 724 240 c 1,23,-1
 794 178 l 1,24,-1
 781 160 l 2,25,26
 768 141 768 141 739.5 115 c 128,-1,27
 711 89 711 89 673.5 63 c 128,-1,28
 636 37 636 37 579 18.5 c 128,-1,29
 522 0 522 0 460 0 c 0,30,31
 297 0 297 0 194.5 124 c 128,-1,32
 92 248 92 248 92 432 c 0,33,34
 92 622 92 622 193 742 c 128,-1,35
 294 862 294 862 450 862 c 0,0,1
206 536 m 1,36,-1
 686 536 l 1,37,38
 686 554 686 554 682.5 581 c 128,-1,39
 679 608 679 608 664.5 652.5 c 128,-1,40
 650 697 650 697 626.5 733 c 128,-1,41
 603 769 603 769 557 795.5 c 128,-1,42
 511 822 511 822 450 822 c 0,43,44
 390 822 390 822 343.5 795 c 128,-1,45
 297 768 297 768 272.5 732.5 c 128,-1,46
 248 697 248 697 232 652 c 128,-1,47
 216 607 216 607 211.5 581 c 128,-1,48
 207 555 207 555 206 536 c 1,36,-1
EndSplineSet
Validated: 3073
EndChar

StartChar: eight
Encoding: 361 56 105
Width: 1016
VWidth: 0
Flags: W
HStem: -16 108<337.229 683.44> 1366 44<398.818 620.127>
VStem: 110 120<195.576 472.34> 138 104<964.315 1235.97> 780 102<962.125 1232.7> 790 120<192.508 468.314>
LayerCount: 2
Back
SplineSet
508 1410 m 0,0,1
 600 1410 600 1410 674.5 1378 c 128,-1,2
 749 1346 749 1346 792 1296 c 128,-1,3
 835 1246 835 1246 857.5 1192 c 128,-1,4
 880 1138 880 1138 882 1086 c 0,5,6
 883 1041 883 1041 874 1000 c 128,-1,7
 865 959 865 959 845.5 926 c 128,-1,8
 826 893 826 893 807 867 c 128,-1,9
 788 841 788 841 758 816 c 128,-1,10
 728 791 728 791 709.5 777 c 128,-1,11
 691 763 691 763 659.5 742.5 c 128,-1,12
 628 722 628 722 620 716 c 1,13,14
 910 559 910 559 910 334 c 0,15,16
 910 244 910 244 877 175 c 128,-1,17
 844 106 844 106 787 65.5 c 128,-1,18
 730 25 730 25 660 4.5 c 128,-1,19
 590 -16 590 -16 510 -16 c 0,20,21
 432 -16 432 -16 362.5 4.5 c 128,-1,22
 293 25 293 25 235.5 65.5 c 128,-1,23
 178 106 178 106 144 175.5 c 128,-1,24
 110 245 110 245 110 334 c 0,25,26
 110 454 110 454 184.5 545.5 c 128,-1,27
 259 637 259 637 400 716 c 1,28,29
 390 723 390 723 354.5 747 c 128,-1,30
 319 771 319 771 296.5 787.5 c 128,-1,31
 274 804 274 804 240.5 837.5 c 128,-1,32
 207 871 207 871 187.5 903 c 128,-1,33
 168 935 168 935 153 983.5 c 128,-1,34
 138 1032 138 1032 138 1086 c 0,35,36
 138 1128 138 1128 152.5 1172 c 128,-1,37
 167 1216 167 1216 198 1258.5 c 128,-1,38
 229 1301 229 1301 272 1335 c 128,-1,39
 315 1369 315 1369 376.5 1389.5 c 128,-1,40
 438 1410 438 1410 508 1410 c 0,0,1
510 1366 m 0,41,42
 392 1366 392 1366 317 1288 c 128,-1,43
 242 1210 242 1210 242 1100 c 0,44,45
 242 1056 242 1056 260 1014.5 c 128,-1,46
 278 973 278 973 301.5 943.5 c 128,-1,47
 325 914 325 914 366.5 881 c 128,-1,48
 408 848 408 848 436 830.5 c 128,-1,49
 464 813 464 813 510 786 c 1,50,51
 548 808 548 808 570 822 c 128,-1,52
 592 836 592 836 629 862 c 128,-1,53
 666 888 666 888 688 911 c 128,-1,54
 710 934 710 934 734 964 c 128,-1,55
 758 994 758 994 769 1028.5 c 128,-1,56
 780 1063 780 1063 780 1100 c 0,57,58
 780 1209 780 1209 703 1287.5 c 128,-1,59
 626 1366 626 1366 510 1366 c 0,41,42
510 92 m 4,60,61
 633 92 633 92 711.5 157 c 132,-1,62
 790 222 790 222 790 334 c 4,63,64
 790 392 790 392 759.5 446 c 132,-1,65
 729 500 729 500 692.5 533.5 c 132,-1,66
 656 567 656 567 607.5 597 c 132,-1,67
 559 627 559 627 540 635.5 c 132,-1,68
 521 644 521 644 510 648 c 5,69,70
 481 636 l 6,71,72
 452 624 452 624 411 597 c 132,-1,73
 370 570 370 570 329 535 c 132,-1,74
 288 500 288 500 259 446 c 132,-1,75
 230 392 230 392 230 334 c 4,76,77
 230 227 230 227 307 159.5 c 132,-1,78
 384 92 384 92 510 92 c 4,60,61
EndSplineSet
Fore
SplineSet
508 1410 m 0,0,1
 600 1410 600 1410 674 1378 c 0,2,3
 748 1347 748 1347 792 1296 c 0,4,5
 835 1247 835 1247 858 1192 c 0,6,7
 882 1134 882 1134 882 1073 c 3,8,9
 882 1038 882 1038 875 1004 c 128,-1,10
 868 970 868 970 847 930 c 0,11,12
 826 891 826 891 801.5 862 c 128,-1,13
 777 833 777 833 752.5 812 c 128,-1,14
 728 791 728 791 709.5 777 c 128,-1,15
 691 763 691 763 659.5 742.5 c 128,-1,16
 628 722 628 722 620 716 c 1,17,18
 910 559 910 559 910 334 c 0,19,20
 910 244 910 244 877 175 c 128,-1,21
 844 106 844 106 787 65.5 c 128,-1,22
 730 25 730 25 660 4.5 c 128,-1,23
 590 -16 590 -16 510 -16 c 0,24,25
 432 -16 432 -16 362.5 4.5 c 128,-1,26
 293 25 293 25 235.5 65.5 c 128,-1,27
 178 106 178 106 144 175.5 c 128,-1,28
 110 245 110 245 110 334 c 0,29,30
 110 454 110 454 184.5 545.5 c 128,-1,31
 259 637 259 637 400 716 c 1,32,33
 390 723 390 723 354.5 747 c 128,-1,34
 319 771 319 771 296.5 787.5 c 128,-1,35
 274 804 274 804 240.5 837.5 c 128,-1,36
 207 871 207 871 187.5 903 c 128,-1,37
 168 935 168 935 153 983.5 c 128,-1,38
 138 1032 138 1032 138 1086 c 0,39,40
 138 1128 138 1128 152.5 1172 c 128,-1,41
 167 1216 167 1216 198 1258.5 c 128,-1,42
 229 1301 229 1301 272 1335 c 128,-1,43
 315 1369 315 1369 376.5 1389.5 c 128,-1,44
 438 1410 438 1410 508 1410 c 0,0,1
510 1366 m 0,45,46
 392 1366 392 1366 317 1288 c 128,-1,47
 242 1210 242 1210 242 1100 c 0,48,49
 242 1056 242 1056 260 1014.5 c 128,-1,50
 278 973 278 973 301.5 943.5 c 128,-1,51
 325 914 325 914 366.5 881 c 128,-1,52
 408 848 408 848 436 830.5 c 128,-1,53
 464 813 464 813 510 786 c 1,54,55
 548 808 548 808 570 822 c 128,-1,56
 592 836 592 836 625.5 859 c 128,-1,57
 659 882 659 882 683 904.5 c 128,-1,58
 707 927 707 927 734 960 c 0,59,60
 758 994 758 994 769 1028.5 c 128,-1,61
 780 1063 780 1063 780 1100 c 0,62,63
 780 1209 780 1209 703 1287.5 c 128,-1,64
 626 1366 626 1366 510 1366 c 0,45,46
510 92 m 0,65,66
 633 92 633 92 711.5 157 c 128,-1,67
 790 222 790 222 790 334 c 0,68,69
 790 392 790 392 759.5 446 c 128,-1,70
 729 500 729 500 692.5 533.5 c 128,-1,71
 656 567 656 567 607.5 597 c 128,-1,72
 559 627 559 627 540 635.5 c 128,-1,73
 521 644 521 644 510 648 c 1,74,-1
 481 636 l 2,75,76
 452 624 452 624 411 597 c 128,-1,77
 370 570 370 570 329 535 c 128,-1,78
 288 500 288 500 259 446 c 128,-1,79
 230 392 230 392 230 334 c 0,80,81
 230 227 230 227 307 159.5 c 128,-1,82
 384 92 384 92 510 92 c 0,65,66
EndSplineSet
Validated: 3073
EndChar

StartChar: emdash
Encoding: 362 8212 106
Width: 1522
VWidth: 0
Flags: W
HStem: 420 100<80 1450>
LayerCount: 2
Back
SplineSet
80 420 m 5,0,-1
 80 520 l 5,1,-1
 1450 520 l 5,2,-1
 1450 420 l 5,3,-1
 80 420 l 5,0,-1
EndSplineSet
Fore
SplineSet
80 420 m 5,0,-1
 80 520 l 5,1,-1
 1450 520 l 5,2,-1
 1450 420 l 5,3,-1
 80 420 l 5,0,-1
EndSplineSet
Validated: 19457
EndChar

StartChar: endash
Encoding: 363 8211 107
Width: 846
VWidth: 0
Flags: W
HStem: 420 100<80 768>
LayerCount: 2
Back
SplineSet
80 420 m 5,0,-1
 80 520 l 5,1,-1
 768 520 l 5,2,-1
 768 420 l 5,3,-1
 80 420 l 5,0,-1
EndSplineSet
Fore
SplineSet
80 420 m 5,0,-1
 80 520 l 5,1,-1
 768 520 l 5,2,-1
 768 420 l 5,3,-1
 80 420 l 5,0,-1
EndSplineSet
Validated: 19457
EndChar

StartChar: equal
Encoding: 364 61 108
Width: 886
VWidth: 0
Flags: W
HStem: 252 94<44 836> 504 94<44 836>
LayerCount: 2
Back
SplineSet
836 504 m 1,0,-1
 44 504 l 1,1,-1
 44 598 l 1,2,-1
 836 598 l 1,3,-1
 836 504 l 1,0,-1
836 252 m 5,4,-1
 44 252 l 5,5,-1
 44 346 l 5,6,-1
 836 346 l 5,7,-1
 836 252 l 5,4,-1
EndSplineSet
Fore
SplineSet
836 504 m 1,0,-1
 44 504 l 1,1,-1
 44 598 l 1,2,-1
 836 598 l 1,3,-1
 836 504 l 1,0,-1
836 252 m 5,4,-1
 44 252 l 5,5,-1
 44 346 l 5,6,-1
 836 346 l 5,7,-1
 836 252 l 5,4,-1
EndSplineSet
Validated: 19457
EndChar

StartChar: eth
Encoding: 365 240 109
Width: 966
VWidth: 0
Flags: MW
HStem: -28 106<324.872 623.651> 722 100<318.994 634.354> 1390 20G<320.957 384.5>
VStem: 92 114<213.879 601.479> 754 138<241.483 688.774>
DStem2: 252 1104 284 1032 0.912818 0.408366<0 254.244 355.687 582.618>
LayerCount: 2
Back
SplineSet
252 1104 m 1,0,-1
 484 1208 l 1,1,2
 441 1254 441 1254 396 1293 c 128,-1,3
 351 1332 351 1332 327.5 1348 c 2,4,-1
 304 1364 l 1,5,-1
 334 1410 l 1,6,7
 435 1350 435 1350 551 1237 c 1,8,-1
 784 1342 l 1,9,-1
 816 1270 l 1,10,-1
 609 1177 l 1,11,12
 892 868 892 868 892 510 c 0,13,14
 892 374 892 374 856.5 267.5 c 128,-1,15
 821 161 821 161 761.5 98.5 c 128,-1,16
 702 36 702 36 630 4 c 128,-1,17
 558 -28 558 -28 480 -28 c 0,18,19
 303 -28 303 -28 197.5 89 c 128,-1,20
 92 206 92 206 92 418 c 0,21,22
 92 499 92 499 115 567 c 128,-1,23
 138 635 138 635 176 681.5 c 128,-1,24
 214 728 214 728 263 760 c 128,-1,25
 312 792 312 792 363.5 807 c 128,-1,26
 415 822 415 822 466 822 c 0,27,28
 522 822 522 822 573 806 c 128,-1,29
 624 790 624 790 654.5 771 c 128,-1,30
 685 752 685 752 712 725 c 128,-1,31
 739 698 739 698 746.5 688 c 128,-1,32
 754 678 754 678 760 668 c 1,33,34
 715 930 715 930 538 1146 c 1,35,-1
 284 1032 l 1,36,-1
 252 1104 l 1,0,-1
754 420 m 0,37,38
 754 457 754 457 747.5 494 c 128,-1,39
 741 531 741 531 721 573.5 c 128,-1,40
 701 616 701 616 670.5 648 c 128,-1,41
 640 680 640 680 586 701 c 128,-1,42
 532 722 532 722 462 722 c 0,43,44
 350 722 350 722 278 640 c 128,-1,45
 206 558 206 558 206 418 c 0,46,47
 206 267 206 267 276 172.5 c 128,-1,48
 346 78 346 78 464 78 c 0,49,50
 530 78 530 78 581.5 100 c 128,-1,51
 633 122 633 122 664.5 157 c 128,-1,52
 696 192 696 192 717 238.5 c 128,-1,53
 738 285 738 285 746 329.5 c 128,-1,54
 754 374 754 374 754 420 c 0,37,38
EndSplineSet
Fore
SplineSet
252 1104 m 5,0,-1
 484 1208 l 1,1,2
 441 1254 441 1254 396 1293 c 128,-1,3
 351 1332 351 1332 327.5 1348 c 2,4,-1
 304 1364 l 1,5,-1
 334 1410 l 1,6,7
 435 1350 435 1350 551 1237 c 1,8,-1
 784 1342 l 5,9,-1
 816 1270 l 5,10,-1
 609 1177 l 1,11,12
 892 868 892 868 892 510 c 0,13,14
 892 374 892 374 856.5 267.5 c 128,-1,15
 821 161 821 161 761.5 98.5 c 128,-1,16
 702 36 702 36 630 4 c 128,-1,17
 558 -28 558 -28 480 -28 c 0,18,19
 303 -28 303 -28 197.5 89 c 128,-1,20
 92 206 92 206 92 418 c 0,21,22
 92 499 92 499 115 567 c 128,-1,23
 138 635 138 635 176 681.5 c 128,-1,24
 214 728 214 728 263 760 c 128,-1,25
 312 792 312 792 363.5 807 c 128,-1,26
 415 822 415 822 466 822 c 0,27,28
 522 822 522 822 573 806 c 128,-1,29
 624 790 624 790 654.5 771 c 128,-1,30
 685 752 685 752 712 725 c 128,-1,31
 739 698 739 698 746.5 688 c 128,-1,32
 754 678 754 678 760 668 c 1,33,34
 715 930 715 930 538 1146 c 1,35,-1
 284 1032 l 5,36,-1
 252 1104 l 5,0,-1
754 420 m 0,37,38
 754 457 754 457 747.5 494 c 128,-1,39
 741 531 741 531 721 573.5 c 128,-1,40
 701 616 701 616 670.5 648 c 128,-1,41
 640 680 640 680 586 701 c 128,-1,42
 532 722 532 722 462 722 c 0,43,44
 350 722 350 722 278 640 c 128,-1,45
 206 558 206 558 206 418 c 0,46,47
 206 267 206 267 276 172.5 c 128,-1,48
 346 78 346 78 464 78 c 0,49,50
 530 78 530 78 581.5 100 c 128,-1,51
 633 122 633 122 664.5 157 c 128,-1,52
 696 192 696 192 717 238.5 c 128,-1,53
 738 285 738 285 746 329.5 c 128,-1,54
 754 374 754 374 754 420 c 0,37,38
EndSplineSet
Validated: 19457
EndChar

StartChar: exclam
Encoding: 366 33 110
Width: 762
VWidth: 0
Flags: W
HStem: 0 180<324.815 451.185>
VStem: 298 180<26.8154 153.185> 324 130<435.855 1306>
LayerCount: 2
Back
SplineSet
454 1306 m 5,0,-1
 454 904 l 6,1,2
 454 776 454 776 410 312 c 5,3,-1
 366 312 l 5,4,-1
 355.5 431 l 6,5,6
 345 550 345 550 334.5 698 c 132,-1,7
 324 846 324 846 324 904 c 6,8,-1
 324 1306 l 5,9,-1
 454 1306 l 5,0,-1
298 90 m 128,-1,11
 298 128 298 128 324 154 c 128,-1,12
 350 180 350 180 388 180 c 128,-1,13
 426 180 426 180 452 154 c 128,-1,14
 478 128 478 128 478 90 c 128,-1,15
 478 52 478 52 452 26 c 128,-1,16
 426 0 426 0 388 0 c 128,-1,17
 350 0 350 0 324 26 c 128,-1,10
 298 52 298 52 298 90 c 128,-1,11
EndSplineSet
Fore
SplineSet
454 1306 m 5,0,-1
 454 904 l 6,1,2
 454 776 454 776 410 312 c 5,3,-1
 366 312 l 5,4,-1
 355.5 431 l 6,5,6
 345 550 345 550 334.5 698 c 132,-1,7
 324 846 324 846 324 904 c 6,8,-1
 324 1306 l 5,9,-1
 454 1306 l 5,0,-1
298 90 m 128,-1,11
 298 128 298 128 324 154 c 128,-1,12
 350 180 350 180 388 180 c 128,-1,13
 426 180 426 180 452 154 c 128,-1,14
 478 128 478 128 478 90 c 128,-1,15
 478 52 478 52 452 26 c 128,-1,16
 426 0 426 0 388 0 c 128,-1,17
 350 0 350 0 324 26 c 128,-1,10
 298 52 298 52 298 90 c 128,-1,11
EndSplineSet
Validated: 19457
EndChar

StartChar: exclamdown
Encoding: 367 161 111
Width: 762
VWidth: 0
Flags: W
HStem: 726 180<324.815 451.185>
VStem: 298 180<752.815 879.185> 324 130<-400 470.145>
LayerCount: 2
Back
SplineSet
454 -400 m 1,0,-1
 324 -400 l 1,1,-1
 324 2 l 2,2,3
 324 60 324 60 334.5 208 c 128,-1,4
 345 356 345 356 355.5 475 c 2,5,-1
 366 594 l 1,6,-1
 410 594 l 1,7,8
 454 130 454 130 454 2 c 2,9,-1
 454 -400 l 1,0,-1
298 816 m 128,-1,11
 298 854 298 854 324 880 c 128,-1,12
 350 906 350 906 388 906 c 128,-1,13
 426 906 426 906 452 880 c 128,-1,14
 478 854 478 854 478 816 c 128,-1,15
 478 778 478 778 452 752 c 128,-1,16
 426 726 426 726 388 726 c 128,-1,17
 350 726 350 726 324 752 c 128,-1,10
 298 778 298 778 298 816 c 128,-1,11
EndSplineSet
Fore
SplineSet
454 -400 m 1,0,-1
 324 -400 l 1,1,-1
 324 2 l 2,2,3
 324 60 324 60 334.5 208 c 128,-1,4
 345 356 345 356 355.5 475 c 2,5,-1
 366 594 l 1,6,-1
 410 594 l 1,7,8
 454 130 454 130 454 2 c 2,9,-1
 454 -400 l 1,0,-1
298 816 m 128,-1,11
 298 854 298 854 324 880 c 128,-1,12
 350 906 350 906 388 906 c 128,-1,13
 426 906 426 906 452 880 c 128,-1,14
 478 854 478 854 478 816 c 128,-1,15
 478 778 478 778 452 752 c 128,-1,16
 426 726 426 726 388 726 c 128,-1,17
 350 726 350 726 324 752 c 128,-1,10
 298 778 298 778 298 816 c 128,-1,11
EndSplineSet
Validated: 19457
EndChar

StartChar: f
Encoding: 368 102 112
Width: 574
VWidth: 0
Flags: W
HStem: 0 21G<200 302> 818 42<76 200 302 580> 1336 62<371.384 534.912>
VStem: 200 102<0 818 860 1233.5>
LayerCount: 2
Back
SplineSet
200 0 m 1,0,-1
 200 818 l 1,1,-1
 76 818 l 1,2,-1
 76 860 l 1,3,-1
 200 860 l 1,4,-1
 200 1042 l 2,5,6
 200 1194 200 1194 287 1296 c 128,-1,7
 374 1398 374 1398 484 1398 c 0,8,9
 522 1398 522 1398 553 1393.5 c 128,-1,10
 584 1389 584 1389 596 1384.5 c 2,11,-1
 608 1380 l 1,12,-1
 612 1240 l 1,13,-1
 582 1240 l 1,14,15
 561 1290 561 1290 523.5 1313 c 128,-1,16
 486 1336 486 1336 444 1336 c 0,17,18
 302 1336 302 1336 302 1098 c 2,19,-1
 302 860 l 1,20,-1
 580 860 l 1,21,-1
 580 818 l 1,22,-1
 302 818 l 1,23,-1
 302 0 l 1,24,-1
 200 0 l 1,0,-1
EndSplineSet
Fore
SplineSet
200 0 m 1,0,-1
 200 818 l 1,1,-1
 76 818 l 1,2,-1
 76 860 l 1,3,-1
 200 860 l 1,4,-1
 200 1042 l 2,5,6
 200 1194 200 1194 287 1296 c 128,-1,7
 374 1398 374 1398 484 1398 c 0,8,9
 522 1398 522 1398 553 1393.5 c 128,-1,10
 584 1389 584 1389 596 1384.5 c 2,11,-1
 608 1380 l 1,12,-1
 612 1240 l 1,13,-1
 582 1240 l 1,14,15
 561 1290 561 1290 523.5 1313 c 128,-1,16
 486 1336 486 1336 444 1336 c 0,17,18
 302 1336 302 1336 302 1098 c 2,19,-1
 302 860 l 1,20,-1
 580 860 l 1,21,-1
 580 818 l 1,22,-1
 302 818 l 1,23,-1
 302 0 l 1,24,-1
 200 0 l 1,0,-1
EndSplineSet
Validated: 19457
EndChar

StartChar: five
Encoding: 369 53 113
Width: 1030
VWidth: 0
Flags: W
HStem: -12 94<256.968 632.878> 742 109<280.781 606.767> 1290 110<314 804>
VStem: 782 122<232.196 577.201>
LayerCount: 2
Back
SplineSet
818 1400 m 5,0,-1
 804 1290 l 5,1,-1
 314 1290 l 5,2,-1
 278 820 l 5,3,4
 469 874 469 874 608 833.5 c 132,-1,5
 747 793 747 793 825.5 684 c 132,-1,6
 904 575 904 575 904 428 c 4,7,8
 904 320 904 320 869 234 c 132,-1,9
 834 148 834 148 773.5 95.5 c 132,-1,10
 713 43 713 43 636 15.5 c 132,-1,11
 559 -12 559 -12 472 -12 c 4,12,13
 406 -12 406 -12 340.5 5.5 c 132,-1,14
 275 23 275 23 231 44 c 132,-1,15
 187 65 187 65 146.5 92.5 c 132,-1,16
 106 120 106 120 93.5 130.5 c 132,-1,17
 81 141 81 141 74 148 c 5,18,-1
 100 188 l 5,19,-1
 115.5 177 l 6,20,21
 131 166 131 166 162.5 150.5 c 132,-1,22
 194 135 194 135 234 119.5 c 132,-1,23
 274 104 274 104 331.5 93 c 132,-1,24
 389 82 389 82 448 82 c 4,25,26
 606 82 606 82 694 173.5 c 132,-1,27
 782 265 782 265 782 416 c 4,28,29
 782 533 782 533 708 619 c 132,-1,30
 634 705 634 705 508.5 732 c 132,-1,31
 383 759 383 759 216 712 c 5,32,-1
 272 1400 l 5,33,-1
 818 1400 l 5,0,-1
EndSplineSet
Fore
SplineSet
818 1400 m 1,0,-1
 804 1290 l 1,1,-1
 314 1290 l 1,2,-1
 278 820 l 1,3,4
 387 851 387 851 479 851 c 0,5,6
 551 851 551 851 608 834 c 0,7,8
 748 792 748 792 826 684 c 0,9,10
 904 575 904 575 904 428 c 0,11,12
 904 320 904 320 869 234 c 128,-1,13
 834 148 834 148 773.5 95.5 c 128,-1,14
 713 43 713 43 636 15.5 c 128,-1,15
 559 -12 559 -12 472 -12 c 0,16,17
 406 -12 406 -12 340.5 5.5 c 128,-1,18
 275 23 275 23 231 44 c 128,-1,19
 187 65 187 65 146.5 92.5 c 128,-1,20
 106 120 106 120 93.5 130.5 c 128,-1,21
 81 141 81 141 74 148 c 1,22,-1
 100 188 l 1,23,-1
 116 177 l 2,24,25
 131 166 131 166 162.5 150.5 c 128,-1,26
 194 135 194 135 234 119.5 c 128,-1,27
 274 104 274 104 331.5 93 c 128,-1,28
 389 82 389 82 448 82 c 0,29,30
 606 82 606 82 694 173.5 c 128,-1,31
 782 265 782 265 782 416 c 0,32,33
 782 533 782 533 708 619 c 0,34,35
 635 704 635 704 508 732 c 0,36,37
 463 742 463 742 411 742 c 0,38,39
 321 742 321 742 216 712 c 1,40,-1
 272 1400 l 1,41,-1
 818 1400 l 1,0,-1
EndSplineSet
Validated: 3073
EndChar

StartChar: fl
Encoding: 370 64258 114
Width: 980
VWidth: 0
Flags: W
HStem: 0 21G<202 304 756 858> 822 38<78 202 304 582> 1360 40<414.538 733.521>
VStem: 202 102<0 822 860 1234.97> 756 102<0 1351.96>
LayerCount: 2
Back
SplineSet
756 0 m 1,0,-1
 756 1262 l 2,1,2
 756 1289 756 1289 754 1302 c 128,-1,3
 752 1315 752 1315 741.5 1331 c 128,-1,4
 731 1347 731 1347 706 1353.5 c 128,-1,5
 681 1360 681 1360 638 1360 c 2,6,-1
 522 1360 l 2,7,8
 402 1360 402 1360 353 1291.5 c 128,-1,9
 304 1223 304 1223 304 1098 c 2,10,-1
 304 860 l 1,11,-1
 582 860 l 1,12,-1
 582 822 l 1,13,-1
 304 822 l 1,14,-1
 304 0 l 1,15,-1
 202 0 l 1,16,-1
 202 822 l 1,17,-1
 78 822 l 1,18,-1
 78 860 l 1,19,-1
 202 860 l 1,20,-1
 202 1042 l 2,21,22
 202 1194 202 1194 289 1297 c 128,-1,23
 376 1400 376 1400 486 1400 c 2,24,-1
 858 1400 l 1,25,-1
 858 0 l 1,26,-1
 756 0 l 1,0,-1
EndSplineSet
Fore
SplineSet
756 0 m 1,0,-1
 756 1262 l 2,1,2
 756 1289 756 1289 754 1302 c 128,-1,3
 752 1315 752 1315 741.5 1331 c 128,-1,4
 731 1347 731 1347 706 1353.5 c 128,-1,5
 681 1360 681 1360 638 1360 c 2,6,-1
 522 1360 l 2,7,8
 402 1360 402 1360 353 1291.5 c 128,-1,9
 304 1223 304 1223 304 1098 c 2,10,-1
 304 860 l 1,11,-1
 582 860 l 1,12,-1
 582 822 l 1,13,-1
 304 822 l 1,14,-1
 304 0 l 1,15,-1
 202 0 l 1,16,-1
 202 822 l 1,17,-1
 78 822 l 1,18,-1
 78 860 l 1,19,-1
 202 860 l 1,20,-1
 202 1042 l 2,21,22
 202 1194 202 1194 289 1297 c 128,-1,23
 376 1400 376 1400 486 1400 c 2,24,-1
 858 1400 l 1,25,-1
 858 0 l 1,26,-1
 756 0 l 1,0,-1
EndSplineSet
Validated: 19457
EndChar

StartChar: four
Encoding: 371 52 115
Width: 1110
VWidth: 0
Flags: W
HStem: 0 21G<710 816> 436 110<168 710 816 1042> 1380 20G<736.695 816>
VStem: 710 106<0 436 546 1250>
LayerCount: 2
Back
SplineSet
710 0 m 1,0,-1
 710 436 l 1,1,-1
 74 436 l 1,2,-1
 74 514 l 1,3,-1
 752 1400 l 1,4,-1
 816 1400 l 1,5,-1
 816 546 l 1,6,-1
 1042 546 l 1,7,-1
 1042 436 l 1,8,-1
 816 436 l 1,9,-1
 816 0 l 1,10,-1
 710 0 l 1,0,-1
710 1250 m 5,11,-1
 168 546 l 5,12,-1
 710 546 l 5,13,-1
 710 1250 l 5,11,-1
EndSplineSet
Fore
SplineSet
710 0 m 1,0,-1
 710 436 l 1,1,-1
 74 436 l 1,2,-1
 74 514 l 1,3,-1
 752 1400 l 1,4,-1
 816 1400 l 1,5,-1
 816 546 l 1,6,-1
 1042 546 l 1,7,-1
 1042 436 l 1,8,-1
 816 436 l 1,9,-1
 816 0 l 1,10,-1
 710 0 l 1,0,-1
710 1250 m 5,11,-1
 168 546 l 5,12,-1
 710 546 l 5,13,-1
 710 1250 l 5,11,-1
EndSplineSet
Validated: 19457
EndChar

StartChar: g
Encoding: 372 103 116
Width: 898
VWidth: 0
Flags: W
HStem: -412 40<303.823 592.67> 0 100<243.592 668.988> 244 40<335.629 530.07> 776 100<288.923 567.259 707.097 830>
VStem: 72 100<-294.684 -59.9302> 122 86<112.951 224.204 395.021 695.679> 664 86<401.949 687.077> 730 100<-279.998 -57.5594>
LayerCount: 2
Back
SplineSet
118 560 m 0,0,1
 118 690 118 690 211 783 c 128,-1,2
 304 876 304 876 434 876 c 0,3,4
 499 876 499 876 561 849 c 1,5,-1
 830 878 l 1,6,-1
 830 782 l 1,7,-1
 659 782 l 1,8,9
 750 689 750 689 750 560 c 0,10,11
 750 430 750 430 657 337 c 128,-1,12
 564 244 564 244 434 244 c 0,13,14
 355 244 355 244 284 282 c 1,15,16
 208 231 208 231 208 172 c 0,17,18
 208 127 208 127 242.5 113.5 c 128,-1,19
 277 100 277 100 370 100 c 2,20,-1
 528 100 l 2,21,22
 571 100 571 100 610 94 c 128,-1,23
 649 88 649 88 690 71 c 128,-1,24
 731 54 731 54 761 27 c 128,-1,25
 791 0 791 0 810.5 -45 c 128,-1,26
 830 -90 830 -90 830 -148 c 0,27,28
 830 -259 830 -259 731 -335.5 c 128,-1,29
 632 -412 632 -412 444 -412 c 0,30,31
 369 -412 369 -412 306 -401 c 128,-1,32
 243 -390 243 -390 188.5 -365 c 128,-1,33
 134 -340 134 -340 103 -295 c 128,-1,34
 72 -250 72 -250 72 -188 c 0,35,36
 72 -72 72 -72 195 15 c 1,37,38
 122 40 122 40 122 122 c 0,39,40
 122 159 122 159 148.5 200.5 c 128,-1,41
 175 242 175 242 200 264.5 c 128,-1,42
 225 287 225 287 248 304 c 1,43,44
 188 348 188 348 153 415.5 c 128,-1,45
 118 483 118 483 118 560 c 0,0,1
432 776 m 128,-1,47
 391 776 391 776 352.5 763.5 c 128,-1,48
 314 751 314 751 278.5 724.5 c 128,-1,49
 243 698 243 698 221.5 648 c 128,-1,50
 200 598 200 598 200 532 c 0,51,52
 200 468 200 468 220.5 418.5 c 128,-1,53
 241 369 241 369 275.5 340.5 c 128,-1,54
 310 312 310 312 350 298 c 128,-1,55
 390 284 390 284 434 284 c 0,56,57
 526 284 526 284 595 346.5 c 128,-1,58
 664 409 664 409 664 532 c 0,59,60
 664 598 664 598 642.5 648 c 128,-1,61
 621 698 621 698 585.5 724.5 c 128,-1,62
 550 751 550 751 511.5 763.5 c 128,-1,46
 473 776 473 776 432 776 c 128,-1,47
362 0 m 6,63,64
 284 0 284 0 252 4 c 5,65,66
 172 -61 172 -61 172 -174 c 4,67,68
 172 -245 172 -245 213.5 -291.5 c 132,-1,69
 255 -338 255 -338 312.5 -355 c 132,-1,70
 370 -372 370 -372 442 -372 c 4,71,72
 730 -372 730 -372 730 -174 c 4,73,74
 730 -88 730 -88 669 -44 c 132,-1,75
 608 0 608 0 490 0 c 6,76,-1
 362 0 l 6,63,64
EndSplineSet
Fore
SplineSet
118 560 m 0,0,1
 118 690 118 690 211 783 c 128,-1,2
 304 876 304 876 434 876 c 0,3,4
 499 876 499 876 561 849 c 1,5,-1
 830 878 l 1,6,-1
 830 782 l 1,7,-1
 659 782 l 1,8,9
 750 689 750 689 750 560 c 0,10,11
 750 430 750 430 657 337 c 128,-1,12
 564 244 564 244 434 244 c 0,13,14
 355 244 355 244 284 282 c 1,15,16
 208 231 208 231 208 172 c 0,17,18
 208 127 208 127 242.5 113.5 c 128,-1,19
 277 100 277 100 370 100 c 2,20,-1
 528 100 l 2,21,22
 571 100 571 100 610 94 c 128,-1,23
 649 88 649 88 690 71 c 128,-1,24
 731 54 731 54 761 27 c 128,-1,25
 791 0 791 0 810.5 -45 c 128,-1,26
 830 -90 830 -90 830 -148 c 0,27,28
 830 -259 830 -259 731 -335.5 c 128,-1,29
 632 -412 632 -412 444 -412 c 0,30,31
 369 -412 369 -412 306 -401 c 128,-1,32
 243 -390 243 -390 188.5 -365 c 128,-1,33
 134 -340 134 -340 103 -295 c 128,-1,34
 72 -250 72 -250 72 -188 c 0,35,36
 72 -72 72 -72 195 15 c 1,37,38
 122 40 122 40 122 122 c 0,39,40
 122 159 122 159 148.5 200.5 c 128,-1,41
 175 242 175 242 200 264.5 c 128,-1,42
 225 287 225 287 248 304 c 1,43,44
 188 348 188 348 153 415.5 c 128,-1,45
 118 483 118 483 118 560 c 0,0,1
432 776 m 128,-1,47
 391 776 391 776 352.5 763.5 c 128,-1,48
 314 751 314 751 278.5 724.5 c 128,-1,49
 243 698 243 698 221.5 648 c 128,-1,50
 200 598 200 598 200 532 c 0,51,52
 200 468 200 468 220.5 418.5 c 128,-1,53
 241 369 241 369 275.5 340.5 c 128,-1,54
 310 312 310 312 350 298 c 128,-1,55
 390 284 390 284 434 284 c 0,56,57
 526 284 526 284 595 346.5 c 128,-1,58
 664 409 664 409 664 532 c 0,59,60
 664 598 664 598 642.5 648 c 128,-1,61
 621 698 621 698 585.5 724.5 c 128,-1,62
 550 751 550 751 511.5 763.5 c 128,-1,46
 473 776 473 776 432 776 c 128,-1,47
362 0 m 6,63,64
 284 0 284 0 252 4 c 5,65,66
 172 -61 172 -61 172 -174 c 4,67,68
 172 -245 172 -245 213.5 -291.5 c 132,-1,69
 255 -338 255 -338 312.5 -355 c 132,-1,70
 370 -372 370 -372 442 -372 c 4,71,72
 730 -372 730 -372 730 -174 c 4,73,74
 730 -88 730 -88 669 -44 c 132,-1,75
 608 0 608 0 490 0 c 6,76,-1
 362 0 l 6,63,64
EndSplineSet
Validated: 19457
EndChar

StartChar: germandbls
Encoding: 373 223 117
Width: 1046
VWidth: 0
Flags: W
HStem: -10 92<498.087 834.571> 0 42<88 184.447> 812 50<84 206> 1348 50<405.587 605.286>
VStem: 84 224<0 42 812 862> 206 102<50.0355 812 862 1242.53> 468 96<590.24 816.154> 712 108<982.725 1268.79> 884 96<131.593 325.919>
LayerCount: 2
Back
SplineSet
450 48 m 5,0,-1
 450 152 l 5,1,2
 463 144 463 144 485.5 132.5 c 132,-1,3
 508 121 508 121 571.5 101.5 c 132,-1,4
 635 82 635 82 692 82 c 4,5,6
 788 82 788 82 836 128 c 132,-1,7
 884 174 884 174 884 230 c 4,8,9
 884 269 884 269 861 301 c 132,-1,10
 838 333 838 333 801.5 356 c 132,-1,11
 765 379 765 379 720.5 401 c 132,-1,12
 676 423 676 423 631.5 448 c 132,-1,13
 587 473 587 473 550.5 502.5 c 132,-1,14
 514 532 514 532 491 576 c 132,-1,15
 468 620 468 620 468 674 c 4,16,17
 468 724 468 724 481.5 761 c 132,-1,18
 495 798 495 798 516.5 820.5 c 132,-1,19
 538 843 538 843 564 862 c 132,-1,20
 590 881 590 881 616 902 c 132,-1,21
 642 923 642 923 663.5 948.5 c 132,-1,22
 685 974 685 974 698.5 1017 c 132,-1,23
 712 1060 712 1060 712 1118 c 4,24,25
 712 1209 712 1209 665 1273.5 c 132,-1,26
 618 1338 618 1338 520 1348 c 4,27,28
 495 1350 495 1350 470 1346.5 c 132,-1,29
 445 1343 445 1343 414.5 1329.5 c 132,-1,30
 384 1316 384 1316 361.5 1293 c 132,-1,31
 339 1270 339 1270 323.5 1227 c 132,-1,32
 308 1184 308 1184 308 1128 c 6,33,-1
 308 0 l 5,34,-1
 88 0 l 5,35,-1
 88 42 l 5,36,37
 131 42 131 42 156 48.5 c 132,-1,38
 181 55 181 55 191.5 71 c 132,-1,39
 202 87 202 87 204 100 c 132,-1,40
 206 113 206 113 206 140 c 6,41,-1
 206 812 l 5,42,-1
 84 812 l 5,43,-1
 84 862 l 5,44,-1
 206 862 l 5,45,-1
 206 1082 l 6,46,47
 206 1159 206 1159 243 1229.5 c 132,-1,48
 280 1300 280 1300 357.5 1349 c 132,-1,49
 435 1398 435 1398 536 1398 c 4,50,51
 659 1398 659 1398 739.5 1328.5 c 132,-1,52
 820 1259 820 1259 820 1154 c 4,53,54
 820 1095 820 1095 806 1049 c 132,-1,55
 792 1003 792 1003 769.5 974.5 c 132,-1,56
 747 946 747 946 719.5 923 c 132,-1,57
 692 900 692 900 664.5 880 c 132,-1,58
 637 860 637 860 614.5 838 c 132,-1,59
 592 816 592 816 578 782.5 c 132,-1,60
 564 749 564 749 564 706 c 4,61,62
 564 659 564 659 587 620.5 c 132,-1,63
 610 582 610 582 646.5 556 c 132,-1,64
 683 530 683 530 727.5 506.5 c 132,-1,65
 772 483 772 483 816.5 458 c 132,-1,66
 861 433 861 433 897.5 404.5 c 132,-1,67
 934 376 934 376 957 333.5 c 132,-1,68
 980 291 980 291 980 238 c 4,69,70
 980 123 980 123 902 56.5 c 132,-1,71
 824 -10 824 -10 704 -10 c 4,72,73
 630 -10 630 -10 566.5 4.5 c 132,-1,74
 503 19 503 19 476.5 33.5 c 6,75,-1
 450 48 l 5,0,-1
EndSplineSet
Fore
SplineSet
450 48 m 5,0,-1
 450 152 l 5,1,2
 463 144 463 144 485.5 132.5 c 132,-1,3
 508 121 508 121 571.5 101.5 c 132,-1,4
 635 82 635 82 692 82 c 4,5,6
 788 82 788 82 836 128 c 132,-1,7
 884 174 884 174 884 230 c 4,8,9
 884 269 884 269 861 301 c 132,-1,10
 838 333 838 333 801.5 356 c 132,-1,11
 765 379 765 379 720.5 401 c 132,-1,12
 676 423 676 423 631.5 448 c 132,-1,13
 587 473 587 473 550.5 502.5 c 132,-1,14
 514 532 514 532 491 576 c 132,-1,15
 468 620 468 620 468 674 c 4,16,17
 468 724 468 724 481.5 761 c 132,-1,18
 495 798 495 798 516.5 820.5 c 132,-1,19
 538 843 538 843 564 862 c 132,-1,20
 590 881 590 881 616 902 c 132,-1,21
 642 923 642 923 663.5 948.5 c 132,-1,22
 685 974 685 974 698.5 1017 c 132,-1,23
 712 1060 712 1060 712 1118 c 4,24,25
 712 1209 712 1209 665 1273.5 c 132,-1,26
 618 1338 618 1338 520 1348 c 4,27,28
 495 1350 495 1350 470 1346.5 c 132,-1,29
 445 1343 445 1343 414.5 1329.5 c 132,-1,30
 384 1316 384 1316 361.5 1293 c 132,-1,31
 339 1270 339 1270 323.5 1227 c 132,-1,32
 308 1184 308 1184 308 1128 c 6,33,-1
 308 0 l 5,34,-1
 88 0 l 5,35,-1
 88 42 l 5,36,37
 131 42 131 42 156 48.5 c 132,-1,38
 181 55 181 55 191.5 71 c 132,-1,39
 202 87 202 87 204 100 c 132,-1,40
 206 113 206 113 206 140 c 6,41,-1
 206 812 l 5,42,-1
 84 812 l 5,43,-1
 84 862 l 5,44,-1
 206 862 l 5,45,-1
 206 1082 l 6,46,47
 206 1159 206 1159 243 1229.5 c 132,-1,48
 280 1300 280 1300 357.5 1349 c 132,-1,49
 435 1398 435 1398 536 1398 c 4,50,51
 659 1398 659 1398 739.5 1328.5 c 132,-1,52
 820 1259 820 1259 820 1154 c 4,53,54
 820 1095 820 1095 806 1049 c 132,-1,55
 792 1003 792 1003 769.5 974.5 c 132,-1,56
 747 946 747 946 719.5 923 c 132,-1,57
 692 900 692 900 664.5 880 c 132,-1,58
 637 860 637 860 614.5 838 c 132,-1,59
 592 816 592 816 578 782.5 c 132,-1,60
 564 749 564 749 564 706 c 4,61,62
 564 659 564 659 587 620.5 c 132,-1,63
 610 582 610 582 646.5 556 c 132,-1,64
 683 530 683 530 727.5 506.5 c 132,-1,65
 772 483 772 483 816.5 458 c 132,-1,66
 861 433 861 433 897.5 404.5 c 132,-1,67
 934 376 934 376 957 333.5 c 132,-1,68
 980 291 980 291 980 238 c 4,69,70
 980 123 980 123 902 56.5 c 132,-1,71
 824 -10 824 -10 704 -10 c 4,72,73
 630 -10 630 -10 566.5 4.5 c 132,-1,74
 503 19 503 19 476.5 33.5 c 6,75,-1
 450 48 l 5,0,-1
EndSplineSet
Validated: 19457
EndChar

StartChar: grave
Encoding: 374 96 118
Width: 876
VWidth: 0
Flags: W
HStem: 1052 288
VStem: 242 294
LayerCount: 2
Back
SplineSet
536 1052 m 1,0,-1
 482 1052 l 1,1,-1
 242 1340 l 1,2,-1
 380 1340 l 1,3,-1
 536 1052 l 1,0,-1
EndSplineSet
Fore
SplineSet
536 1052 m 1,0,-1
 482 1052 l 1,1,-1
 242 1340 l 1,2,-1
 380 1340 l 1,3,-1
 536 1052 l 1,0,-1
EndSplineSet
Validated: 19457
EndChar

StartChar: greater
Encoding: 375 62 119
Width: 898
VWidth: 0
Flags: MW
HStem: 2 21G<40 82.9319> 842 20G<40 83.3862>
DStem2: 40 862 40 762 0.908154 -0.418637<41.8637 812.089> 40 102 40 2 0.906465 0.42228<0 770.252>
LayerCount: 2
Back
SplineSet
860 384 m 5,0,-1
 40 2 l 5,1,-1
 40 102 l 5,2,-1
 736 432 l 5,3,-1
 40 762 l 5,4,-1
 40 862 l 5,5,-1
 860 484 l 5,6,-1
 860 384 l 5,0,-1
EndSplineSet
Fore
SplineSet
860 384 m 5,0,-1
 40 2 l 5,1,-1
 40 102 l 5,2,-1
 736 432 l 5,3,-1
 40 762 l 1,4,-1
 40 862 l 1,5,-1
 860 484 l 1,6,-1
 860 384 l 5,0,-1
EndSplineSet
Validated: 19457
EndChar

StartChar: guillemosingleright
Encoding: 376 8250 120
Width: 532
VWidth: 0
Flags: W
VStem: 104 360
LayerCount: 2
Back
SplineSet
464 470 m 5,0,-1
 464 394 l 5,1,-1
 140 82 l 5,2,-1
 104 112 l 5,3,-1
 362 432 l 5,4,-1
 104 752 l 5,5,-1
 140 782 l 5,6,-1
 464 470 l 5,0,-1
EndSplineSet
Fore
SplineSet
464 470 m 1,0,-1
 464 394 l 5,1,-1
 140 82 l 5,2,-1
 104 112 l 5,3,-1
 362 432 l 5,4,-1
 104 752 l 1,5,-1
 140 782 l 1,6,-1
 464 470 l 1,0,-1
EndSplineSet
Validated: 19457
EndChar

StartChar: guillemosingletleft
Encoding: 377 8249 121
Width: 576
VWidth: 0
Flags: W
VStem: 100 360
LayerCount: 2
Back
SplineSet
100 470 m 1,0,-1
 424 782 l 1,1,-1
 460 752 l 1,2,-1
 202 432 l 1,3,-1
 460 112 l 1,4,-1
 424 82 l 1,5,-1
 100 394 l 1,6,-1
 100 470 l 1,0,-1
EndSplineSet
Fore
SplineSet
100 470 m 1,0,-1
 424 782 l 1,1,-1
 460 752 l 1,2,-1
 202 432 l 1,3,-1
 460 112 l 1,4,-1
 424 82 l 1,5,-1
 100 394 l 1,6,-1
 100 470 l 1,0,-1
EndSplineSet
Validated: 19457
EndChar

StartChar: guillemotleft
Encoding: 378 171 122
Width: 902
VWidth: 0
Flags: W
VStem: 100 680
LayerCount: 2
Back
SplineSet
100 470 m 1,0,-1
 424 782 l 1,1,-1
 460 752 l 1,2,-1
 202 432 l 1,3,-1
 460 112 l 1,4,-1
 424 82 l 1,5,-1
 100 394 l 1,6,-1
 100 470 l 1,0,-1
420 470 m 1,7,-1
 744 782 l 1,8,-1
 780 752 l 1,9,-1
 522 432 l 1,10,-1
 780 112 l 1,11,-1
 744 82 l 1,12,-1
 420 394 l 1,13,-1
 420 470 l 1,7,-1
EndSplineSet
Fore
SplineSet
100 470 m 1,0,-1
 424 782 l 1,1,-1
 460 752 l 1,2,-1
 202 432 l 1,3,-1
 460 112 l 1,4,-1
 424 82 l 1,5,-1
 100 394 l 1,6,-1
 100 470 l 1,0,-1
420 470 m 1,7,-1
 744 782 l 1,8,-1
 780 752 l 1,9,-1
 522 432 l 1,10,-1
 780 112 l 1,11,-1
 744 82 l 1,12,-1
 420 394 l 1,13,-1
 420 470 l 1,7,-1
EndSplineSet
Validated: 19457
EndChar

StartChar: guillemotright
Encoding: 379 187 123
Width: 890
VWidth: 0
Flags: W
VStem: 108 680
LayerCount: 2
Back
SplineSet
788 470 m 5,0,-1
 788 394 l 5,1,-1
 464 82 l 5,2,-1
 428 112 l 5,3,-1
 686 432 l 5,4,-1
 428 752 l 5,5,-1
 464 782 l 5,6,-1
 788 470 l 5,0,-1
468 470 m 1,7,-1
 468 394 l 1,8,-1
 144 82 l 1,9,-1
 108 112 l 1,10,-1
 366 432 l 1,11,-1
 108 752 l 1,12,-1
 144 782 l 1,13,-1
 468 470 l 1,7,-1
EndSplineSet
Fore
SplineSet
788 470 m 5,0,-1
 788 394 l 5,1,-1
 464 82 l 5,2,-1
 428 112 l 5,3,-1
 686 432 l 5,4,-1
 428 752 l 5,5,-1
 464 782 l 5,6,-1
 788 470 l 5,0,-1
468 470 m 1,7,-1
 468 394 l 1,8,-1
 144 82 l 1,9,-1
 108 112 l 1,10,-1
 366 432 l 1,11,-1
 108 752 l 1,12,-1
 144 782 l 1,13,-1
 468 470 l 1,7,-1
EndSplineSet
Validated: 19457
EndChar

StartChar: h
Encoding: 380 104 124
Width: 1026
VWidth: 0
Flags: W
HStem: 0 21G<198 300 786 888> 784 88<533.403 758.461> 1360 40<80 175.521>
VStem: 198 102<0 658.154 680 1351.96> 786 102<0 742.221>
LayerCount: 2
Back
SplineSet
80 1400 m 5,0,-1
 300 1400 l 5,1,-1
 300 680 l 5,2,3
 404 766 404 766 513 819 c 132,-1,4
 622 872 622 872 696 872 c 4,5,6
 802 872 802 872 845 817.5 c 132,-1,7
 888 763 888 763 888 632 c 6,8,-1
 888 0 l 5,9,-1
 786 0 l 5,10,-1
 786 606 l 6,11,12
 786 703 786 703 759 743.5 c 132,-1,13
 732 784 732 784 650 784 c 4,14,15
 572 784 572 784 468.5 733.5 c 132,-1,16
 365 683 365 683 300 620 c 5,17,-1
 300 0 l 5,18,-1
 198 0 l 5,19,-1
 198 1262 l 6,20,21
 198 1289 198 1289 196 1302 c 132,-1,22
 194 1315 194 1315 183.5 1331 c 132,-1,23
 173 1347 173 1347 148 1353.5 c 132,-1,24
 123 1360 123 1360 80 1360 c 5,25,-1
 80 1400 l 5,0,-1
EndSplineSet
Fore
SplineSet
80 1400 m 5,0,-1
 300 1400 l 5,1,-1
 300 680 l 5,2,3
 404 766 404 766 513 819 c 132,-1,4
 622 872 622 872 696 872 c 4,5,6
 802 872 802 872 845 817.5 c 132,-1,7
 888 763 888 763 888 632 c 6,8,-1
 888 0 l 5,9,-1
 786 0 l 5,10,-1
 786 606 l 6,11,12
 786 703 786 703 759 743.5 c 132,-1,13
 732 784 732 784 650 784 c 4,14,15
 572 784 572 784 468.5 733.5 c 132,-1,16
 365 683 365 683 300 620 c 5,17,-1
 300 0 l 5,18,-1
 198 0 l 5,19,-1
 198 1262 l 6,20,21
 198 1289 198 1289 196 1302 c 132,-1,22
 194 1315 194 1315 183.5 1331 c 132,-1,23
 173 1347 173 1347 148 1353.5 c 132,-1,24
 123 1360 123 1360 80 1360 c 5,25,-1
 80 1400 l 5,0,-1
EndSplineSet
Validated: 19457
EndChar

StartChar: hungarumlaut
Encoding: 381 733 125
Width: 1666
VWidth: 0
Flags: W
HStem: 1052 288
VStem: 380 562
LayerCount: 2
Back
SplineSet
380 1052 m 5,0,-1
 536 1340 l 5,1,-1
 674 1340 l 5,2,-1
 434 1052 l 5,3,-1
 380 1052 l 5,0,-1
648 1050 m 1,4,-1
 804 1338 l 1,5,-1
 942 1338 l 1,6,-1
 702 1050 l 1,7,-1
 648 1050 l 1,4,-1
EndSplineSet
Fore
SplineSet
380 1052 m 5,0,-1
 536 1340 l 5,1,-1
 674 1340 l 5,2,-1
 434 1052 l 5,3,-1
 380 1052 l 5,0,-1
648 1050 m 1,4,-1
 804 1338 l 1,5,-1
 942 1338 l 1,6,-1
 702 1050 l 1,7,-1
 648 1050 l 1,4,-1
EndSplineSet
Validated: 19457
EndChar

StartChar: hyphen
Encoding: 382 45 126
Width: 662
VWidth: 0
Flags: W
HStem: 420 100<90 582>
VStem: 90 492<420 520>
LayerCount: 2
Back
SplineSet
90 420 m 5,0,-1
 90 520 l 5,1,-1
 582 520 l 5,2,-1
 582 420 l 5,3,-1
 90 420 l 5,0,-1
EndSplineSet
Fore
SplineSet
90 420 m 5,0,-1
 90 520 l 5,1,-1
 582 520 l 5,2,-1
 582 420 l 5,3,-1
 90 420 l 5,0,-1
EndSplineSet
Validated: 19457
EndChar

StartChar: i
Encoding: 383 105 127
Width: 440
VWidth: 0
Flags: W
HStem: 0 21G<200 302> 822 42<82 178.447> 1112 146<197.658 299.311>
VStem: 176 146<1133.66 1235.31> 200 102<0 813.964>
LayerCount: 2
Back
SplineSet
200 0 m 1,0,-1
 200 724 l 2,1,2
 200 751 200 751 198 764 c 128,-1,3
 196 777 196 777 185.5 793 c 128,-1,4
 175 809 175 809 150 815.5 c 128,-1,5
 125 822 125 822 82 822 c 1,6,-1
 82 864 l 1,7,-1
 302 864 l 1,8,-1
 302 0 l 1,9,-1
 200 0 l 1,0,-1
176 1184 m 132,-1,11
 176 1214 176 1214 197 1236 c 132,-1,12
 218 1258 218 1258 248 1258 c 132,-1,13
 278 1258 278 1258 300 1236 c 132,-1,14
 322 1214 322 1214 322 1184 c 132,-1,15
 322 1154 322 1154 300 1133 c 132,-1,16
 278 1112 278 1112 248 1112 c 132,-1,17
 218 1112 218 1112 197 1133 c 132,-1,10
 176 1154 176 1154 176 1184 c 132,-1,11
EndSplineSet
Fore
SplineSet
200 0 m 1,0,-1
 200 724 l 2,1,2
 200 751 200 751 198 764 c 128,-1,3
 196 777 196 777 185.5 793 c 128,-1,4
 175 809 175 809 150 815.5 c 128,-1,5
 125 822 125 822 82 822 c 1,6,-1
 82 864 l 1,7,-1
 302 864 l 1,8,-1
 302 0 l 1,9,-1
 200 0 l 1,0,-1
176 1184 m 132,-1,11
 176 1214 176 1214 197 1236 c 132,-1,12
 218 1258 218 1258 248 1258 c 132,-1,13
 278 1258 278 1258 300 1236 c 132,-1,14
 322 1214 322 1214 322 1184 c 132,-1,15
 322 1154 322 1154 300 1133 c 132,-1,16
 278 1112 278 1112 248 1112 c 132,-1,17
 218 1112 218 1112 197 1133 c 132,-1,10
 176 1154 176 1154 176 1184 c 132,-1,11
EndSplineSet
Validated: 19457
EndChar

StartChar: j
Encoding: 388 106 132
Width: 422
VWidth: 0
Flags: W
HStem: -392 36<110 148.861> 820 42<76 172.447> 1112 146<173.658 275.311>
VStem: 152 146<1133.66 1235.31> 194 100<-282.325 811.964>
LayerCount: 2
Back
SplineSet
110 -392 m 1,0,-1
 110 -356 l 1,1,2
 151 -356 151 -356 172.5 -296 c 128,-1,3
 194 -236 194 -236 194 -130 c 2,4,-1
 194 722 l 2,5,6
 194 749 194 749 192 762 c 128,-1,7
 190 775 190 775 179.5 791 c 128,-1,8
 169 807 169 807 144 813.5 c 128,-1,9
 119 820 119 820 76 820 c 1,10,-1
 76 862 l 1,11,-1
 294 862 l 1,12,-1
 294 -54 l 2,13,14
 294 -134 294 -134 274.5 -210.5 c 128,-1,15
 255 -287 255 -287 215.5 -339.5 c 128,-1,16
 176 -392 176 -392 126 -392 c 2,17,-1
 110 -392 l 1,0,-1
152 1184 m 132,-1,19
 152 1214 152 1214 173 1236 c 132,-1,20
 194 1258 194 1258 224 1258 c 132,-1,21
 254 1258 254 1258 276 1236 c 132,-1,22
 298 1214 298 1214 298 1184 c 132,-1,23
 298 1154 298 1154 276 1133 c 132,-1,24
 254 1112 254 1112 224 1112 c 132,-1,25
 194 1112 194 1112 173 1133 c 132,-1,18
 152 1154 152 1154 152 1184 c 132,-1,19
EndSplineSet
Fore
SplineSet
110 -392 m 1,0,-1
 110 -356 l 1,1,2
 151 -356 151 -356 172.5 -296 c 128,-1,3
 194 -236 194 -236 194 -130 c 2,4,-1
 194 722 l 2,5,6
 194 749 194 749 192 762 c 128,-1,7
 190 775 190 775 179.5 791 c 128,-1,8
 169 807 169 807 144 813.5 c 128,-1,9
 119 820 119 820 76 820 c 1,10,-1
 76 862 l 1,11,-1
 294 862 l 1,12,-1
 294 -54 l 2,13,14
 294 -134 294 -134 274.5 -210.5 c 128,-1,15
 255 -287 255 -287 215.5 -339.5 c 128,-1,16
 176 -392 176 -392 126 -392 c 2,17,-1
 110 -392 l 1,0,-1
152 1184 m 132,-1,19
 152 1214 152 1214 173 1236 c 132,-1,20
 194 1258 194 1258 224 1258 c 132,-1,21
 254 1258 254 1258 276 1236 c 132,-1,22
 298 1214 298 1214 298 1184 c 132,-1,23
 298 1154 298 1154 276 1133 c 132,-1,24
 254 1112 254 1112 224 1112 c 132,-1,25
 194 1112 194 1112 173 1133 c 132,-1,18
 152 1154 152 1154 152 1184 c 132,-1,19
EndSplineSet
Validated: 19457
EndChar

StartChar: k
Encoding: 389 107 133
Width: 946
VWidth: 0
Flags: MW
HStem: 0 21G<190 292 822.47 986> 810 52<707.997 866> 1360 40<72 167.521>
VStem: 190 102<0 395 466 1351.96>
DStem2: 292 466 292 395 0.708886 0.705323<0 101.951 213.677 538.735> 480 580 400 502 0.6574 -0.753542<6.18424 673.718>
LayerCount: 2
Back
SplineSet
986 0 m 5,0,-1
 840 0 l 5,1,-1
 400 502 l 5,2,-1
 292 395 l 5,3,-1
 292 0 l 5,4,-1
 190 0 l 5,5,-1
 190 1262 l 6,6,7
 190 1289 190 1289 188 1302 c 132,-1,8
 186 1315 186 1315 175.5 1331 c 132,-1,9
 165 1347 165 1347 140 1353.5 c 132,-1,10
 115 1360 115 1360 72 1360 c 5,11,12
 72 1400 l 5,13,-1
 292 1400 l 5,14,-1
 292 466 l 5,15,-1
 690 862 l 5,16,-1
 866 862 l 5,17,-1
 866 810 l 5,18,19
 775 810 775 810 725.5 792 c 132,-1,20
 676 774 676 774 610 708 c 6,21,-1
 480 580 l 5,22,-1
 986 0 l 5,0,-1
EndSplineSet
Fore
SplineSet
986 0 m 5,0,-1
 840 0 l 5,1,-1
 400 502 l 5,2,-1
 292 395 l 1,3,-1
 292 0 l 1,4,-1
 190 0 l 1,5,-1
 190 1262 l 2,6,7
 190 1289 190 1289 188 1302 c 128,-1,8
 186 1315 186 1315 175.5 1331 c 128,-1,9
 165 1347 165 1347 140 1353.5 c 128,-1,10
 115 1360 115 1360 72 1360 c 1,11,12
 72 1400 l 1,13,-1
 292 1400 l 1,14,-1
 292 466 l 1,15,-1
 690 862 l 1,16,-1
 866 862 l 1,17,-1
 866 810 l 1,18,19
 775 810 775 810 725.5 792 c 128,-1,20
 676 774 676 774 610 708 c 2,21,-1
 480 580 l 5,22,-1
 986 0 l 5,0,-1
EndSplineSet
Validated: 19457
EndChar

StartChar: l
Encoding: 390 108 134
Width: 434
VWidth: 0
Flags: W
HStem: 0 21G<194 296> 1360 40<76 171.521>
VStem: 194 102<0 1351.96>
LayerCount: 2
Back
SplineSet
194 0 m 5,0,-1
 194 1262 l 6,1,2
 194 1289 194 1289 192 1302 c 132,-1,3
 190 1315 190 1315 179.5 1331 c 132,-1,4
 169 1347 169 1347 144 1353.5 c 132,-1,5
 119 1360 119 1360 76 1360 c 5,6,-1
 76 1400 l 5,7,-1
 296 1400 l 5,8,-1
 296 0 l 5,9,-1
 194 0 l 5,0,-1
EndSplineSet
Fore
SplineSet
194 0 m 5,0,-1
 194 1262 l 6,1,2
 194 1289 194 1289 192 1302 c 132,-1,3
 190 1315 190 1315 179.5 1331 c 132,-1,4
 169 1347 169 1347 144 1353.5 c 132,-1,5
 119 1360 119 1360 76 1360 c 5,6,-1
 76 1400 l 5,7,-1
 296 1400 l 5,8,-1
 296 0 l 5,9,-1
 194 0 l 5,0,-1
EndSplineSet
Validated: 19457
EndChar

StartChar: less
Encoding: 391 60 135
Width: 912
VWidth: 0
Flags: MW
HStem: 2 21G<825.068 868> 842 20G<824.614 868>
DStem2: 48 484 172 432 0.908154 0.418637<90.842 861.067> 172 432 48 384 0.906465 -0.42228<0 770.252>
LayerCount: 2
Back
SplineSet
48 384 m 5,0,-1
 48 484 l 5,1,-1
 868 862 l 5,2,-1
 868 762 l 5,3,-1
 172 432 l 5,4,-1
 868 102 l 5,5,-1
 868 2 l 5,6,-1
 48 384 l 5,0,-1
EndSplineSet
Fore
SplineSet
48 384 m 5,0,-1
 48 484 l 1,1,-1
 868 862 l 1,2,-1
 868 762 l 1,3,-1
 172 432 l 5,4,-1
 868 102 l 5,5,-1
 868 2 l 5,6,-1
 48 384 l 5,0,-1
EndSplineSet
Validated: 19457
EndChar

StartChar: logicalnot
Encoding: 392 172 136
Width: 942
VWidth: 0
Flags: W
HStem: 768 94<52 750>
VStem: 750 94<346 768>
LayerCount: 2
Back
SplineSet
844 346 m 5,0,-1
 750 346 l 5,1,-1
 750 768 l 5,2,-1
 52 768 l 5,3,-1
 52 862 l 5,4,-1
 844 862 l 5,5,-1
 844 346 l 5,0,-1
EndSplineSet
Fore
SplineSet
844 346 m 5,0,-1
 750 346 l 5,1,-1
 750 768 l 5,2,-1
 52 768 l 5,3,-1
 52 862 l 5,4,-1
 844 862 l 5,5,-1
 844 346 l 5,0,-1
EndSplineSet
Validated: 19457
EndChar

StartChar: m
Encoding: 393 109 137
Width: 1554
VWidth: 0
Flags: W
HStem: 0 21G<198 298 754 856 1312 1414> 788 84<516.958 727.025 1068.7 1283.21> 820 42<80 173.239>
VStem: 198 100<0 657.027 680 801.433> 754 102<0 654.74 684 748.794> 1312 102<0 751.376>
LayerCount: 2
Back
SplineSet
856 620 m 5,0,1
 856 0 l 5,2,-1
 754 0 l 5,3,-1
 754 598 l 6,4,5
 754 712 754 712 726.5 750 c 132,-1,6
 699 788 699 788 624 788 c 4,7,8
 580 788 580 788 532.5 772 c 132,-1,9
 485 756 485 756 439 726 c 132,-1,10
 393 696 393 696 363.5 673.5 c 132,-1,11
 334 651 334 651 298 620 c 5,12,-1
 298 0 l 5,13,-1
 198 0 l 5,14,-1
 198 746 l 6,15,16
 198 784 198 784 174 802 c 132,-1,17
 150 820 150 820 80 820 c 5,18,-1
 80 862 l 5,19,-1
 298 862 l 5,20,-1
 298 680 l 5,21,22
 521 872 521 872 668 872 c 4,23,24
 708 872 708 872 739.5 861.5 c 132,-1,25
 771 851 771 851 790 837 c 132,-1,26
 809 823 809 823 823 801 c 132,-1,27
 837 779 837 779 843 763.5 c 132,-1,28
 849 748 849 748 852.5 726 c 132,-1,29
 856 704 856 704 856 698.5 c 132,-1,30
 856 693 856 693 856 684 c 5,31,32
 1074 872 1074 872 1226 872 c 4,33,34
 1283 872 1283 872 1322 854 c 132,-1,35
 1361 836 1361 836 1380 803.5 c 132,-1,36
 1399 771 1399 771 1406.5 736 c 132,-1,37
 1414 701 1414 701 1414 656 c 6,38,-1
 1414 0 l 5,39,-1
 1312 0 l 5,40,-1
 1312 620 l 6,41,42
 1312 717 1312 717 1281.5 752.5 c 132,-1,43
 1251 788 1251 788 1178 788 c 4,44,45
 1051 788 1051 788 856 620 c 5,0,1
EndSplineSet
Fore
SplineSet
856 620 m 5,0,1
 856 0 l 5,2,-1
 754 0 l 5,3,-1
 754 598 l 6,4,5
 754 712 754 712 726.5 750 c 132,-1,6
 699 788 699 788 624 788 c 4,7,8
 580 788 580 788 532.5 772 c 132,-1,9
 485 756 485 756 439 726 c 132,-1,10
 393 696 393 696 363.5 673.5 c 132,-1,11
 334 651 334 651 298 620 c 5,12,-1
 298 0 l 5,13,-1
 198 0 l 5,14,-1
 198 746 l 6,15,16
 198 784 198 784 174 802 c 132,-1,17
 150 820 150 820 80 820 c 5,18,-1
 80 862 l 5,19,-1
 298 862 l 5,20,-1
 298 680 l 5,21,22
 521 872 521 872 668 872 c 4,23,24
 708 872 708 872 739.5 861.5 c 132,-1,25
 771 851 771 851 790 837 c 132,-1,26
 809 823 809 823 823 801 c 132,-1,27
 837 779 837 779 843 763.5 c 132,-1,28
 849 748 849 748 852.5 726 c 132,-1,29
 856 704 856 704 856 698.5 c 132,-1,30
 856 693 856 693 856 684 c 5,31,32
 1074 872 1074 872 1226 872 c 4,33,34
 1283 872 1283 872 1322 854 c 132,-1,35
 1361 836 1361 836 1380 803.5 c 132,-1,36
 1399 771 1399 771 1406.5 736 c 132,-1,37
 1414 701 1414 701 1414 656 c 6,38,-1
 1414 0 l 5,39,-1
 1312 0 l 5,40,-1
 1312 620 l 6,41,42
 1312 717 1312 717 1281.5 752.5 c 132,-1,43
 1251 788 1251 788 1178 788 c 4,44,45
 1051 788 1051 788 856 620 c 5,0,1
EndSplineSet
Validated: 19457
EndChar

StartChar: macron
Encoding: 394 175 138
Width: 688
VWidth: 0
Flags: W
HStem: 1450 100<0 688>
LayerCount: 2
Back
SplineSet
0 1450 m 5,0,-1
 0 1550 l 5,1,-1
 688 1550 l 5,2,-1
 688 1450 l 5,3,-1
 0 1450 l 5,0,-1
EndSplineSet
Fore
SplineSet
0 1450 m 5,0,-1
 0 1550 l 5,1,-1
 688 1550 l 5,2,-1
 688 1450 l 5,3,-1
 0 1450 l 5,0,-1
EndSplineSet
Validated: 19457
EndChar

StartChar: minus
Encoding: 395 8722 139
Width: 892
VWidth: 0
Flags: W
HStem: 382 94<52 844>
LayerCount: 2
Back
SplineSet
844 382 m 5,0,-1
 52 382 l 5,1,-1
 52 476 l 5,2,-1
 844 476 l 5,3,-1
 844 382 l 5,0,-1
EndSplineSet
Fore
SplineSet
844 382 m 5,0,-1
 52 382 l 5,1,-1
 52 476 l 5,2,-1
 844 476 l 5,3,-1
 844 382 l 5,0,-1
EndSplineSet
Validated: 19457
EndChar

StartChar: mu
Encoding: 396 181 140
AltUni2: 0003bc.ffffffff.0 0003bc.ffffffff.0 0003bc.ffffffff.0 0003bc.ffffffff.0 0003bc.ffffffff.0 0003bc.ffffffff.0
Width: 1020
VWidth: 0
Flags: W
HStem: -10 88<297.372 540.006 835.5 950.457> 844 20G<166 268 754 854>
VStem: 166 102<-392 12 117.205 864> 754 100<68.7598 182 203.367 864>
LayerCount: 2
Back
SplineSet
166 -392 m 5,0,-1
 166 864 l 5,1,-1
 268 864 l 5,2,-1
 268 264 l 6,3,4
 268 154 268 154 298.5 116 c 132,-1,5
 329 78 329 78 398 78 c 4,6,7
 495 78 495 78 592.5 128 c 132,-1,8
 690 178 690 178 754 242 c 5,9,-1
 754 864 l 5,10,-1
 854 864 l 5,11,-1
 854 194 l 6,12,13
 854 119 854 119 861.5 93.5 c 132,-1,14
 869 68 869 68 898 68 c 4,15,16
 934 68 934 68 982 114 c 5,17,-1
 1010 80 l 5,18,19
 1009 79 1009 79 996 68 c 132,-1,20
 983 57 983 57 975 51 c 132,-1,21
 967 45 967 45 950.5 34 c 132,-1,22
 934 23 934 23 920.5 16.5 c 132,-1,23
 907 10 907 10 888.5 5 c 132,-1,24
 870 0 870 0 852 0 c 4,25,26
 819 0 819 0 797.5 16 c 132,-1,27
 776 32 776 32 767.5 63 c 132,-1,28
 759 94 759 94 756.5 119 c 132,-1,29
 754 144 754 144 754 182 c 5,30,31
 635 84 635 84 547.5 37 c 132,-1,32
 460 -10 460 -10 362 -10 c 4,33,34
 298 -10 298 -10 268 12 c 5,35,-1
 268 -392 l 5,36,-1
 166 -392 l 5,0,-1
EndSplineSet
Fore
SplineSet
166 -392 m 5,0,-1
 166 864 l 5,1,-1
 268 864 l 5,2,-1
 268 264 l 6,3,4
 268 154 268 154 298.5 116 c 132,-1,5
 329 78 329 78 398 78 c 4,6,7
 495 78 495 78 592.5 128 c 132,-1,8
 690 178 690 178 754 242 c 5,9,-1
 754 864 l 5,10,-1
 854 864 l 5,11,-1
 854 194 l 6,12,13
 854 119 854 119 861.5 93.5 c 132,-1,14
 869 68 869 68 898 68 c 4,15,16
 934 68 934 68 982 114 c 5,17,-1
 1010 80 l 5,18,19
 1009 79 1009 79 996 68 c 132,-1,20
 983 57 983 57 975 51 c 132,-1,21
 967 45 967 45 950.5 34 c 132,-1,22
 934 23 934 23 920.5 16.5 c 132,-1,23
 907 10 907 10 888.5 5 c 132,-1,24
 870 0 870 0 852 0 c 4,25,26
 819 0 819 0 797.5 16 c 132,-1,27
 776 32 776 32 767.5 63 c 132,-1,28
 759 94 759 94 756.5 119 c 132,-1,29
 754 144 754 144 754 182 c 5,30,31
 635 84 635 84 547.5 37 c 132,-1,32
 460 -10 460 -10 362 -10 c 4,33,34
 298 -10 298 -10 268 12 c 5,35,-1
 268 -392 l 5,36,-1
 166 -392 l 5,0,-1
EndSplineSet
Validated: 19457
EndChar

StartChar: multiply
Encoding: 397 215 141
Width: 900
VWidth: 0
Flags: MW
HStem: 118 626
VStem: 126 626
DStem2: 192 744 124 677 0.708997 -0.705212<0 349.056 444.061 791.707> 126 182 192 115 0.706476 0.707737<0 349.312 444.063 791.876>
LayerCount: 2
Back
SplineSet
752 676 m 1,0,-1
 506 430 l 1,1,-1
 752 184 l 1,2,-1
 686 118 l 1,3,-1
 440 364 l 1,4,-1
 192 115 l 1,5,-1
 126 182 l 1,6,-1
 372 430 l 1,7,-1
 124 677 l 5,8,-1
 192 744 l 1,9,-1
 440 496 l 1,10,-1
 686 742 l 1,11,-1
 752 676 l 1,0,-1
EndSplineSet
Fore
SplineSet
752 676 m 5,0,-1
 506 430 l 1,1,-1
 752 184 l 1,2,-1
 686 118 l 1,3,-1
 440 364 l 1,4,-1
 192 115 l 5,5,-1
 126 182 l 5,6,-1
 372 430 l 1,7,-1
 124 677 l 1,8,-1
 192 744 l 1,9,-1
 440 496 l 1,10,-1
 686 742 l 5,11,-1
 752 676 l 5,0,-1
EndSplineSet
Validated: 19457
EndChar

StartChar: n
Encoding: 398 110 142
Width: 1026
VWidth: 0
Flags: W
HStem: 0 21G<198 298 784 886> 784 88<531.403 756.461> 824 38<80 174.08>
VStem: 198 100<0 658.154 680 815.964> 784 102<0 742.221>
LayerCount: 2
Back
SplineSet
80 862 m 5,0,-1
 298 862 l 5,1,-1
 298 680 l 5,2,3
 402 766 402 766 511 819 c 132,-1,4
 620 872 620 872 694 872 c 4,5,6
 800 872 800 872 843 817.5 c 132,-1,7
 886 763 886 763 886 632 c 6,8,-1
 886 0 l 5,9,-1
 784 0 l 5,10,-1
 784 606 l 6,11,12
 784 703 784 703 757 743.5 c 132,-1,13
 730 784 730 784 648 784 c 4,14,15
 570 784 570 784 466.5 733.5 c 132,-1,16
 363 683 363 683 298 620 c 5,17,-1
 298 0 l 5,18,-1
 198 0 l 5,19,-1
 198 726 l 6,20,21
 198 753 198 753 196 766 c 132,-1,22
 194 779 194 779 183.5 795 c 132,-1,23
 173 811 173 811 148 817.5 c 132,-1,24
 123 824 123 824 80 824 c 5,25,-1
 80 862 l 5,0,-1
EndSplineSet
Fore
SplineSet
80 862 m 5,0,-1
 298 862 l 5,1,-1
 298 680 l 5,2,3
 402 766 402 766 511 819 c 132,-1,4
 620 872 620 872 694 872 c 4,5,6
 800 872 800 872 843 817.5 c 132,-1,7
 886 763 886 763 886 632 c 6,8,-1
 886 0 l 5,9,-1
 784 0 l 5,10,-1
 784 606 l 6,11,12
 784 703 784 703 757 743.5 c 132,-1,13
 730 784 730 784 648 784 c 4,14,15
 570 784 570 784 466.5 733.5 c 132,-1,16
 363 683 363 683 298 620 c 5,17,-1
 298 0 l 5,18,-1
 198 0 l 5,19,-1
 198 726 l 6,20,21
 198 753 198 753 196 766 c 132,-1,22
 194 779 194 779 183.5 795 c 132,-1,23
 173 811 173 811 148 817.5 c 132,-1,24
 123 824 123 824 80 824 c 5,25,-1
 80 862 l 5,0,-1
EndSplineSet
Validated: 19457
EndChar

StartChar: nine
Encoding: 399 57 143
Width: 1046
VWidth: 0
Flags: W
HStem: -38 21G<465.333 485> 554 100<339.516 616.429> 1296 106<361.476 666.468>
VStem: 108 114<781.102 1154.82> 834 114<695.106 1096.06>
LayerCount: 2
Back
SplineSet
480 -38 m 1,0,1
 414 52 l 1,2,-1
 449 84 l 2,3,4
 484 116 484 116 537 178.5 c 128,-1,5
 590 241 590 241 646 319.5 c 128,-1,6
 702 398 702 398 751.5 507 c 128,-1,7
 801 616 801 616 822 724 c 1,8,-1
 800 706.5 l 2,9,10
 778 689 778 689 737.5 664 c 128,-1,11
 697 639 697 639 649 614 c 128,-1,12
 601 589 601 589 540.5 571.5 c 128,-1,13
 480 554 480 554 426 554 c 0,14,15
 369 554 369 554 313.5 580 c 128,-1,16
 258 606 258 606 211.5 654.5 c 128,-1,17
 165 703 165 703 136.5 781.5 c 128,-1,18
 108 860 108 860 108 956 c 0,19,20
 108 1064 108 1064 144.5 1152 c 128,-1,21
 181 1240 181 1240 240 1293 c 128,-1,22
 299 1346 299 1346 367.5 1374 c 128,-1,23
 436 1402 436 1402 506 1402 c 0,24,25
 575 1402 575 1402 637.5 1383.5 c 128,-1,26
 700 1365 700 1365 757.5 1323 c 128,-1,27
 815 1281 815 1281 856.5 1218.5 c 128,-1,28
 898 1156 898 1156 923 1061.5 c 128,-1,29
 948 967 948 967 948 850 c 0,30,31
 948 748 948 748 921.5 643 c 128,-1,32
 895 538 895 538 856 455.5 c 128,-1,33
 817 373 817 373 763 290.5 c 128,-1,34
 709 208 709 208 665 154.5 c 128,-1,35
 621 101 621 101 572 50.5 c 128,-1,36
 523 0 523 0 506.5 -15 c 128,-1,37
 490 -30 490 -30 480 -38 c 1,0,1
830 788 m 5,38,39
 846 918 846 918 812 1034.5 c 132,-1,40
 778 1151 778 1151 700 1223.5 c 132,-1,41
 622 1296 622 1296 518 1296 c 4,42,43
 462 1296 462 1296 410 1275.5 c 132,-1,44
 358 1255 358 1255 315.5 1216 c 132,-1,45
 273 1177 273 1177 247.5 1115 c 132,-1,46
 222 1053 222 1053 222 976 c 4,47,48
 222 826 222 826 294.5 740 c 132,-1,49
 367 654 367 654 492 654 c 4,50,51
 547 654 547 654 603 668.5 c 132,-1,52
 659 683 659 683 696 700.5 c 132,-1,53
 733 718 733 718 768 741 c 132,-1,54
 803 764 803 764 813.5 773.5 c 132,-1,55
 824 783 824 783 830 788 c 5,38,39
EndSplineSet
Fore
SplineSet
480 -38 m 1,0,1
 414 52 l 1,2,-1
 449 84 l 2,3,4
 484 116 484 116 537 178.5 c 128,-1,5
 590 241 590 241 646 319.5 c 128,-1,6
 702 398 702 398 751.5 507 c 128,-1,7
 801 616 801 616 822 724 c 1,8,-1
 800 706 l 2,9,10
 778 689 778 689 737.5 664 c 128,-1,11
 697 639 697 639 649 614 c 128,-1,12
 601 589 601 589 540.5 571.5 c 128,-1,13
 480 554 480 554 426 554 c 0,14,15
 369 554 369 554 313.5 580 c 128,-1,16
 258 606 258 606 211.5 654.5 c 128,-1,17
 165 703 165 703 136.5 781.5 c 128,-1,18
 108 860 108 860 108 956 c 0,19,20
 108 1064 108 1064 144.5 1152 c 128,-1,21
 181 1240 181 1240 240 1293 c 128,-1,22
 299 1346 299 1346 367.5 1374 c 128,-1,23
 436 1402 436 1402 506 1402 c 0,24,25
 575 1402 575 1402 637.5 1383.5 c 128,-1,26
 700 1365 700 1365 757.5 1323 c 128,-1,27
 815 1281 815 1281 856.5 1218.5 c 128,-1,28
 898 1156 898 1156 923 1061.5 c 128,-1,29
 948 967 948 967 948 850 c 0,30,31
 948 748 948 748 921.5 643 c 128,-1,32
 895 538 895 538 856 455.5 c 128,-1,33
 817 373 817 373 763 290.5 c 128,-1,34
 709 208 709 208 665 154.5 c 128,-1,35
 621 101 621 101 572 50.5 c 128,-1,36
 523 0 523 0 506.5 -15 c 128,-1,37
 490 -30 490 -30 480 -38 c 1,0,1
830 788 m 1,38,39
 834 818 834 818 834 854 c 0,40,41
 834 889 834 889 832 917 c 0,42,43
 820 1090 820 1090 722 1201 c 0,44,45
 639 1296 639 1296 518 1296 c 3,46,47
 460 1296 460 1296 410 1276 c 0,48,49
 358 1255 358 1255 315.5 1216 c 128,-1,50
 273 1177 273 1177 247.5 1115 c 128,-1,51
 222 1053 222 1053 222 976 c 0,52,53
 222 826 222 826 294.5 740 c 128,-1,54
 367 654 367 654 492 654 c 0,55,56
 547 654 547 654 603 668.5 c 128,-1,57
 659 683 659 683 696 700 c 0,58,59
 721 712 721 712 767 740 c 0,60,61
 796 757 796 757 810 770 c 0,62,63
 830 788 l 1,38,39
EndSplineSet
Validated: 3073
EndChar

StartChar: numbersign
Encoding: 402 35 146
Width: 1348
VWidth: 0
Flags: MW
HStem: -2 21G<210 315.045 652 757.045> 438 90<26 321 444 763 886 1256> 862 90<98 429 552 871 994 1328> 1380 20G<560.911 666 1002.91 1108>
DStem2: 210 -2 310 -2 0.246113 0.969241<24.6113 453.785 571.288 891.323 1008.83 1446.49> 652 -2 752 -2 0.246113 0.969241<24.6113 453.785 571.288 891.323 1008.83 1446.49>
LayerCount: 2
Back
SplineSet
1008 1400 m 5,0,-1
 1108 1400 l 5,1,-1
 994 952 l 5,2,-1
 1348 952 l 5,3,-1
 1328 862 l 5,4,-1
 971 862 l 5,5,-1
 886 528 l 5,6,-1
 1276 528 l 5,7,-1
 1256 438 l 5,8,-1
 863 438 l 5,9,-1
 752 -2 l 5,10,-1
 652 -2 l 5,11,-1
 763 438 l 5,12,-1
 421 438 l 5,13,-1
 310 -2 l 5,14,-1
 210 -2 l 5,15,-1
 321 438 l 5,16,-1
 6 438 l 5,17,18
 26 528 l 5,19,-1
 344 528 l 5,20,-1
 429 862 l 5,21,-1
 78 862 l 5,22,23
 98 952 l 5,24,-1
 452 952 l 5,25,-1
 566 1400 l 5,26,-1
 666 1400 l 5,27,-1
 552 952 l 5,28,-1
 894 952 l 5,29,-1
 1008 1400 l 5,0,-1
444 528 m 1,30,-1
 786 528 l 1,31,-1
 871 862 l 1,32,-1
 529 862 l 1,33,-1
 444 528 l 1,30,-1
EndSplineSet
Fore
SplineSet
1008 1400 m 5,0,-1
 1108 1400 l 5,1,-1
 994 952 l 1,2,-1
 1348 952 l 1,3,-1
 1328 862 l 1,4,-1
 971 862 l 1,5,-1
 886 528 l 1,6,-1
 1276 528 l 1,7,-1
 1256 438 l 1,8,-1
 863 438 l 1,9,-1
 752 -2 l 5,10,-1
 652 -2 l 5,11,-1
 763 438 l 1,12,-1
 421 438 l 1,13,-1
 310 -2 l 1,14,-1
 210 -2 l 1,15,-1
 321 438 l 1,16,-1
 6 438 l 1,17,18
 26 528 l 1,19,-1
 344 528 l 1,20,-1
 429 862 l 1,21,-1
 78 862 l 1,22,23
 98 952 l 1,24,-1
 452 952 l 1,25,-1
 566 1400 l 1,26,-1
 666 1400 l 1,27,-1
 552 952 l 1,28,-1
 894 952 l 1,29,-1
 1008 1400 l 5,0,-1
444 528 m 1,30,-1
 786 528 l 1,31,-1
 871 862 l 1,32,-1
 529 862 l 1,33,-1
 444 528 l 1,30,-1
EndSplineSet
Validated: 19457
EndChar

StartChar: o
Encoding: 403 111 147
Width: 920
VWidth: 0
Flags: W
HStem: -12 48<353.552 569.681> 786 106<319.503 608.79>
VStem: 82 102<210.168 640.134> 742 98<210.112 642.582>
LayerCount: 2
Back
SplineSet
460 892 m 4,0,1
 638 892 638 892 739 767 c 132,-1,2
 840 642 840 642 840 446 c 4,3,4
 840 351 840 351 816.5 269.5 c 132,-1,5
 793 188 793 188 748 124.5 c 132,-1,6
 703 61 703 61 629.5 24.5 c 132,-1,7
 556 -12 556 -12 462 -12 c 4,8,9
 367 -12 367 -12 293 24.5 c 132,-1,10
 219 61 219 61 174 124.5 c 132,-1,11
 129 188 129 188 105.5 269.5 c 132,-1,12
 82 351 82 351 82 446 c 4,13,14
 82 642 82 642 182.5 767 c 132,-1,15
 283 892 283 892 460 892 c 4,0,1
462 36 m 4,16,17
 517 36 517 36 564.5 57 c 132,-1,18
 612 78 612 78 653 123 c 132,-1,19
 694 168 694 168 718 250.5 c 132,-1,20
 742 333 742 333 742 444 c 4,21,22
 742 603 742 603 661.5 694.5 c 132,-1,23
 581 786 581 786 464 786 c 4,24,25
 346 786 346 786 265 694.5 c 132,-1,26
 184 603 184 603 184 444 c 4,27,28
 184 354 184 354 200 283 c 132,-1,29
 216 212 216 212 242.5 166.5 c 132,-1,30
 269 121 269 121 305.5 91 c 132,-1,31
 342 61 342 61 380.5 48.5 c 132,-1,32
 419 36 419 36 462 36 c 4,16,17
EndSplineSet
Fore
SplineSet
460 892 m 4,0,1
 638 892 638 892 739 767 c 132,-1,2
 840 642 840 642 840 446 c 4,3,4
 840 351 840 351 816.5 269.5 c 132,-1,5
 793 188 793 188 748 124.5 c 132,-1,6
 703 61 703 61 629.5 24.5 c 132,-1,7
 556 -12 556 -12 462 -12 c 4,8,9
 367 -12 367 -12 293 24.5 c 132,-1,10
 219 61 219 61 174 124.5 c 132,-1,11
 129 188 129 188 105.5 269.5 c 132,-1,12
 82 351 82 351 82 446 c 4,13,14
 82 642 82 642 182.5 767 c 132,-1,15
 283 892 283 892 460 892 c 4,0,1
462 36 m 4,16,17
 517 36 517 36 564.5 57 c 132,-1,18
 612 78 612 78 653 123 c 132,-1,19
 694 168 694 168 718 250.5 c 132,-1,20
 742 333 742 333 742 444 c 4,21,22
 742 603 742 603 661.5 694.5 c 132,-1,23
 581 786 581 786 464 786 c 4,24,25
 346 786 346 786 265 694.5 c 132,-1,26
 184 603 184 603 184 444 c 4,27,28
 184 354 184 354 200 283 c 132,-1,29
 216 212 216 212 242.5 166.5 c 132,-1,30
 269 121 269 121 305.5 91 c 132,-1,31
 342 61 342 61 380.5 48.5 c 132,-1,32
 419 36 419 36 462 36 c 4,16,17
EndSplineSet
Validated: 19457
EndChar

StartChar: ogonek
Encoding: 407 731 151
Width: 438
VWidth: 0
Flags: W
HStem: -286 50<214.627 330.645> -20 20G<227.5 278>
VStem: 106 88<-222.988 -67.4846>
LayerCount: 2
Back
SplineSet
278 0 m 5,0,-1
 257 -19 l 6,1,2
 236 -38 236 -38 215 -77 c 132,-1,3
 194 -116 194 -116 194 -156 c 132,-1,4
 194 -196 194 -196 214 -216 c 132,-1,5
 234 -236 234 -236 262 -236 c 4,6,7
 300 -236 300 -236 332 -214 c 5,8,-1
 348 -250 l 5,9,-1
 333.5 -259.5 l 6,10,11
 319 -269 319 -269 289 -278 c 132,-1,12
 259 -287 259 -287 228 -286 c 4,13,14
 176 -284 176 -284 141 -257.5 c 132,-1,15
 106 -231 106 -231 106 -172 c 4,16,17
 106 -144 106 -144 119.5 -115.5 c 132,-1,18
 133 -87 133 -87 149 -68 c 132,-1,19
 165 -49 165 -49 186.5 -31.5 c 132,-1,20
 208 -14 208 -14 216.5 -8.5 c 132,-1,21
 225 -3 225 -3 230 0 c 5,22,-1
 278 0 l 5,0,-1
EndSplineSet
Fore
SplineSet
278 0 m 5,0,-1
 257 -19 l 6,1,2
 236 -38 236 -38 215 -77 c 132,-1,3
 194 -116 194 -116 194 -156 c 132,-1,4
 194 -196 194 -196 214 -216 c 132,-1,5
 234 -236 234 -236 262 -236 c 4,6,7
 300 -236 300 -236 332 -214 c 5,8,-1
 348 -250 l 5,9,-1
 333.5 -259.5 l 6,10,11
 319 -269 319 -269 289 -278 c 132,-1,12
 259 -287 259 -287 228 -286 c 4,13,14
 176 -284 176 -284 141 -257.5 c 132,-1,15
 106 -231 106 -231 106 -172 c 4,16,17
 106 -144 106 -144 119.5 -115.5 c 132,-1,18
 133 -87 133 -87 149 -68 c 132,-1,19
 165 -49 165 -49 186.5 -31.5 c 132,-1,20
 208 -14 208 -14 216.5 -8.5 c 132,-1,21
 225 -3 225 -3 230 0 c 5,22,-1
 278 0 l 5,0,-1
EndSplineSet
Validated: 19457
EndChar

StartChar: one
Encoding: 409 49 153
Width: 734
VWidth: 0
Flags: W
HStem: 0 21G<408 518> 1380 20G<451.5 518>
VStem: 408 110<0 1222>
LayerCount: 2
Back
SplineSet
408 0 m 5,0,-1
 408 1222 l 5,1,-1
 364.5 1197.5 l 6,2,3
 321 1173 321 1173 239 1140.5 c 132,-1,4
 157 1108 157 1108 80 1092 c 5,5,-1
 72 1130 l 5,6,7
 109 1143 109 1143 144.5 1159 c 132,-1,8
 180 1175 180 1175 210 1193 c 132,-1,9
 240 1211 240 1211 267 1229.5 c 132,-1,10
 294 1248 294 1248 318 1267.5 c 132,-1,11
 342 1287 342 1287 360.5 1303.5 c 132,-1,12
 379 1320 379 1320 395.5 1337.5 c 132,-1,13
 412 1355 412 1355 422 1365.5 c 132,-1,14
 432 1376 432 1376 441.5 1387.5 c 132,-1,15
 451 1399 451 1399 452 1400 c 5,16,-1
 518 1400 l 5,17,-1
 518 0 l 5,18,-1
 408 0 l 5,0,-1
EndSplineSet
Fore
SplineSet
408 0 m 5,0,-1
 408 1222 l 5,1,-1
 364.5 1197.5 l 6,2,3
 321 1173 321 1173 239 1140.5 c 132,-1,4
 157 1108 157 1108 80 1092 c 5,5,-1
 72 1130 l 5,6,7
 109 1143 109 1143 144.5 1159 c 132,-1,8
 180 1175 180 1175 210 1193 c 132,-1,9
 240 1211 240 1211 267 1229.5 c 132,-1,10
 294 1248 294 1248 318 1267.5 c 132,-1,11
 342 1287 342 1287 360.5 1303.5 c 132,-1,12
 379 1320 379 1320 395.5 1337.5 c 132,-1,13
 412 1355 412 1355 422 1365.5 c 132,-1,14
 432 1376 432 1376 441.5 1387.5 c 132,-1,15
 451 1399 451 1399 452 1400 c 5,16,-1
 518 1400 l 5,17,-1
 518 0 l 5,18,-1
 408 0 l 5,0,-1
EndSplineSet
Validated: 19457
EndChar

StartChar: onehalf
Encoding: 410 189 154
Width: 1378
VWidth: 0
Flags: MW
HStem: -2 82<838 1230> 640 68<876.914 1063.41> 1380 20G<250 310>
VStem: 226 84<706 1298> 1112 88<354.917 594.618>
DStem2: 116 -2 218 -2 0.534765 0.845001<54.546 1656.8>
LayerCount: 2
Back
SplineSet
116 -2 m 1,0,-1
 1002 1398 l 1,1,-1
 1104 1398 l 1,2,-1
 218 -2 l 1,3,-1
 116 -2 l 1,0,-1
786 520 m 1,4,-1
 760 538 l 1,5,6
 763 545 763 545 768.5 556.5 c 128,-1,7
 774 568 774 568 795 597 c 128,-1,8
 816 626 816 626 840.5 648.5 c 128,-1,9
 865 671 865 671 906.5 689.5 c 128,-1,10
 948 708 948 708 994 708 c 0,11,12
 1091 708 1091 708 1145.5 651 c 128,-1,13
 1200 594 1200 594 1200 506 c 0,14,15
 1200 472 1200 472 1192 440.5 c 128,-1,16
 1184 409 1184 409 1172.5 383.5 c 128,-1,17
 1161 358 1161 358 1137 329 c 128,-1,18
 1113 300 1113 300 1095 281 c 128,-1,19
 1077 262 1077 262 1040 232 c 128,-1,20
 1003 202 1003 202 980 185 c 128,-1,21
 957 168 957 168 910 133.5 c 128,-1,22
 863 99 863 99 838 80 c 1,23,-1
 1230 80 l 1,24,-1
 1230 -2 l 1,25,-1
 740 -2 l 1,26,-1
 740 52 l 1,27,28
 769 74 769 74 818.5 111.5 c 128,-1,29
 868 149 868 149 892 167.5 c 128,-1,30
 916 186 916 186 953.5 217 c 128,-1,31
 991 248 991 248 1009.5 267 c 128,-1,32
 1028 286 1028 286 1051.5 314.5 c 128,-1,33
 1075 343 1075 343 1085.5 366 c 128,-1,34
 1096 389 1096 389 1104 418 c 128,-1,35
 1112 447 1112 447 1112 478 c 0,36,37
 1112 552 1112 552 1073.5 596 c 128,-1,38
 1035 640 1035 640 974 640 c 0,39,40
 901 640 901 640 850.5 598 c 128,-1,41
 800 556 800 556 786 520 c 1,4,-1
226 706 m 1,42,-1
 226 1298 l 1,43,-1
 204 1286 l 2,44,45
 182 1274 182 1274 141 1258 c 128,-1,46
 100 1242 100 1242 62 1234 c 1,47,-1
 58 1264 l 1,48,49
 109 1282 109 1282 158 1315.5 c 128,-1,50
 207 1349 207 1349 225.5 1367.5 c 128,-1,51
 244 1386 244 1386 256 1400 c 1,52,-1
 310 1400 l 5,53,-1
 310 706 l 5,54,-1
 226 706 l 1,42,-1
EndSplineSet
Fore
SplineSet
116 -2 m 5,0,-1
 1002 1398 l 5,1,-1
 1104 1398 l 5,2,-1
 218 -2 l 5,3,-1
 116 -2 l 5,0,-1
786 520 m 1,4,-1
 760 538 l 1,5,6
 763 545 763 545 768.5 556.5 c 128,-1,7
 774 568 774 568 795 597 c 128,-1,8
 816 626 816 626 840.5 648.5 c 128,-1,9
 865 671 865 671 906.5 689.5 c 128,-1,10
 948 708 948 708 994 708 c 0,11,12
 1091 708 1091 708 1145.5 651 c 128,-1,13
 1200 594 1200 594 1200 506 c 0,14,15
 1200 472 1200 472 1192 440.5 c 128,-1,16
 1184 409 1184 409 1172.5 383.5 c 128,-1,17
 1161 358 1161 358 1137 329 c 128,-1,18
 1113 300 1113 300 1095 281 c 128,-1,19
 1077 262 1077 262 1040 232 c 128,-1,20
 1003 202 1003 202 980 185 c 128,-1,21
 957 168 957 168 910 133.5 c 128,-1,22
 863 99 863 99 838 80 c 1,23,-1
 1230 80 l 1,24,-1
 1230 -2 l 1,25,-1
 740 -2 l 1,26,-1
 740 52 l 1,27,28
 769 74 769 74 818.5 111.5 c 128,-1,29
 868 149 868 149 892 167.5 c 128,-1,30
 916 186 916 186 953.5 217 c 128,-1,31
 991 248 991 248 1009.5 267 c 128,-1,32
 1028 286 1028 286 1051.5 314.5 c 128,-1,33
 1075 343 1075 343 1085.5 366 c 128,-1,34
 1096 389 1096 389 1104 418 c 128,-1,35
 1112 447 1112 447 1112 478 c 0,36,37
 1112 552 1112 552 1073.5 596 c 128,-1,38
 1035 640 1035 640 974 640 c 0,39,40
 901 640 901 640 850.5 598 c 128,-1,41
 800 556 800 556 786 520 c 1,4,-1
226 706 m 1,42,-1
 226 1298 l 1,43,-1
 204 1286 l 2,44,45
 182 1274 182 1274 141 1258 c 128,-1,46
 100 1242 100 1242 62 1234 c 1,47,-1
 58 1264 l 1,48,49
 109 1282 109 1282 158 1315.5 c 128,-1,50
 207 1349 207 1349 225.5 1367.5 c 128,-1,51
 244 1386 244 1386 256 1400 c 1,52,-1
 310 1400 l 1,53,-1
 310 706 l 1,54,-1
 226 706 l 1,42,-1
EndSplineSet
Validated: 3073
EndChar

StartChar: onequarter
Encoding: 411 188 155
Width: 1298
VWidth: 0
Flags: MW
HStem: -2 21G<140 254.657 998 1082> 190 80<748 998 1082 1166> 1380 20G<254 314>
VStem: 230 84<706 1298> 998 84<2 190 270 580>
DStem2: 140 -2 242 -2 0.534765 0.845001<54.546 1656.8>
LayerCount: 2
Back
SplineSet
140 -2 m 1,0,-1
 1026 1398 l 1,1,-1
 1128 1398 l 1,2,-1
 242 -2 l 1,3,-1
 140 -2 l 1,0,-1
998 2 m 1,4,-1
 998 190 l 1,5,-1
 682 190 l 1,6,-1
 682 240 l 1,7,-1
 1044 696 l 1,8,-1
 1082 696 l 1,9,-1
 1082 270 l 1,10,-1
 1166 270 l 1,11,-1
 1166 190 l 1,12,-1
 1082 190 l 1,13,-1
 1082 2 l 1,14,-1
 998 2 l 1,4,-1
230 706 m 1,15,-1
 230 1298 l 1,16,-1
 208 1286 l 2,17,18
 186 1274 186 1274 145 1258 c 128,-1,19
 104 1242 104 1242 66 1234 c 1,20,-1
 62 1264 l 1,21,22
 113 1282 113 1282 162 1315.5 c 128,-1,23
 211 1349 211 1349 229.5 1367.5 c 128,-1,24
 248 1386 248 1386 260 1400 c 1,25,-1
 314 1400 l 1,26,-1
 314 706 l 1,27,-1
 230 706 l 1,15,-1
998 580 m 5,28,-1
 748 270 l 1,29,-1
 998 270 l 5,30,-1
 998 580 l 5,28,-1
EndSplineSet
Fore
SplineSet
140 -2 m 5,0,-1
 1026 1398 l 5,1,-1
 1128 1398 l 5,2,-1
 242 -2 l 5,3,-1
 140 -2 l 5,0,-1
998 2 m 1,4,-1
 998 190 l 1,5,-1
 682 190 l 1,6,-1
 682 240 l 1,7,-1
 1044 696 l 1,8,-1
 1082 696 l 1,9,-1
 1082 270 l 1,10,-1
 1166 270 l 1,11,-1
 1166 190 l 1,12,-1
 1082 190 l 1,13,-1
 1082 2 l 1,14,-1
 998 2 l 1,4,-1
230 706 m 1,15,-1
 230 1298 l 1,16,-1
 208 1286 l 2,17,18
 186 1274 186 1274 145 1258 c 128,-1,19
 104 1242 104 1242 66 1234 c 1,20,-1
 62 1264 l 1,21,22
 113 1282 113 1282 162 1315.5 c 128,-1,23
 211 1349 211 1349 229.5 1367.5 c 128,-1,24
 248 1386 248 1386 260 1400 c 1,25,-1
 314 1400 l 1,26,-1
 314 706 l 1,27,-1
 230 706 l 1,15,-1
998 580 m 1,28,-1
 748 270 l 1,29,-1
 998 270 l 1,30,-1
 998 580 l 1,28,-1
EndSplineSet
Validated: 3073
EndChar

StartChar: onesuperior
Encoding: 412 185 156
Width: 490
VWidth: 0
Flags: W
HStem: 1380 20G<264 324>
VStem: 240 84<706 1298>
LayerCount: 2
Back
SplineSet
240 706 m 5,0,-1
 240 1298 l 5,1,-1
 218 1286 l 6,2,3
 196 1274 196 1274 155 1258 c 132,-1,4
 114 1242 114 1242 76 1234 c 5,5,-1
 72 1264 l 5,6,7
 123 1282 123 1282 172 1315.5 c 132,-1,8
 221 1349 221 1349 239.5 1367.5 c 132,-1,9
 258 1386 258 1386 270 1400 c 5,10,-1
 324 1400 l 5,11,-1
 324 706 l 5,12,-1
 240 706 l 5,0,-1
EndSplineSet
Fore
SplineSet
240 706 m 5,0,-1
 240 1298 l 5,1,-1
 218 1286 l 6,2,3
 196 1274 196 1274 155 1258 c 132,-1,4
 114 1242 114 1242 76 1234 c 5,5,-1
 72 1264 l 5,6,7
 123 1282 123 1282 172 1315.5 c 132,-1,8
 221 1349 221 1349 239.5 1367.5 c 132,-1,9
 258 1386 258 1386 270 1400 c 5,10,-1
 324 1400 l 5,11,-1
 324 706 l 5,12,-1
 240 706 l 5,0,-1
EndSplineSet
Validated: 19457
EndChar

